<?xml version="1.0" encoding="UTF-8" standalone="no"?>
<svg
   xmlns:dc="http://purl.org/dc/elements/1.1/"
   xmlns:cc="http://creativecommons.org/ns#"
   xmlns:rdf="http://www.w3.org/1999/02/22-rdf-syntax-ns#"
   xmlns:svg="http://www.w3.org/2000/svg"
   xmlns="http://www.w3.org/2000/svg"
   xmlns:sodipodi="http://sodipodi.sourceforge.net/DTD/sodipodi-0.dtd"
   xmlns:inkscape="http://www.inkscape.org/namespaces/inkscape"
   version="1.1"
   id="Layer_1"
   x="0px"
   y="0px"
   width="150px"
   height="150px"
   viewBox="0 0 150 150"
   enable-background="new 0 0 150 150"
   xml:space="preserve"
   sodipodi:docname="preloader.svg"
   inkscape:version="1.0.1 (3bc2e813f5, 2020-09-07)"><metadata
   id="metadata17"><rdf:RDF><cc:Work
       rdf:about=""><dc:format>image/svg+xml</dc:format><dc:type
         rdf:resource="http://purl.org/dc/dcmitype/StillImage" /><dc:title></dc:title></cc:Work></rdf:RDF></metadata><defs
   id="defs15" /><sodipodi:namedview
   pagecolor="#ffffff"
   bordercolor="#666666"
   borderopacity="1"
   objecttolerance="10"
   gridtolerance="10"
   guidetolerance="10"
   inkscape:pageopacity="0"
   inkscape:pageshadow="2"
   inkscape:window-width="2560"
   inkscape:window-height="1536"
   id="namedview13"
   showgrid="false"
   inkscape:zoom="6.72"
   inkscape:cx="75"
   inkscape:cy="75"
   inkscape:window-x="0"
   inkscape:window-y="27"
   inkscape:window-maximized="1"
   inkscape:current-layer="Layer_1" />

<g
   id="g10">
<path
   fill="#F25D50"
   d="M81.87,41.05v17.08H68.13V41.05c0-3.79,3.07-6.87,6.87-6.87c1.9,0,3.62,0.77,4.86,2.01  C81.1,37.44,81.87,39.16,81.87,41.05z"
   id="path2"
   style="fill:#3d3d3d;fill-opacity:1">
	<animateTransform
   attributeName="transform"
   attributeType="XML"
   type="translate"
   dur="1s"
   values="0,10;0,-10;0,10;"
   repeatCount="indefinite" />
</path>
<path
   fill="#F25D50"
   d="M81.87,91.87v17.08c0,3.79-3.07,6.87-6.87,6.87c-1.9,0-3.62-0.77-4.86-2.01c-1.24-1.25-2.01-2.97-2.01-4.86  V91.87H81.87z"
   id="path4"
   style="fill:#3d3d3d;fill-opacity:1">
	<animateTransform
   attributeName="transform"
   attributeType="XML"
   type="translate"
   dur="1s"
   values="0,-10;0,10;0,-10;"
   repeatCount="indefinite" />
</path>
<path
   fill="#2D999F"
   d="M58.13,68.13v13.74H41.05c-3.79,0-6.87-3.07-6.87-6.87c0-1.9,0.77-3.62,2.01-4.86  c1.25-1.24,2.97-2.01,4.86-2.01H58.13z"
   id="path6"
   style="fill:#3d3d3d;fill-opacity:1">
	<animateTransform
   attributeName="transform"
   attributeType="XML"
   type="translate"
   dur="1s"
   values="10,0;-10,0;10,0;"
   repeatCount="indefinite" />
</path>
<path
   fill="#2D999F"
   d="M115.82,75c0,1.9-0.77,3.62-2.01,4.86c-1.25,1.24-2.97,2.01-4.86,2.01H91.87V68.13h17.08  C112.74,68.13,115.82,71.2,115.82,75z"
   id="path8"
   style="fill:#3d3d3d;fill-opacity:1">
	<animateTransform
   attributeName="transform"
   attributeType="XML"
   type="translate"
   dur="1s"
   values="-10,0;10,0;-10,0;"
   repeatCount="indefinite" />
</path>
<animateTransform
   attributeName="transform"
   attributeType="XML"
   type="rotate"
   from="0 75 75"
   to="360 75 75"
   dur="2s"
   repeatCount="indefinite" />
</g>
</svg>
