<svg id="svg" version="1.1" xmlns="http://www.w3.org/2000/svg" xmlns:xlink="http://www.w3.org/1999/xlink" width="400" height="136.66666666666666" viewBox="0, 0, 400,136.66666666666666"><g id="svgg"><path id="path0" d="M17.247 1.009 C -5.152 8.157,-6.126 43.406,15.836 52.087 C 36.413 60.221,55.928 44.659,53.232 22.265 C 51.259 5.878,33.976 -4.330,17.247 1.009 M61.333 27.000 L 61.333 53.333 67.000 53.333 L 72.667 53.333 72.667 44.000 L 72.667 34.667 77.193 34.667 C 90.046 34.667,97.697 29.088,98.487 19.140 C 99.554 5.694,92.379 0.667,72.123 0.667 L 61.333 0.667 61.333 27.000 M106.000 27.000 L 106.000 53.333 121.333 53.333 L 136.667 53.333 136.667 48.333 L 136.667 43.333 127.000 43.333 L 117.333 43.333 117.333 37.000 L 117.333 30.667 125.667 30.667 L 134.000 30.667 134.000 26.000 L 134.000 21.333 125.667 21.333 L 117.333 21.333 117.333 15.667 L 117.333 10.000 126.667 10.000 L 136.000 10.000 136.000 5.333 L 136.000 0.667 121.000 0.667 L 106.000 0.667 106.000 27.000 M148.000 26.974 L 148.000 53.333 153.000 53.333 L 158.000 53.333 158.000 35.580 L 158.000 17.826 170.248 35.413 L 182.496 53.000 187.915 53.194 L 193.333 53.387 193.333 27.027 L 193.333 0.667 188.000 0.667 L 182.667 0.667 182.627 17.500 C 182.597 30.789,182.421 34.070,181.794 33.085 C 181.357 32.398,176.198 24.898,170.328 16.418 L 159.656 1.000 153.828 0.807 L 148.000 0.615 148.000 26.974 M208.667 27.091 L 208.667 53.515 220.167 53.139 C 244.691 52.336,253.667 45.154,253.667 26.333 C 253.667 7.573,244.433 0.706,219.167 0.678 L 208.667 0.667 208.667 27.091 M277.701 1.809 C 270.107 21.444,258.667 51.951,258.667 52.564 C 258.667 53.166,260.207 53.334,264.446 53.193 L 270.226 53.000 271.841 48.150 L 273.456 43.299 283.561 43.483 L 293.667 43.667 295.324 48.500 L 296.980 53.333 303.157 53.333 C 307.658 53.333,309.333 53.107,309.333 52.499 C 309.333 52.040,304.873 40.265,299.422 26.332 L 289.511 1.000 283.836 0.809 C 278.898 0.642,278.102 0.772,277.701 1.809 M309.333 5.667 L 309.333 10.667 316.333 10.667 L 323.333 10.667 323.333 32.000 L 323.333 53.333 329.333 53.333 L 335.333 53.333 335.333 32.000 L 335.333 10.667 342.333 10.667 L 349.333 10.667 349.333 5.667 L 349.333 0.667 329.333 0.667 L 309.333 0.667 309.333 5.667 M368.507 1.475 C 368.330 1.947,363.944 13.465,358.759 27.070 C 347.538 56.519,347.969 53.431,355.113 53.193 L 360.892 53.000 362.507 48.150 L 364.122 43.299 374.212 43.483 L 384.301 43.667 385.999 48.333 L 387.697 53.000 393.849 53.192 C 401.504 53.430,401.932 56.498,390.096 26.283 L 380.192 1.000 374.510 0.809 C 370.346 0.668,368.742 0.846,368.507 1.475 M34.579 11.530 C 45.206 18.562,42.861 40.179,31.093 43.678 C 18.498 47.422,8.710 34.653,13.029 20.112 C 15.844 10.630,26.692 6.310,34.579 11.530 M83.347 11.007 C 85.883 12.319,86.667 13.890,86.667 17.667 C 86.667 23.352,84.178 25.333,77.033 25.333 L 72.667 25.333 72.667 17.667 L 72.667 10.000 77.033 10.000 C 79.624 10.000,82.191 10.409,83.347 11.007 M232.846 11.333 C 243.825 14.551,245.296 34.636,235.018 40.994 C 232.176 42.752,231.046 43.029,225.887 43.233 L 220.000 43.466 220.000 26.638 L 220.000 9.809 225.167 10.203 C 228.008 10.420,231.464 10.928,232.846 11.333 M289.739 33.816 C 289.610 33.945,286.673 33.964,283.212 33.859 L 276.919 33.667 280.200 24.216 L 283.480 14.765 286.727 24.174 C 288.512 29.349,289.868 33.688,289.739 33.816 M380.417 33.805 C 380.282 33.940,377.354 33.964,373.909 33.859 L 367.647 33.667 370.897 24.193 L 374.147 14.720 377.405 24.140 C 379.196 29.321,380.552 33.670,380.417 33.805 M236.133 72.133 C 234.263 74.003,235.672 77.333,238.333 77.333 C 240.155 77.333,241.333 76.112,241.333 74.223 C 241.333 71.857,237.821 70.446,236.133 72.133 M243.714 72.381 C 242.486 73.609,242.419 74.292,243.357 76.044 C 244.694 78.542,248.667 77.262,248.667 74.333 C 248.667 71.526,245.728 70.367,243.714 72.381 M2.667 104.333 L 2.667 136.000 8.667 136.000 L 14.667 136.000 14.667 122.000 L 14.667 108.000 29.333 108.000 L 44.000 108.000 44.000 122.000 L 44.000 136.000 50.000 136.000 L 56.000 136.000 56.000 104.333 L 56.000 72.667 50.000 72.667 L 44.000 72.667 44.000 85.333 L 44.000 98.000 29.333 98.000 L 14.667 98.000 14.667 85.333 L 14.667 72.667 8.667 72.667 L 2.667 72.667 2.667 104.333 M74.795 96.833 L 75.000 121.000 76.871 124.810 C 83.848 139.018,111.084 141.512,120.318 128.787 C 124.770 122.654,124.932 121.557,125.184 95.833 L 125.412 72.667 119.731 72.667 L 114.050 72.667 113.859 95.167 C 113.616 123.638,112.753 125.840,101.560 126.553 C 88.160 127.406,86.446 123.847,86.127 94.500 L 85.890 72.667 80.240 72.667 L 74.591 72.667 74.795 96.833 M144.000 104.265 L 144.000 136.000 155.167 135.995 C 172.312 135.987,179.221 134.346,183.589 129.244 C 190.128 121.605,188.031 108.589,179.602 104.494 C 176.897 103.179,175.799 102.000,177.282 102.000 C 182.343 102.000,186.455 89.577,183.633 82.812 C 180.417 75.102,175.409 73.186,157.500 72.812 L 144.000 72.530 144.000 104.265 M212.676 79.168 C 206.398 82.317,207.661 89.190,215.263 93.242 C 222.159 96.917,219.404 100.204,211.550 97.672 C 210.379 97.294,209.898 97.596,209.044 99.248 C 207.517 102.200,210.241 103.583,216.848 103.210 C 226.878 102.643,228.156 93.673,218.946 88.495 C 213.185 85.256,213.781 81.165,219.657 83.620 C 221.937 84.572,222.046 84.550,223.126 82.901 C 225.717 78.948,218.357 76.318,212.676 79.168 M359.942 78.637 C 349.293 81.864,348.683 99.262,359.099 102.699 C 368.422 105.776,376.629 100.375,376.656 91.145 C 376.683 81.610,369.030 75.883,359.942 78.637 M232.000 88.033 C 232.000 101.139,233.434 103.333,242.000 103.333 C 250.530 103.333,252.199 100.880,252.549 87.833 L 252.795 78.667 250.117 78.667 L 247.439 78.667 247.220 87.265 C 246.971 96.985,246.255 98.676,242.397 98.656 C 238.110 98.635,237.333 96.803,237.333 86.710 L 237.333 78.667 234.667 78.667 L 232.000 78.667 232.000 88.033 M261.333 91.000 L 261.333 103.333 266.167 103.330 C 277.797 103.321,283.318 98.529,282.538 89.123 C 281.925 81.730,277.569 78.705,267.500 78.681 L 261.333 78.667 261.333 91.000 M287.333 81.000 L 287.333 83.333 290.667 83.333 L 294.000 83.333 294.000 93.333 L 294.000 103.333 296.667 103.333 L 299.333 103.333 299.333 93.333 L 299.333 83.333 302.667 83.333 L 306.000 83.333 306.000 81.000 L 306.000 78.667 296.667 78.667 L 287.333 78.667 287.333 81.000 M312.667 91.000 L 312.667 103.333 315.667 103.333 L 318.667 103.333 318.667 91.000 L 318.667 78.667 315.667 78.667 L 312.667 78.667 312.667 91.000 M327.333 90.939 L 327.333 103.333 330.333 103.333 L 333.333 103.333 333.333 98.230 L 333.333 93.127 334.719 94.380 C 335.481 95.070,337.173 97.366,338.480 99.484 C 340.855 103.332,340.857 103.333,344.149 103.333 L 347.442 103.333 345.933 100.833 C 345.103 99.458,343.541 97.024,342.462 95.425 C 340.573 92.625,340.689 91.387,342.844 91.344 C 344.013 91.320,345.501 86.770,345.078 84.514 C 344.256 80.134,342.182 79.031,334.281 78.773 L 327.333 78.545 327.333 90.939 M384.667 91.000 L 384.667 103.333 392.000 103.333 L 399.333 103.333 399.333 101.000 L 399.333 98.667 394.667 98.667 L 390.000 98.667 390.000 88.667 L 390.000 78.667 387.333 78.667 L 384.667 78.667 384.667 91.000 M168.268 83.596 C 171.185 84.815,172.667 87.034,172.667 90.181 C 172.667 95.992,169.941 98.026,161.500 98.515 L 156.000 98.834 156.000 90.750 L 156.000 82.667 161.021 82.667 C 163.808 82.667,167.033 83.080,168.268 83.596 M368.907 85.450 C 373.057 89.952,370.076 98.667,364.386 98.667 C 358.659 98.667,356.201 92.744,359.030 85.759 C 360.418 82.333,365.877 82.162,368.907 85.450 M273.237 84.283 C 279.941 87.750,276.348 98.661,268.500 98.666 L 266.667 98.667 266.667 91.000 L 266.667 83.333 269.033 83.333 C 270.335 83.333,272.226 83.761,273.237 84.283 M338.533 84.133 C 340.485 86.085,338.186 89.333,334.852 89.333 C 333.497 89.333,333.333 89.011,333.333 86.333 C 333.333 83.169,336.310 81.910,338.533 84.133 M168.705 108.666 C 173.945 110.122,176.576 115.736,174.427 120.879 C 172.905 124.521,169.339 125.967,161.833 125.985 L 156.000 126.000 156.000 117.000 L 156.000 108.000 161.167 108.004 C 164.008 108.006,167.400 108.304,168.705 108.666 M272.403 112.692 C 268.028 114.001,264.667 118.989,264.667 124.171 C 264.667 138.427,285.768 140.790,288.406 126.829 C 290.231 117.172,281.931 109.841,272.403 112.692 M367.092 112.977 C 357.821 116.281,356.398 128.877,364.660 134.500 C 367.313 136.306,374.629 136.591,378.355 135.034 L 380.667 134.068 380.667 128.367 L 380.667 122.667 375.667 122.667 L 370.667 122.667 370.667 125.000 C 370.667 127.230,370.771 127.333,373.044 127.333 C 375.232 127.333,375.405 127.476,375.211 129.123 C 374.803 132.587,368.634 132.418,366.316 128.880 C 362.184 122.574,367.847 114.833,374.641 117.502 C 377.217 118.514,377.288 118.502,378.351 116.880 C 380.898 112.992,373.876 110.558,367.092 112.977 M211.477 123.833 C 206.551 136.982,206.675 136.000,209.948 136.000 C 212.346 136.000,212.627 135.806,213.333 133.667 L 214.103 131.333 218.251 131.333 C 222.386 131.333,222.401 131.340,223.243 133.667 C 224.038 135.867,224.259 136.000,227.114 136.000 C 229.720 136.000,230.082 135.837,229.706 134.833 C 229.466 134.192,227.436 128.942,225.195 123.167 L 221.120 112.667 218.391 112.667 L 215.661 112.667 211.477 123.833 M231.333 124.333 L 231.333 136.000 238.333 136.000 L 245.333 136.000 245.333 133.667 L 245.333 131.333 241.000 131.333 L 236.667 131.333 236.667 122.000 L 236.667 112.667 234.000 112.667 L 231.333 112.667 231.333 124.333 M245.333 115.000 C 245.333 117.321,245.349 117.333,248.333 117.333 L 251.333 117.333 251.333 126.667 L 251.333 136.000 254.000 136.000 L 256.667 136.000 256.667 126.667 L 256.667 117.333 259.667 117.333 C 262.651 117.333,262.667 117.321,262.667 115.000 L 262.667 112.667 254.000 112.667 L 245.333 112.667 245.333 115.000 M306.461 113.167 C 305.918 114.121,298.000 135.104,298.000 135.589 C 298.000 137.423,303.664 135.527,304.242 133.500 C 304.854 131.351,304.894 131.333,309.045 131.333 L 313.230 131.333 314.000 133.667 C 314.726 135.866,314.940 136.000,317.718 136.000 C 321.361 136.000,321.490 137.089,316.286 123.833 L 311.902 112.667 309.324 112.667 C 307.906 112.667,306.617 112.892,306.461 113.167 M324.000 124.333 L 324.000 136.000 328.833 135.996 C 340.300 135.987,345.913 130.685,344.337 121.353 C 343.329 115.391,338.835 112.704,329.833 112.681 L 324.000 112.667 324.000 124.333 M349.333 124.333 L 349.333 136.000 352.000 136.000 L 354.667 136.000 354.667 124.333 L 354.667 112.667 352.000 112.667 L 349.333 112.667 349.333 124.333 M385.333 124.333 L 385.333 136.000 392.333 136.000 L 399.333 136.000 399.333 133.667 L 399.333 131.333 395.000 131.333 L 390.667 131.333 390.667 128.667 L 390.667 126.000 394.333 126.000 L 398.000 126.000 398.000 123.667 L 398.000 121.333 394.333 121.333 C 390.704 121.333,390.667 121.313,390.667 119.333 L 390.667 117.333 395.000 117.333 L 399.333 117.333 399.333 115.000 L 399.333 112.667 392.333 112.667 L 385.333 112.667 385.333 124.333 M280.718 118.615 C 285.839 123.737,281.143 133.491,274.646 131.226 C 268.218 128.985,269.927 116.667,276.667 116.667 C 278.102 116.667,279.388 117.285,280.718 118.615 M335.562 118.074 C 341.399 120.733,339.119 130.404,332.478 131.152 L 329.333 131.507 329.333 124.420 L 329.333 117.333 331.635 117.333 C 332.901 117.333,334.668 117.666,335.562 118.074 M220.666 126.833 C 220.666 127.108,219.617 127.333,218.333 127.333 C 215.647 127.333,215.638 127.301,217.095 123.025 L 218.189 119.813 219.427 123.073 C 220.108 124.866,220.666 126.558,220.666 126.833 M310.544 123.833 L 311.872 127.333 309.198 127.333 C 307.184 127.333,306.612 127.104,306.881 126.403 C 307.078 125.891,307.608 124.239,308.059 122.732 C 308.511 121.225,308.956 120.068,309.048 120.162 C 309.140 120.256,309.813 121.908,310.544 123.833 " stroke="none" fill="#000000" fill-rule="evenodd"></path></g></svg>