<svg width="16" height="17" viewBox="0 0 16 17" fill="none" xmlns="http://www.w3.org/2000/svg">
<g clip-path="url(#clip0_531_9080)">
<path d="M2.28564 15.3572V9.07146L7.99993 3.35718L13.7142 9.07146V15.3572C13.7142 15.9884 13.2026 16.5 12.5714 16.5H3.4285C2.79732 16.5 2.28564 15.9884 2.28564 15.3572Z" fill="#CBD5C1"/>
<path fill-rule="evenodd" clip-rule="evenodd" d="M7.19187 1.97755C7.63819 1.53124 8.36181 1.53124 8.80813 1.97755L15.6653 8.8347C16.1115 9.28102 16.1115 10.0046 15.6653 10.4509C15.219 10.8973 14.4953 10.8973 14.049 10.4509L8 4.40192L1.95098 10.4509C1.50466 10.8973 0.781048 10.8973 0.334735 10.4509C-0.111578 10.0046 -0.111578 9.28102 0.334735 8.8347L7.19187 1.97755Z" fill="#50742F"/>
</g>
<defs>
<clipPath id="clip0_531_9080">
<rect width="16" height="16" fill="white" transform="translate(0 0.5)"/>
</clipPath>
</defs>
</svg>
