<svg width="16" height="17" viewBox="0 0 16 17" fill="none" xmlns="http://www.w3.org/2000/svg">
<g clip-path="url(#clip0_531_9081)">
<path fill-rule="evenodd" clip-rule="evenodd" d="M8.38898 0.674588C8.16969 0.470775 7.83026 0.470775 7.61096 0.674588L4.08894 3.94791C3.91685 4.10784 3.86018 4.35681 3.9461 4.57546C4.03202 4.79412 4.24302 4.93791 4.47794 4.93791H5.03388V6.78575H10.966V4.93791H11.522C11.7569 4.93791 11.968 4.79412 12.0538 4.57546C12.1397 4.35681 12.0831 4.10784 11.9111 3.94791L8.38898 0.674588Z" fill="#50742F"/>
<path fill-rule="evenodd" clip-rule="evenodd" d="M8.85711 6.78565H7.14282V5.83639C7.14282 5.36301 7.52658 4.97925 7.99997 4.97925C8.47335 4.97925 8.85711 5.36301 8.85711 5.83639V6.78565Z" fill="#CBD5C1"/>
<path fill-rule="evenodd" clip-rule="evenodd" d="M1.64986 8.42749C1.42254 8.42749 1.20453 8.51779 1.04377 8.67854C0.88303 8.83928 0.792725 9.0573 0.792725 9.28463C0.792725 11.1961 1.55207 13.0294 2.9037 14.3809C4.25533 15.7326 6.08854 16.4919 8.00003 16.4919C9.91153 16.4919 11.7447 15.7326 13.0964 14.3809C14.448 13.0294 15.2073 11.1961 15.2073 9.28463C15.2073 9.0573 15.1171 8.83928 14.9563 8.67854C14.7956 8.51779 14.5775 8.42749 14.3502 8.42749H1.64986Z" fill="#50742F"/>
<path fill-rule="evenodd" clip-rule="evenodd" d="M5.38371 12.2394C5.06309 12.56 4.62823 12.7401 4.1748 12.7401H1.67509C1.10127 11.6898 0.792725 10.5031 0.792725 9.28463C0.792725 9.0573 0.88303 8.83928 1.04377 8.67854C1.20453 8.51779 1.42254 8.42749 1.64986 8.42749H5.88446V10.2978V11.0305C5.88446 11.4839 5.70433 11.9188 5.38371 12.2394ZM11.3265 13.8993V14.7493V15.6784C11.9734 15.3418 12.5712 14.9062 13.0964 14.3809C14.448 13.0294 15.2073 11.1961 15.2073 9.28463C15.2073 9.0573 15.1171 8.83928 14.9563 8.67854C14.7956 8.51779 14.5775 8.42749 14.3502 8.42749H8.39561V9.74728V10.9685C8.39561 11.4219 8.57574 11.8568 8.89635 12.1774C9.21698 12.4981 9.65184 12.6782 10.1053 12.6782C10.4292 12.6782 10.7398 12.8067 10.9688 13.0358C11.1978 13.2648 11.3265 13.5754 11.3265 13.8993Z" fill="#CBD5C1"/>
</g>
<defs>
<clipPath id="clip0_531_9081">
<rect width="16" height="16" fill="white" transform="translate(0 0.5)"/>
</clipPath>
</defs>
</svg>
