<svg width="16" height="17" viewBox="0 0 16 17" fill="none" xmlns="http://www.w3.org/2000/svg">
<path fill-rule="evenodd" clip-rule="evenodd" d="M8.80813 1.40627C8.36181 0.959955 7.63819 0.959955 7.19187 1.40627L0.334735 8.26341C-0.111578 8.70973 -0.111578 9.43334 0.334735 9.87966C0.781048 10.326 1.50466 10.326 1.95098 9.87966L2.28571 9.54492V14.7858C2.28571 15.417 2.79739 15.9287 3.42857 15.9287H12.5714C13.2026 15.9287 13.7143 15.417 13.7143 14.7858V9.54492L14.049 9.87966C14.4953 10.326 15.219 10.326 15.6653 9.87966C16.1115 9.43334 16.1115 8.70973 15.6653 8.26341L8.80813 1.40627Z" fill="#CBD5C1"/>
<path fill-rule="evenodd" clip-rule="evenodd" d="M8.71429 7.83587C8.71429 7.44139 8.39449 7.12158 8 7.12158C7.60551 7.12158 7.28571 7.44139 7.28571 7.83587V9.4073H5.71429C5.31979 9.4073 5 9.7271 5 10.1216C5 10.5161 5.31979 10.8359 5.71429 10.8359H7.28571V12.4073C7.28571 12.8018 7.60551 13.1216 8 13.1216C8.39449 13.1216 8.71429 12.8018 8.71429 12.4073V10.8359H10.2857C10.6802 10.8359 11 10.5161 11 10.1216C11 9.7271 10.6802 9.4073 10.2857 9.4073H8.71429V7.83587Z" fill="#50742F"/>
</svg>
