<svg width="16" height="17" viewBox="0 0 16 17" fill="none" xmlns="http://www.w3.org/2000/svg">
<path fill-rule="evenodd" clip-rule="evenodd" d="M3.71436 8.5001C3.71436 7.71112 4.35394 7.07153 5.14293 7.07153H10.8572C11.6462 7.07153 12.2858 7.71112 12.2858 8.5001C12.2858 9.28909 11.6462 9.92868 10.8572 9.92868H5.14293C4.35394 9.92868 3.71436 9.28909 3.71436 8.5001Z" fill="#50742F"/>
<path fill-rule="evenodd" clip-rule="evenodd" d="M1.71429 4.5C0.767512 4.5 0 5.26751 0 6.21429V10.7857C0 11.7325 0.767512 12.5 1.71429 12.5H4C4.94678 12.5 5.71429 11.7325 5.71429 10.7857V6.21429C5.71429 5.26751 4.94678 4.5 4 4.5H1.71429ZM10.2857 6.21429C10.2857 5.26751 11.0532 4.5 12 4.5H14.2857C15.2325 4.5 16 5.26751 16 6.21429V10.7857C16 11.7325 15.2325 12.5 14.2857 12.5H12C11.0532 12.5 10.2857 11.7325 10.2857 10.7857V6.21429Z" fill="#CBD5C1"/>
</svg>
