<svg width="24" height="25" viewBox="0 0 24 25" fill="none" xmlns="http://www.w3.org/2000/svg">
<path d="M20.9128 3.72013C21.9297 3.82182 22.6452 4.58245 22.7369 5.60035C22.863 7.00085 23 9.4533 23 13.5C23 17.9987 22.9154 20.6985 22.8476 22.1388C22.8112 22.9118 22.1738 23.5 21.3998 23.5C20.2584 23.5 18.2754 23.5 15 23.5C11.7246 23.5 9.74155 23.5 8.6002 23.5C7.8262 23.5 7.1888 22.9118 7.1524 22.1388C7.08465 20.6985 7 17.9987 7 13.5C7 9.4533 7.137 7.00085 7.26315 5.60035C7.35485 4.58245 8.07025 3.82182 9.0872 3.72013C10.215 3.60736 12.0605 3.5 15 3.5C17.9395 3.5 19.785 3.60736 20.9128 3.72013Z" fill="#50742F" fill-opacity="0.3"/>
<path d="M20 7.2767C20 6.89695 19.7163 6.58145 19.3372 6.55905C18.8481 6.53015 18.0791 6.5 17 6.5C15.9209 6.5 15.1519 6.53015 14.6629 6.55905C14.2838 6.58145 14 6.89695 14 7.2767V7.7233C14 8.10305 14.2838 8.41855 14.6629 8.44095C15.1519 8.46985 15.9209 8.5 17 8.5C18.0791 8.5 18.8481 8.46985 19.3372 8.44095C19.7163 8.41855 20 8.10305 20 7.7233V7.2767Z" fill="#50742F"/>
<path d="M20 15.3004C20 14.9107 19.7018 14.5887 19.3125 14.5702C18.6454 14.5385 17.4786 14.5 15.75 14.5C14.0214 14.5 12.8546 14.5385 12.1875 14.5702C11.7982 14.5887 11.5 14.9107 11.5 15.3004V15.6995C11.5 16.0893 11.7982 16.4112 12.1875 16.4297C12.8546 16.4614 14.0214 16.5 15.75 16.5C17.4786 16.5 18.6454 16.4614 19.3125 16.4297C19.7018 16.4112 20 16.0893 20 15.6995V15.3004Z" fill="#50742F"/>
<path d="M20 11.2998C20 10.9103 19.7023 10.5876 19.3134 10.5673C18.7185 10.5362 17.7559 10.5 16.5 10.5C15.2441 10.5 14.2815 10.5362 13.6866 10.5673C13.2977 10.5876 13 10.9103 13 11.2998V11.7002C13 12.0897 13.2977 12.4124 13.6866 12.4327C14.2815 12.4638 15.2441 12.5 16.5 12.5C17.7559 12.5 18.7185 12.4638 19.3134 12.4327C19.7023 12.4124 20 12.0897 20 11.7002V11.2998Z" fill="#50742F"/>
<path fill-rule="evenodd" clip-rule="evenodd" d="M14.9947 23.5H10.0053C10.0019 23.1999 10 22.8676 10 22.5C10 21.0999 10.0279 20.2112 10.0568 19.6672C10.083 19.1717 10.356 18.7457 10.8414 18.643C11.2089 18.5652 11.7429 18.5 12.5 18.5C13.2571 18.5 13.7911 18.5652 14.1586 18.643C14.644 18.7457 14.917 19.1717 14.9432 19.6672C14.9721 20.2112 15 21.0999 15 22.5C15 22.8676 14.9981 23.1999 14.9947 23.5Z" fill="#50742F"/>
<path d="M12 7.1C12 10.1863 9.2386 13.1163 7.6291 14.5619C6.9782 15.1466 6.0218 15.1466 5.3709 14.5619C3.76142 13.1163 1 10.1863 1 7.1C1 4.00721 3.46244 1.5 6.5 1.5C9.53755 1.5 12 4.00721 12 7.1Z" fill="#50742F"/>
<path d="M8.5 7C8.5 8.10455 7.60455 9 6.5 9C5.39545 9 4.5 8.10455 4.5 7C4.5 5.89545 5.39545 5 6.5 5C7.60455 5 8.5 5.89545 8.5 7Z" fill="#50742F" fill-opacity="0.3"/>
</svg>
