<svg width="16" height="17" viewBox="0 0 16 17" fill="none" xmlns="http://www.w3.org/2000/svg">
<g clip-path="url(#clip0_531_9076)">
<path fill-rule="evenodd" clip-rule="evenodd" d="M0.0705566 3.17492C0.0705566 2.25542 0.815962 1.51001 1.73546 1.51001H14.2858C15.2326 1.51001 16.0001 2.27752 16.0001 3.2243V11.4784C16.0001 12.4251 15.2326 13.1927 14.2858 13.1927H9.78802L10.3455 14.7503H11.4287C11.902 14.7503 12.2858 15.134 12.2858 15.6074C12.2858 16.0808 11.902 16.4646 11.4287 16.4646H4.57153C4.09815 16.4646 3.71439 16.0808 3.71439 15.6074C3.71439 15.134 4.09815 14.7503 4.57153 14.7503H5.65489L6.21236 13.1927H1.73546C0.815963 13.1927 0.0705566 12.4472 0.0705566 11.5277V3.17492Z" fill="#CBD5C1"/>
<path fill-rule="evenodd" clip-rule="evenodd" d="M7.14893 4.85857C7.14893 4.46408 6.82914 4.14429 6.43465 4.14429C6.04016 4.14429 5.72036 4.46408 5.72036 4.85857V9.92526C5.72036 10.3198 6.04016 10.6395 6.43465 10.6395C6.82914 10.6395 7.14893 10.3198 7.14893 9.92526V4.85857ZM4.01793 6.12525C4.01793 5.73076 3.69813 5.41096 3.30364 5.41096C2.90916 5.41096 2.58936 5.73076 2.58936 6.12525V8.65858C2.58936 9.05308 2.90916 9.37287 3.30364 9.37287C3.69813 9.37287 4.01793 9.05308 4.01793 8.65858V6.12525ZM9.56564 5.41096C9.96013 5.41096 10.2799 5.73076 10.2799 6.12525V8.65858C10.2799 9.05308 9.96013 9.37287 9.56564 9.37287C9.17115 9.37287 8.85136 9.05308 8.85136 8.65858V6.12525C8.85136 5.73076 9.17115 5.41096 9.56564 5.41096ZM13.4109 4.85857C13.4109 4.46408 13.0912 4.14429 12.6966 4.14429C12.3021 4.14429 11.9824 4.46408 11.9824 4.85857V9.92526C11.9824 10.3198 12.3021 10.6395 12.6966 10.6395C13.0912 10.6395 13.4109 10.3198 13.4109 9.92526V4.85857Z" fill="#50742F"/>
</g>
<defs>
<clipPath id="clip0_531_9076">
<rect width="16" height="16" fill="white" transform="translate(0 0.5)"/>
</clipPath>
</defs>
</svg>
