<svg width="16" height="17" viewBox="0 0 16 17" fill="none" xmlns="http://www.w3.org/2000/svg">
<g clip-path="url(#clip0_531_9082)">
<path d="M0.000244141 6.21477C0.000244141 5.268 0.767756 4.50049 1.71453 4.50049H7.99997C8.94674 4.50049 9.71425 5.268 9.71425 6.21477V10.7862C9.71425 11.733 8.94674 12.5005 7.99997 12.5005H1.71453C0.767756 12.5005 0.000244141 11.733 0.000244141 10.7862V6.21477Z" fill="#50742F"/>
<path fill-rule="evenodd" clip-rule="evenodd" d="M3.42847 1.64279C3.42847 1.1694 3.81223 0.785645 4.28561 0.785645H15.1428C15.6161 0.785645 15.9999 1.1694 15.9999 1.64279C15.9999 2.11617 15.6161 2.49993 15.1428 2.49993H4.28561C3.81223 2.49993 3.42847 2.11617 3.42847 1.64279ZM12.2856 4.21422C11.8122 4.21422 11.4285 4.59798 11.4285 5.07136C11.4285 5.54474 11.8122 5.9285 12.2856 5.9285H15.1428C15.6161 5.9285 15.9999 5.54474 15.9999 5.07136C15.9999 4.59798 15.6161 4.21422 15.1428 4.21422H12.2856ZM11.4285 8.49993C11.4285 8.02655 11.8122 7.64279 12.2856 7.64279H15.1428C15.6161 7.64279 15.9999 8.02655 15.9999 8.49993C15.9999 8.97331 15.6161 9.35707 15.1428 9.35707H12.2856C11.8122 9.35707 11.4285 8.97331 11.4285 8.49993ZM11.4285 11.9285C11.4285 11.4551 11.8122 11.0714 12.2856 11.0714H15.1428C15.6161 11.0714 15.9999 11.4551 15.9999 11.9285C15.9999 12.4019 15.6161 12.7856 15.1428 12.7856H12.2856C11.8122 12.7856 11.4285 12.4019 11.4285 11.9285ZM4.28561 14.4999C3.81223 14.4999 3.42847 14.8837 3.42847 15.3571C3.42847 15.8304 3.81223 16.2142 4.28561 16.2142H15.1428C15.6161 16.2142 15.9999 15.8304 15.9999 15.3571C15.9999 14.8837 15.6161 14.4999 15.1428 14.4999H4.28561Z" fill="#CBD5C1"/>
</g>
<defs>
<clipPath id="clip0_531_9082">
<rect width="16" height="16" fill="white" transform="translate(0 0.5)"/>
</clipPath>
</defs>
</svg>
