<svg width="16" height="17" viewBox="0 0 16 17" fill="none" xmlns="http://www.w3.org/2000/svg">
<g clip-path="url(#clip0_531_9072)">
<path d="M5.82147 2.65385L6.35071 1.28769C6.43997 1.05639 6.59699 0.857429 6.80123 0.716877C7.00547 0.576325 7.24739 0.500732 7.49533 0.5H8.50456C8.75248 0.500732 8.99441 0.576325 9.19865 0.716877C9.40289 0.857429 9.55992 1.05639 9.64918 1.28769L10.1784 2.65385L11.9754 3.68769L13.4276 3.46615C13.6694 3.43333 13.9156 3.47314 14.1348 3.58053C14.3539 3.68791 14.5362 3.85801 14.6584 4.06923L15.1507 4.93077C15.2768 5.14535 15.335 5.39314 15.3174 5.64144C15.2998 5.88974 15.2074 6.12687 15.0523 6.32154L14.1538 7.46615V9.53385L15.0768 10.6785C15.232 10.8731 15.3244 11.1103 15.342 11.3586C15.3596 11.6069 15.3015 11.8547 15.1754 12.0693L14.683 12.9307C14.5607 13.1419 14.3784 13.3121 14.1594 13.4194C13.9402 13.5269 13.6941 13.5666 13.4523 13.5338L11.9999 13.3123L10.203 14.3462L9.67378 15.7123C9.58454 15.9437 9.42751 16.1426 9.22327 16.2831C9.01903 16.4237 8.7771 16.4993 8.52917 16.5H7.49533C7.24739 16.4993 7.00547 16.4237 6.80123 16.2831C6.59699 16.1426 6.43997 15.9437 6.35071 15.7123L5.82147 14.3462L4.02456 13.3123L2.57225 13.5338C2.33042 13.5666 2.0843 13.5269 1.86515 13.4194C1.646 13.3121 1.46373 13.1419 1.34147 12.9307L0.849171 12.0693C0.723019 11.8547 0.664896 11.6069 0.682475 11.3586C0.700053 11.1103 0.792506 10.8731 0.947631 10.6785L1.84609 9.53385V7.46615L0.923016 6.32154C0.767891 6.12687 0.675438 5.88974 0.657859 5.64144C0.64028 5.39314 0.698403 5.14535 0.824555 4.93077L1.31687 4.06923C1.43911 3.85801 1.62138 3.68791 1.84054 3.58053C2.05968 3.47314 2.3058 3.43333 2.54763 3.46615L3.99994 3.68769L5.82147 2.65385Z" fill="#CBD5C1"/>
<path d="M10.2328 7.54418L7.53145 6.09969C6.83853 5.72916 6.00073 6.23122 6.00073 7.01699V9.98314C6.00073 10.779 6.85806 11.28 7.55148 10.8894L10.2528 9.36778C10.9679 8.96493 10.9566 7.93123 10.2328 7.54418Z" fill="#50742F"/>
</g>
<defs>
<clipPath id="clip0_531_9072">
<rect width="16" height="16" fill="white" transform="translate(0 0.5)"/>
</clipPath>
</defs>
</svg>
