<svg width="24" height="25" viewBox="0 0 24 25" fill="none" xmlns="http://www.w3.org/2000/svg">
<path d="M2 12.5C2 18.0229 6.47715 22.5 12 22.5C17.5229 22.5 22 18.0229 22 12.5C22 6.97715 17.5229 2.5 12 2.5C6.47715 2.5 2 6.97715 2 12.5Z" fill="#CBD6C1"/>
<path d="M14.5523 18.837C15.7161 18.0544 17.3765 16.7456 18.378 15.1061C18.6961 14.5854 18.3594 13.9614 17.7469 13.8779C16.8911 13.7614 16.0601 13.7031 16.0601 13.7031L15.8279 7.66085C15.8113 7.22895 15.6896 6.772 15.2776 6.61985C15.0901 6.55065 14.8416 6.5 14.5157 6.5C14.1548 6.5 13.8888 6.5621 13.6955 6.6428C13.3278 6.79625 13.2131 7.2035 13.1882 7.5951C13.0889 9.1614 12.8596 13.6148 13.1204 18.115C13.1623 18.8391 13.9428 19.2467 14.5523 18.837Z" fill="#50742F"/>
<path d="M9.4477 6.16304C8.28385 6.94559 6.62345 8.25439 5.622 9.89384C5.3039 10.4146 5.6406 11.0386 6.2531 11.122C7.1089 11.2386 7.9399 11.2969 7.9399 11.2969L8.1721 17.3391C8.1887 17.771 8.3104 18.228 8.7224 18.3801C8.9099 18.4493 9.1584 18.5 9.48425 18.5C9.84515 18.5 10.1111 18.4379 10.3044 18.3572C10.6722 18.2037 10.7869 17.7965 10.8117 17.4049C10.9111 15.8386 11.1403 11.3852 10.8796 6.88504C10.8376 6.16094 10.0571 5.75324 9.4477 6.16304Z" fill="#50742F"/>
</svg>
