<?xml version="1.0" encoding="UTF-8" standalone="no"?>
<svg
   xmlns:dc="http://purl.org/dc/elements/1.1/"
   xmlns:cc="http://creativecommons.org/ns#"
   xmlns:rdf="http://www.w3.org/1999/02/22-rdf-syntax-ns#"
   xmlns:svg="http://www.w3.org/2000/svg"
   xmlns="http://www.w3.org/2000/svg"
   xmlns:sodipodi="http://sodipodi.sourceforge.net/DTD/sodipodi-0.dtd"
   xmlns:inkscape="http://www.inkscape.org/namespaces/inkscape"
   width="366.88568"
   height="386"
   viewBox="0 0 366.88568 386"
   version="1.1"
   id="svg8"
   sodipodi:docname="box.svg"
   inkscape:version="0.92.5 (2060ec1f9f, 2020-04-08)">
  <metadata
     id="metadata12">
    <rdf:RDF>
      <cc:Work
         rdf:about="">
        <dc:format>image/svg+xml</dc:format>
        <dc:type
           rdf:resource="http://purl.org/dc/dcmitype/StillImage" />
        <dc:title></dc:title>
      </cc:Work>
    </rdf:RDF>
  </metadata>
  <sodipodi:namedview
     pagecolor="#ffffff"
     bordercolor="#666666"
     borderopacity="1"
     objecttolerance="10"
     gridtolerance="10"
     guidetolerance="10"
     inkscape:pageopacity="0"
     inkscape:pageshadow="2"
     inkscape:window-width="988"
     inkscape:window-height="517"
     id="namedview10"
     showgrid="false"
     fit-margin-top="0"
     fit-margin-left="0"
     fit-margin-right="0"
     fit-margin-bottom="0"
     inkscape:zoom="0.12171975"
     inkscape:cx="155.37568"
     inkscape:cy="-26.776039"
     inkscape:window-x="0"
     inkscape:window-y="27"
     inkscape:window-maximized="0"
     inkscape:current-layer="svg8" />
  <defs
     id="defs4">
    <style
       id="style2">.a{fill:#fff;}</style>
  </defs>
  <path
     class="a"
     d="M 356.77939,84.553165 191.69939,1.841152 183.44284,0 175.16081,1.841152 10.10629,84.553165 A 17.468716,17.468716 0 0 0 0.01495319,101.09813 V 283.07347 A 17.468716,17.468716 0 0 0 10.10629,299.63753 l 165.10548,84.52131 8.28203,1.84116 8.28204,-1.84116 165.00355,-84.54043 a 17.468716,17.468716 0 0 0 10.09133,-16.56405 V 101.09813 A 17.468716,17.468716 0 0 0 356.77939,84.553165 Z M 183.44284,38.600637 317.34418,105.69146 183.44284,173.70605 49.541501,105.69146 Z M 36.704352,140.61615 165.10133,205.87219 V 337.30166 L 36.704352,272.03288 Z M 201.79073,337.29528 V 205.87219 L 330.1877,140.61615 v 131.41673 z"
     id="path6"
     inkscape:connector-curvature="0"
     style="fill:#ffffff;stroke-width:6.37079334" />
</svg>
