<svg width="16" height="17" viewBox="0 0 16 17" fill="none" xmlns="http://www.w3.org/2000/svg">
<g clip-path="url(#clip0_531_9088)">
<path d="M8 16.5C12.4183 16.5 16 12.9183 16 8.5C16 4.08172 12.4183 0.5 8 0.5C3.58172 0.5 0 4.08172 0 8.5C0 12.9183 3.58172 16.5 8 16.5Z" fill="#CBD5C1"/>
<path fill-rule="evenodd" clip-rule="evenodd" d="M7.99993 4.92847C8.39442 4.92847 8.71422 5.24826 8.71422 5.64275V8.24129L11.4058 11.4712C11.6583 11.7743 11.6174 12.2247 11.3144 12.4772C11.0113 12.7297 10.5609 12.6888 10.3083 12.3857L7.4512 8.95718C7.34423 8.8288 7.28564 8.66699 7.28564 8.4999V5.64275C7.28564 5.24826 7.60544 4.92847 7.99993 4.92847Z" fill="#50742F"/>
</g>
<defs>
<clipPath id="clip0_531_9088">
<rect width="16" height="16" fill="white" transform="translate(0 0.5)"/>
</clipPath>
</defs>
</svg>
