<svg width="24" height="25" viewBox="0 0 24 25" fill="none" xmlns="http://www.w3.org/2000/svg">
<path d="M7.903 1.53498C7.903 1.53498 6.557 2.05 4.08297 4.525C1.61802 6.99095 1.1011 8.33985 1.09734 8.3497C1.03727 9.52475 1 10.8989 1 12.5C1 17.2771 1.3318 20.0344 1.61115 21.5093C1.79061 22.4569 2.52967 23.1063 3.48812 23.2099C4.78189 23.3495 7.0649 23.5 10.8961 23.5C14.7272 23.5 17.0102 23.3495 18.3039 23.2099C19.2624 23.1063 20.0015 22.4569 20.1809 21.5093C20.4603 20.0344 20.7921 17.2771 20.7921 12.5C20.7921 7.72295 20.4603 4.9656 20.1809 3.49064C20.0015 2.54309 19.2624 1.89363 18.3039 1.79017C17.0102 1.65051 14.7272 1.5 10.8961 1.5C9.76915 1.5 8.7762 1.51305 7.903 1.53498Z" fill="#50742F" fill-opacity="0.3"/>
<path d="M1.09766 8.3499C2.68078 8.74825 4.54994 8.7747 6.16435 8.2813C6.8469 8.0727 7.3791 7.5408 7.60945 6.86505C8.18335 5.18168 8.3251 3.12117 7.90335 1.53516C7.90335 1.53516 6.5573 2.05018 4.0833 4.52518C1.60929 7.0002 1.09766 8.3499 1.09766 8.3499Z" fill="#50742F"/>
<path d="M22.3708 12.8165C23.2098 11.9775 23.2098 10.6173 22.3708 9.77831L20.7217 8.12921C19.8828 7.29026 18.5225 7.29026 17.6835 8.12926L11.6292 14.1836C11.2263 14.5865 11 15.1329 11 15.7027V18.4259C11 19.0191 11.4809 19.5 12.0742 19.5H14.7973C15.3671 19.5 15.9135 19.2737 16.3165 18.8708L22.3708 12.8165Z" fill="#50742F"/>
</svg>
