<svg width="24" height="25" viewBox="0 0 24 25" fill="none" xmlns="http://www.w3.org/2000/svg">
<path d="M20.1647 1.80432C21.0493 1.90561 21.7351 2.50616 21.9004 3.38106C22.1711 4.8137 22.5 7.56885 22.5 12.5C22.5 16.9391 22.3519 19.6147 22.2127 21.1497C22.1105 22.276 21.2735 23.1127 20.1478 23.2222C18.7485 23.3582 16.4601 23.5 13 23.5C9.53995 23.5 7.2515 23.3582 5.8522 23.2222C4.72655 23.1127 3.88954 22.276 3.78734 21.1497C3.64806 19.6147 3.5 16.9391 3.5 12.5C3.5 8.0609 3.64806 5.38526 3.78734 3.85032C3.88954 2.724 4.72655 1.8873 5.8522 1.77786C7.2515 1.64181 9.53995 1.5 13 1.5C16.6854 1.5 18.9119 1.66088 20.1647 1.80432Z" fill="#50742F" fill-opacity="0.3"/>
<path d="M1.51664 6.6169C1.54316 5.98845 1.98158 5.55015 2.60997 5.522C2.90204 5.50895 3.27527 5.5 3.75 5.5C4.22473 5.5 4.59796 5.50895 4.89004 5.522C5.51845 5.55015 5.95685 5.98845 5.98335 6.6169C5.9934 6.8553 6 7.1464 6 7.5C6 7.8536 5.9934 8.1447 5.98335 8.3831C5.95685 9.01155 5.51845 9.44985 4.89004 9.478C4.59796 9.49105 4.22473 9.5 3.75 9.5C3.27527 9.5 2.90204 9.49105 2.60997 9.478C1.98158 9.44985 1.54316 9.01155 1.51664 8.3831C1.50658 8.1447 1.5 7.8536 1.5 7.5C1.5 7.1464 1.50658 6.8553 1.51664 6.6169Z" fill="#50742F"/>
<path d="M1.51664 16.6169C1.54316 15.9884 1.98158 15.5502 2.60997 15.522C2.90204 15.509 3.27527 15.5 3.75 15.5C4.22473 15.5 4.59796 15.509 4.89004 15.522C5.51845 15.5502 5.95685 15.9884 5.98335 16.6169C5.9934 16.8553 6 17.1464 6 17.5C6 17.8536 5.9934 18.1447 5.98335 18.3831C5.95685 19.0116 5.51845 19.4499 4.89004 19.478C4.59796 19.4911 4.22473 19.5 3.75 19.5C3.27527 19.5 2.90204 19.4911 2.60997 19.478C1.98158 19.4499 1.54316 19.0116 1.51664 18.3831C1.50658 18.1447 1.5 17.8536 1.5 17.5C1.5 17.1464 1.50658 16.8553 1.51664 16.6169Z" fill="#50742F"/>
<path fill-rule="evenodd" clip-rule="evenodd" d="M14.4599 13.1215C15.3787 12.6087 16 11.6269 16 10.5C16 8.84315 14.6568 7.5 13 7.5C11.3432 7.5 10 8.84315 10 10.5C10 11.6269 10.6213 12.6087 11.5401 13.1215C10.0762 13.5211 9 14.8604 9 16.451C9 16.6418 9.08185 16.8217 9.25185 16.9083C9.684 17.1284 10.7473 17.5 13 17.5C15.2527 17.5 16.316 17.1284 16.7481 16.9083C16.9181 16.8217 17 16.6418 17 16.451C17 14.8604 15.9238 13.5211 14.4599 13.1215Z" fill="#50742F"/>
</svg>
