<svg width="16" height="17" viewBox="0 0 16 17" fill="none" xmlns="http://www.w3.org/2000/svg">
<g clip-path="url(#clip0_531_9074)">
<path fill-rule="evenodd" clip-rule="evenodd" d="M5.10927 0.605225C3.93843 0.605225 2.92488 1.52307 2.92488 2.73304V3.26125C2.92488 4.47121 3.93843 5.38906 5.10927 5.38906C6.28009 5.38906 7.29366 4.47121 7.29366 3.26125V2.73304C7.29366 1.52307 6.28009 0.605225 5.10927 0.605225ZM4.63916 2.73304C4.63916 2.53946 4.81406 2.31951 5.10927 2.31951C5.40447 2.31951 5.57937 2.53946 5.57937 2.73304V3.26125C5.57937 3.45482 5.40447 3.67478 5.10927 3.67478C4.81406 3.67478 4.63916 3.45482 4.63916 3.26125V2.73304ZM0.965053 0.60524C1.43844 0.60524 1.82219 0.988995 1.82219 1.46238V4.55128C1.82219 5.02466 1.43844 5.40842 0.965054 5.40842C0.491666 5.40842 0.10791 5.02466 0.10791 4.55128V1.46238C0.10791 0.988996 0.491666 0.60524 0.965053 0.60524ZM0.965053 6.08227C1.43844 6.08227 1.82219 6.46602 1.82219 6.93942V10.0283C1.82219 10.5017 1.43844 10.8855 0.965054 10.8855C0.491666 10.8855 0.10791 10.5017 0.10791 10.0283V6.93942C0.10791 6.46602 0.491666 6.08227 0.965053 6.08227ZM4.63916 6.93942C4.63916 6.46602 4.2554 6.08227 3.78202 6.08227C3.30863 6.08227 2.92488 6.46602 2.92488 6.93942V10.0283C2.92488 10.5017 3.30863 10.8855 3.78202 10.8855C4.2554 10.8855 4.63916 10.5017 4.63916 10.0283V6.93942ZM0.965053 11.514C1.43844 11.514 1.82219 11.8978 1.82219 12.3712V15.46C1.82219 15.9334 1.43844 16.3172 0.965054 16.3172C0.491666 16.3172 0.10791 15.9334 0.10791 15.46V12.3712C0.10791 11.8978 0.491666 11.514 0.965053 11.514ZM10.1106 1.46238C10.1106 0.988995 9.7268 0.60524 9.25342 0.60524C8.78003 0.60524 8.39627 0.988996 8.39627 1.46238V4.55127C8.39627 5.02465 8.78003 5.40841 9.25342 5.40841C9.72681 5.40841 10.1106 5.02465 10.1106 4.55127V1.46238ZM12.0261 0.60524C12.4996 0.60524 12.8832 0.988995 12.8832 1.46238V4.55127C12.8832 5.02465 12.4996 5.40841 12.0261 5.40841C11.5527 5.40841 11.169 5.02465 11.169 4.55127V1.46238C11.169 0.988996 11.5527 0.60524 12.0261 0.60524ZM2.92488 13.6612C2.92488 12.4512 3.93843 11.5334 5.10927 11.5334C6.28009 11.5334 7.29366 12.4512 7.29366 13.6612V14.1894C7.29366 15.3994 6.28009 16.3172 5.10927 16.3172C3.93843 16.3172 2.92488 15.3994 2.92488 14.1894V13.6612ZM5.10927 13.2477C4.81406 13.2477 4.63916 13.4676 4.63916 13.6612V14.1894C4.63916 14.383 4.81406 14.6029 5.10927 14.6029C5.40447 14.6029 5.57937 14.383 5.57937 14.1894V13.6612C5.57937 13.4676 5.40447 13.2477 5.10927 13.2477ZM7.92616 6.02362C6.71976 6.02362 5.74177 7.00161 5.74177 8.20801V8.75974C5.74177 9.23313 6.12553 9.61688 6.59891 9.61688C7.0723 9.61688 7.45606 9.23313 7.45606 8.75974V8.20801C7.45606 7.94839 7.66652 7.73791 7.92616 7.73791C8.39954 7.73791 8.7833 7.35416 8.7833 6.88077C8.7833 6.40738 8.39954 6.02362 7.92616 6.02362Z" fill="#CBD5C1"/>
<path fill-rule="evenodd" clip-rule="evenodd" d="M9.30118 11.2509V10.2319C9.30118 9.4502 9.61171 8.70049 10.1645 8.14773C10.7172 7.59496 11.467 7.28442 12.2487 7.28442C13.0304 7.28442 13.7801 7.59496 14.3329 8.14773C14.8856 8.70049 15.1962 9.4502 15.1962 10.2319V11.2509C15.6767 11.5289 16 12.0484 16 12.6435V14.7872C16 15.6751 15.2802 16.3948 14.3923 16.3948H10.105C9.21712 16.3948 8.49731 15.6751 8.49731 14.7872V12.6435C8.49731 12.0484 8.82063 11.5289 9.30118 11.2509ZM11.3013 9.28456C11.5526 9.0333 11.8934 8.89215 12.2487 8.89215C12.604 8.89215 12.9448 9.0333 13.196 9.28456C13.4473 9.53582 13.5884 9.8766 13.5884 10.2319V11.0358H10.9089V10.2319C10.9089 9.8766 11.0501 9.53582 11.3013 9.28456Z" fill="#50742F"/>
</g>
<defs>
<clipPath id="clip0_531_9074">
<rect width="16" height="16" fill="white" transform="translate(0 0.5)"/>
</clipPath>
</defs>
</svg>
