<svg width="16" height="17" viewBox="0 0 16 17" fill="none" xmlns="http://www.w3.org/2000/svg">
<g clip-path="url(#clip0_531_9071)">
<path fill-rule="evenodd" clip-rule="evenodd" d="M0 2.7857V2.78571V11.7932C0 13.283 2.6785 14.5049 6.07697 14.6138C5.80462 13.9041 5.89211 13.0743 6.38187 12.4213C7.13929 11.4114 8.57199 11.2067 9.58187 11.9641L10.1851 12.4166L13.1429 9.08903V2.78571V2.78505C13.1418 1.52299 10.2001 0.5 6.57143 0.5C2.94214 0.5 1.18543e-05 1.52335 0 2.7857Z" fill="#CBD5C1"/>
<path fill-rule="evenodd" clip-rule="evenodd" d="M11.7143 2.78568C11.7143 3.41686 9.41175 3.92854 6.57143 3.92854C3.73111 3.92854 1.42857 3.41686 1.42857 2.78568C1.42857 2.1545 3.73111 1.64282 6.57143 1.64282C9.41175 1.64282 11.7143 2.1545 11.7143 2.78568ZM0 6.62405V8.51638C0.334042 8.71761 0.710426 8.8956 1.11479 9.05115C2.54638 9.60189 4.47578 9.92753 6.57144 9.92753C8.66711 9.92753 10.5965 9.60189 12.0281 9.05115C12.4325 8.8956 12.8088 8.71762 13.1429 8.51639V6.6241C13.092 6.71882 13.0065 6.83019 12.8671 6.9569C12.5832 7.21504 12.1326 7.48033 11.5152 7.71784C10.2851 8.19103 8.5375 8.49896 6.57144 8.49896C4.60538 8.49896 2.85775 8.19103 1.62771 7.71784C1.01032 7.48033 0.559678 7.21504 0.275783 6.9569C0.1364 6.83017 0.0509099 6.71878 0 6.62405Z" fill="#50742F"/>
<path fill-rule="evenodd" clip-rule="evenodd" d="M15.6371 9.72359C15.9909 10.0381 16.0228 10.5799 15.7083 10.9337L11.1368 16.0766C10.8406 16.4097 10.3385 16.4603 9.98189 16.1928L7.69618 14.4785C7.31747 14.1945 7.24072 13.6572 7.52475 13.2785C7.80877 12.8998 8.34604 12.8231 8.72475 13.1071L10.3795 14.3482L14.427 9.79478C14.7415 9.44096 15.2832 9.4091 15.6371 9.72359Z" fill="#50742F"/>
</g>
<defs>
<clipPath id="clip0_531_9071">
<rect width="16" height="16" fill="white" transform="translate(0 0.5)"/>
</clipPath>
</defs>
</svg>
