<svg width="16" height="17" viewBox="0 0 16 17" fill="none" xmlns="http://www.w3.org/2000/svg">
<g clip-path="url(#clip0_531_9075)">
<path fill-rule="evenodd" clip-rule="evenodd" d="M6.97758 12.0979C6.73623 12.0979 6.5209 12.2496 6.43958 12.4768L5.65486 14.6693H4.5715C4.09812 14.6693 3.71436 15.0531 3.71436 15.5265C3.71436 15.9998 4.09812 16.3836 4.5715 16.3836H11.4286C11.902 16.3836 12.2858 15.9998 12.2858 15.5265C12.2858 15.0531 11.902 14.6693 11.4286 14.6693H10.3455L9.56074 12.4768C9.47941 12.2496 9.26408 12.0979 9.02273 12.0979H6.97758Z" fill="#50742F"/>
<path fill-rule="evenodd" clip-rule="evenodd" d="M1.73546 1.42896C0.815962 1.42896 0.0705566 2.17436 0.0705566 3.09386V11.4467C0.0705566 12.3662 0.815963 13.1116 1.73546 13.1116H14.2647C15.1842 13.1116 15.9296 12.3662 15.9296 11.4467V3.14324C15.9296 2.19647 15.162 1.42896 14.2153 1.42896H1.73546Z" fill="#CBD5C1"/>
<path fill-rule="evenodd" clip-rule="evenodd" d="M9.67023 5.05689C9.81993 4.6078 9.57722 4.12238 9.12812 3.97268C8.67903 3.82299 8.19361 4.0657 8.04392 4.51478L6.32963 9.65764C6.17993 10.1067 6.42264 10.5922 6.87173 10.7419C7.32083 10.8916 7.80625 10.6488 7.95594 10.1997L9.67023 5.05689ZM5.79357 5.37088C6.10165 5.73029 6.06003 6.27141 5.7006 6.57949L4.47063 7.63377L5.4058 8.41308C5.76947 8.71613 5.8186 9.25661 5.51555 9.62028C5.21249 9.98395 4.67201 10.0331 4.30834 9.73003L2.59405 8.30146C2.40024 8.13994 2.28741 7.90123 2.28567 7.64893C2.28392 7.39664 2.3934 7.15638 2.58497 6.99219L4.58497 5.2779C4.94439 4.96982 5.48551 5.01146 5.79357 5.37088ZM10.4843 5.66569C10.7874 5.30202 11.3278 5.25288 11.6915 5.55594L13.4058 6.98451C13.5996 7.14603 13.7124 7.38474 13.7142 7.63704C13.7159 7.88932 13.6064 8.12957 13.4149 8.29378L11.4149 10.0081C11.0555 10.3161 10.5144 10.2745 10.2063 9.91509C9.8982 9.55567 9.93983 9.01456 10.2993 8.70648L11.5292 7.6522L10.5941 6.87289C10.2304 6.56984 10.1813 6.02934 10.4843 5.66569Z" fill="#50742F"/>
</g>
<defs>
<clipPath id="clip0_531_9075">
<rect width="16" height="16" fill="white" transform="translate(0 0.5)"/>
</clipPath>
</defs>
</svg>
