<?xml version="1.0" encoding="UTF-8" standalone="no"?>
<svg
   xmlns:dc="http://purl.org/dc/elements/1.1/"
   xmlns:cc="http://creativecommons.org/ns#"
   xmlns:rdf="http://www.w3.org/1999/02/22-rdf-syntax-ns#"
   xmlns:svg="http://www.w3.org/2000/svg"
   xmlns="http://www.w3.org/2000/svg"
   xmlns:sodipodi="http://sodipodi.sourceforge.net/DTD/sodipodi-0.dtd"
   xmlns:inkscape="http://www.inkscape.org/namespaces/inkscape"
   width="500"
   height="386.32074"
   viewBox="0 0 500 386.32075"
   version="1.1"
   id="svg10"
   sodipodi:docname="download.svg"
   inkscape:version="0.92.5 (2060ec1f9f, 2020-04-08)">
  <metadata
     id="metadata14">
    <rdf:RDF>
      <cc:Work
         rdf:about="">
        <dc:format>image/svg+xml</dc:format>
        <dc:type
           rdf:resource="http://purl.org/dc/dcmitype/StillImage" />
        <dc:title></dc:title>
      </cc:Work>
    </rdf:RDF>
  </metadata>
  <sodipodi:namedview
     pagecolor="#ffffff"
     bordercolor="#666666"
     borderopacity="1"
     objecttolerance="10"
     gridtolerance="10"
     guidetolerance="10"
     inkscape:pageopacity="0"
     inkscape:pageshadow="2"
     inkscape:window-width="988"
     inkscape:window-height="480"
     id="namedview12"
     showgrid="false"
     fit-margin-top="0"
     fit-margin-left="0"
     fit-margin-right="0"
     fit-margin-bottom="0"
     inkscape:zoom="0.081253214"
     inkscape:cx="1047.3432"
     inkscape:cy="528.69739"
     inkscape:window-x="0"
     inkscape:window-y="27"
     inkscape:window-maximized="0"
     inkscape:current-layer="svg10" />
  <defs
     id="defs4">
    <style
       id="style2">.a{fill:#fff;}</style>
  </defs>
  <g
     id="g823"
     transform="matrix(7.7900479,0,0,7.7900479,1.6415432e-4,6.4364128e-4)">
    <path
       id="path6"
       transform="translate(3.959,-1.958)"
       d="m 15.875,36.229 10.208,10.063 a 2.771,2.771 0 0 0 4.083,0 L 40.375,36.229 A 3.062,3.062 0 0 0 40.667,32.291 2.771,2.771 0 0 0 36.291,32 l -5.25,5.25 V 20.917 a 2.917,2.917 0 1 0 -5.833,0 V 37.25 L 19.958,32 a 2.771,2.771 0 0 0 -4.375,0.292 3.063,3.063 0 0 0 0.292,3.937 z"
       class="a"
       inkscape:connector-curvature="0"
       style="fill:#ffffff" />
    <path
       id="path8"
       transform="translate(-2,-7)"
       d="M 58.146,28.583 A 13.271,13.271 0 0 0 53.188,19.1 14.292,14.292 0 0 0 42.25,15.75 17.938,17.938 0 0 0 27.375,7 16.917,16.917 0 0 0 14.542,12.833 18.083,18.083 0 0 0 9.875,25.083 17.208,17.208 0 0 0 2.292,37.042 16.771,16.771 0 0 0 6.813,51.917 18.083,18.083 0 0 0 19.5,56.583 h 2.917 a 2.917,2.917 0 0 0 2.917,-2.917 v 0 A 2.917,2.917 0 0 0 22.417,50.749 H 19.5 a 11.521,11.521 0 0 1 -8.6,-3.062 11.083,11.083 0 0 1 -2.917,-9.771 10.646,10.646 0 0 1 2.188,-5.1 11.812,11.812 0 0 1 3.929,-3.649 2.625,2.625 0 0 0 1.6,-2.771 v 0 a 13.271,13.271 0 0 1 3.208,-9.625 11.229,11.229 0 0 1 8.458,-3.938 10.646,10.646 0 0 1 6.562,2.333 12.833,12.833 0 0 1 4.083,4.958 2.917,2.917 0 0 0 2.625,1.75 h 0.729 a 9.479,9.479 0 0 1 8.313,1.9 8.75,8.75 0 0 1 2.625,6.417 v 0.583 a 2.333,2.333 0 0 0 1.75,2.479 h 0.292 A 9.042,9.042 0 0 1 60.334,42 c 0,0.875 -0.583,8.75 -10.937,8.75 H 45.75 a 2.917,2.917 0 0 0 -2.917,2.917 v 0 a 2.917,2.917 0 0 0 2.917,2.917 h 3.65 c 11.229,0 16.479,-7.437 16.771,-14.437 A 14.438,14.438 0 0 0 58.15,28.584 Z"
       class="a"
       inkscape:connector-curvature="0"
       style="fill:#ffffff" />
  </g>
</svg>
