<svg width="16" height="16" viewBox="0 0 16 16" fill="none" xmlns="http://www.w3.org/2000/svg">
<path d="M6.7499 1.87495C6.7499 2.91046 5.91046 3.7499 4.87495 3.7499C3.83944 3.7499 3 2.91046 3 1.87495C3 0.839441 3.83944 0 4.87495 0C5.91046 0 6.7499 0.839441 6.7499 1.87495Z" fill="#50742F"/>
<path d="M6.7499 7.62495C6.7499 8.66046 5.91046 9.4999 4.87495 9.4999C3.83944 9.4999 3 8.66046 3 7.62495C3 6.58944 3.83944 5.75 4.87495 5.75C5.91046 5.75 6.7499 6.58944 6.7499 7.62495Z" fill="#50742F"/>
<path d="M6.7499 13.375C6.7499 14.4104 5.91046 15.2499 4.87495 15.2499C3.83944 15.2499 3 14.4104 3 13.375C3 12.3395 3.83944 11.5 4.87495 11.5C5.91046 11.5 6.7499 12.3395 6.7499 13.375Z" fill="#50742F"/>
<path d="M13 1.87495C13 2.91046 12.1605 3.7499 11.125 3.7499C10.0894 3.7499 9.25 2.91046 9.25 1.87495C9.25 0.839441 10.0894 0 11.125 0C12.1605 0 13 0.839441 13 1.87495Z" fill="#50742F"/>
<path d="M13 7.62495C13 8.66046 12.1605 9.4999 11.125 9.4999C10.0894 9.4999 9.25 8.66046 9.25 7.62495C9.25 6.58944 10.0894 5.75 11.125 5.75C12.1605 5.75 13 6.58944 13 7.62495Z" fill="#50742F"/>
<path d="M13 13.375C13 14.4104 12.1605 15.2499 11.125 15.2499C10.0894 15.2499 9.25 14.4104 9.25 13.375C9.25 12.3395 10.0894 11.5 11.125 11.5C12.1605 11.5 13 12.3395 13 13.375Z" fill="#50742F"/>
</svg>
