<svg width="16" height="16" viewBox="0 0 16 16" fill="none" xmlns="http://www.w3.org/2000/svg">
<g clip-path="url(#clip0_531_9051)">
<path d="M0.571533 15.4287H15.422" stroke="#50742F" stroke-width="1.14286" stroke-linecap="round" stroke-linejoin="round"/>
<path d="M7.42559 11.4305L3.99854 12.0473L4.56971 8.5746L12.2577 0.909437C12.364 0.802367 12.4902 0.717383 12.6294 0.659388C12.7686 0.601393 12.918 0.571533 13.0688 0.571533C13.2196 0.571533 13.3689 0.601393 13.5081 0.659388C13.6473 0.717383 13.7737 0.802367 13.8798 0.909437L15.0907 2.12032C15.1978 2.22653 15.2828 2.35287 15.3408 2.49207C15.3988 2.63128 15.4286 2.78058 15.4286 2.9314C15.4286 3.0822 15.3988 3.23151 15.3408 3.37071C15.2828 3.50992 15.1978 3.63626 15.0907 3.74246L7.42559 11.4305Z" stroke="#50742F" stroke-width="1.14286" stroke-linecap="round" stroke-linejoin="round"/>
</g>
<defs>
<clipPath id="clip0_531_9051">
<rect width="16" height="16" fill="white"/>
</clipPath>
</defs>
</svg>
