<svg width="24" height="25" viewBox="0 0 24 25" fill="none" xmlns="http://www.w3.org/2000/svg">
<path d="M1.03429 21.4094C1.0997 20.8973 1.5626 20.6332 2.07855 20.615C3.33593 20.5707 6.2444 20.5 12 20.5C17.7556 20.5 20.664 20.5707 21.9214 20.615C22.4374 20.6332 22.9003 20.8973 22.9657 21.4094C22.9866 21.573 23 21.7682 23 22C23 22.2318 22.9866 22.427 22.9657 22.5906C22.9003 23.1027 22.4374 23.3668 21.9214 23.385C20.6641 23.4293 17.7556 23.5 12 23.5C6.2444 23.5 3.33593 23.4293 2.07855 23.385C1.5626 23.3668 1.0997 23.1027 1.03429 22.5906C1.0134 22.427 1 22.2318 1 22C1 21.7682 1.0134 21.573 1.03429 21.4094Z" fill="#50742F"/>
<path d="M18.9433 7.84804C19.9126 6.87884 20.2819 5.46185 19.4614 4.36394C19.1796 3.98691 18.8244 3.56859 18.3779 3.12204C17.9313 2.67548 17.513 2.32029 17.136 2.03851C16.038 1.21796 14.621 1.58735 13.6518 2.55656L3.56701 12.6414C3.29505 12.9134 3.10879 13.2587 3.07133 13.6415C3.0063 14.3061 2.94513 15.5606 3.08308 17.5173C3.11702 17.9989 3.50104 18.3829 3.98257 18.4168C5.93935 18.5548 7.1938 18.4936 7.8584 18.4286C8.2412 18.3911 8.5865 18.2049 8.85845 17.9329L18.9433 7.84804Z" fill="#50742F" fill-opacity="0.3"/>
</svg>
