<svg width="24" height="25" viewBox="0 0 24 25" fill="none" xmlns="http://www.w3.org/2000/svg">
<path fill-rule="evenodd" clip-rule="evenodd" d="M3.24678 4.23486C2.13512 4.31641 1.2891 5.10512 1.18078 6.2145C1.12062 6.8307 1.06155 7.634 1.01748 8.6656C0.996099 9.1661 1.36645 9.58535 1.81618 9.80615C2.81163 10.2948 3.49673 11.3175 3.49673 12.5C3.49673 13.6825 2.81163 14.7052 1.81618 15.1938C1.36645 15.4146 0.996099 15.8339 1.01748 16.3344C1.06155 17.366 1.12062 18.1693 1.18078 18.7855C1.2891 19.8949 2.13512 20.6836 3.24678 20.7652C4.78939 20.8783 7.49715 21 12.0083 21C16.5194 21 19.2272 20.8783 20.7698 20.7652C21.8814 20.6836 22.7275 19.8949 22.8358 18.7855C22.8959 18.1692 22.955 17.366 22.9991 16.3343C23.0205 15.8338 22.6502 15.4146 22.2005 15.1938C21.2052 14.7051 20.5202 13.6824 20.5202 12.5C20.5202 11.3176 21.2052 10.2949 22.2005 9.80625C22.6502 9.58545 23.0205 9.16625 22.9991 8.66575C22.955 7.63405 22.8959 6.83075 22.8358 6.2145C22.7275 5.10512 21.8814 4.31641 20.7698 4.23486C19.2272 4.12171 16.5194 4 12.0083 4C7.49715 4 4.78939 4.12171 3.24678 4.23486Z" fill="#50742F" fill-opacity="0.3"/>
<path d="M11.3343 8.28357C11.6141 7.74402 12.3859 7.74402 12.6658 8.28357L13.6378 10.1576L15.7041 10.5645C16.2753 10.6769 16.5061 11.3689 16.1169 11.8018L14.65 13.4332L14.919 15.6129C14.9923 16.2067 14.375 16.643 13.8397 16.3758L12 15.4576L10.1603 16.3758C9.62503 16.643 9.00778 16.2067 9.08103 15.6129L9.35003 13.4332L7.88313 11.8018C7.49393 11.3689 7.72478 10.6769 8.29598 10.5645L10.3622 10.1576L11.3343 8.28357Z" fill="#50742F"/>
</svg>
