<svg width="16" height="17" viewBox="0 0 16 17" fill="none" xmlns="http://www.w3.org/2000/svg">
<g clip-path="url(#clip0_531_9083)">
<path d="M6.93246 12.7477C6.55527 12.9461 6.13645 13.0521 5.71033 13.0573C5.28422 13.0625 4.86294 12.9665 4.48106 12.7774C3.15949 12.1396 2.04137 11.1467 1.25174 9.90986C0.462101 8.67298 0.0320778 7.24083 0.00974453 5.77355L-0.0388988 2.88197C-0.0459745 2.46135 0.176652 2.06668 0.555086 1.88295C2.09271 1.13644 3.77754 0.733611 5.49207 0.706101C7.20679 0.678586 8.90386 1.02724 10.4648 1.72418C10.8486 1.89557 11.0838 2.2825 11.0905 2.70282L11.1366 5.58349C11.1676 7.04978 10.7911 8.49589 10.0488 9.76079C9.3065 11.0257 8.22768 12.0597 6.93246 12.7477Z" fill="#50742F"/>
<path d="M9.49819 16.3038C9.09626 16.3946 8.67854 16.3889 8.27924 16.2871C7.87995 16.1853 7.51049 15.9903 7.20114 15.7181C6.12641 14.7915 5.33057 13.5845 4.90261 12.2315C4.47463 10.8787 4.4314 9.43343 4.77775 8.0574L5.4505 5.36638C5.55254 4.95827 5.8697 4.63449 6.28296 4.5558C7.89901 4.24804 9.56553 4.29486 11.1665 4.69641C12.7676 5.09803 14.2591 5.8434 15.5387 6.87761C15.8656 7.14187 15.9925 7.57659 15.8902 7.98432L15.2179 10.6646C14.8798 12.0418 14.1662 13.2983 13.1564 14.2939C12.1466 15.2896 10.8801 15.9854 9.49819 16.3038Z" fill="#CBD5C1"/>
<path fill-rule="evenodd" clip-rule="evenodd" d="M7.64566 9.14142C7.67865 9.1325 7.71345 9.1328 7.7463 9.14226C7.75992 9.1462 7.77365 9.14978 7.78745 9.15304C7.8196 9.16059 7.84917 9.17653 7.87317 9.19921C7.89717 9.2219 7.91473 9.25052 7.92409 9.28218C8.05826 9.73616 8.53505 9.99541 8.98903 9.86124C9.44301 9.72708 9.70225 9.25029 9.56808 8.79631C9.47301 8.47462 9.29452 8.1838 9.05073 7.95337C8.81212 7.72783 8.51924 7.56799 8.2007 7.48929C7.87312 7.3988 7.52715 7.39774 7.1988 7.48639C6.8636 7.57689 6.55959 7.75745 6.31972 8.00847C5.99268 8.35071 6.005 8.89329 6.34725 9.22033C6.6895 9.54738 7.23207 9.53505 7.55912 9.1928C7.58273 9.16809 7.61266 9.15032 7.64566 9.14142ZM12.1416 10.0933C12.1738 10.0838 12.2079 10.0831 12.2404 10.0913C12.273 10.0996 12.3027 10.1164 12.3265 10.14C12.3503 10.1637 12.3673 10.1933 12.3757 10.2258C12.4946 10.684 12.9625 10.959 13.4207 10.8401C13.8789 10.7212 14.1539 10.2533 14.0349 9.7951C13.9493 9.46519 13.7767 9.16437 13.5348 8.9241C13.2931 8.68384 12.9913 8.51297 12.6608 8.4294C12.3304 8.34582 11.9835 8.3526 11.6567 8.44901C11.3297 8.54543 11.0347 8.72796 10.8025 8.97748C10.48 9.32402 10.4995 9.86639 10.8461 10.1889C11.1927 10.5114 11.7351 10.4918 12.0575 10.1453C12.0803 10.1207 12.1093 10.1028 12.1416 10.0933Z" fill="#50742F"/>
</g>
<defs>
<clipPath id="clip0_531_9083">
<rect width="16" height="16" fill="white" transform="translate(0 0.5)"/>
</clipPath>
</defs>
</svg>
