<svg width="16" height="16" viewBox="0 0 16 16" fill="none" xmlns="http://www.w3.org/2000/svg">
<g clip-path="url(#clip0_531_9055)">
<path d="M0.571045 14.3338V9.98443C0.571045 9.38034 1.06076 8.89062 1.66485 8.89062H6.01427C6.61836 8.89062 7.10807 9.38034 7.10807 9.98443V14.3338C7.10807 14.9379 6.61836 15.4277 6.01427 15.4277H1.66485C1.06076 15.4277 0.571045 14.9379 0.571045 14.3338Z" stroke="#50742F" stroke-width="1.14286" stroke-linecap="round" stroke-linejoin="round"/>
<path d="M9.18896 6.80914L15.4271 0.571533" stroke="#50742F" stroke-width="1.14286" stroke-linecap="round" stroke-linejoin="round"/>
<path d="M12.4575 0.571533H15.4288V3.54292" stroke="#50742F" stroke-width="1.14286" stroke-linecap="round" stroke-linejoin="round"/>
<path d="M0.571045 5.9178V4.72925" stroke="#50742F" stroke-width="1.14286" stroke-linecap="round" stroke-linejoin="round"/>
<path d="M5.62214 0.571533H4.43359" stroke="#50742F" stroke-width="1.14286" stroke-linecap="round" stroke-linejoin="round"/>
<path d="M9.78376 0.571533H8.59521" stroke="#50742F" stroke-width="1.14286" stroke-linecap="round" stroke-linejoin="round"/>
<path d="M10.0813 15.4275H11.2698" stroke="#50742F" stroke-width="1.14286" stroke-linecap="round" stroke-linejoin="round"/>
<path d="M15.427 10.3765V11.565" stroke="#50742F" stroke-width="1.14286" stroke-linecap="round" stroke-linejoin="round"/>
<path d="M15.427 6.21509V7.40365" stroke="#50742F" stroke-width="1.14286" stroke-linecap="round" stroke-linejoin="round"/>
<path d="M14.2393 15.4284C14.8957 15.4284 15.4278 14.8963 15.4278 14.24" stroke="#50742F" stroke-width="1.14286" stroke-linecap="round" stroke-linejoin="round"/>
<path d="M0.571045 1.76008C0.571045 1.10367 1.10318 0.571533 1.75959 0.571533" stroke="#50742F" stroke-width="1.14286" stroke-linecap="round" stroke-linejoin="round"/>
</g>
<defs>
<clipPath id="clip0_531_9055">
<rect width="16" height="16" fill="white"/>
</clipPath>
</defs>
</svg>
