<svg width="16" height="17" viewBox="0 0 16 17" fill="none" xmlns="http://www.w3.org/2000/svg">
<g clip-path="url(#clip0_531_9073)">
<path fill-rule="evenodd" clip-rule="evenodd" d="M14.8574 0.5H15.4286C15.7441 0.5 16 0.755838 16 1.07143V1.64207V1.64365V5.64286C16 5.87398 15.8608 6.08234 15.6472 6.17079C15.4337 6.25923 15.1879 6.21034 15.0245 6.04691L13.547 4.56933L11.0938 7.02241C10.6475 7.46872 9.92391 7.46872 9.47759 7.02241C9.03128 6.57609 9.03128 5.85248 9.47759 5.40616L11.9306 2.95309L10.4531 1.47549C10.2897 1.31206 10.2408 1.06628 10.3292 0.852752C10.4177 0.639224 10.626 0.5 10.8571 0.5H14.8574ZM6.52241 11.5938C6.96872 11.1475 6.96872 10.4239 6.52241 9.97759C6.07609 9.53128 5.35248 9.53128 4.90616 9.97759L2.45309 12.4306L0.975489 10.9531C0.812062 10.7897 0.56628 10.7408 0.352752 10.8292C0.139224 10.9177 0 11.126 0 11.3571V15.3569V15.9286C0 16.2441 0.255838 16.5 0.571429 16.5H1.14207H1.14365H5.14286C5.37398 16.5 5.58234 16.3608 5.67079 16.1472C5.75923 15.9337 5.71034 15.6879 5.54691 15.5245L4.06933 14.047L6.52241 11.5938Z" fill="#CBD5C1"/>
<path fill-rule="evenodd" clip-rule="evenodd" d="M3.9654 4.4654C4.30014 4.13067 4.84286 4.13067 5.17759 4.4654L12.0347 11.3225C12.3694 11.6573 12.3694 12.2 12.0347 12.5347C11.7 12.8694 11.1573 12.8694 10.8225 12.5347L3.9654 5.67759C3.63067 5.34286 3.63067 4.80014 3.9654 4.4654Z" fill="#50742F"/>
</g>
<defs>
<clipPath id="clip0_531_9073">
<rect width="16" height="16" fill="white" transform="translate(0 0.5)"/>
</clipPath>
</defs>
</svg>
