<svg width="16" height="16" viewBox="0 0 16 16" fill="none" xmlns="http://www.w3.org/2000/svg">
<g clip-path="url(#clip0_531_9057)">
<path d="M12.5715 10.2858L14.8572 9.71436L15.4287 12.0001" stroke="#50742F" stroke-width="1.14286" stroke-linecap="round" stroke-linejoin="round"/>
<path d="M14.8573 9.71436C14.3497 11.1528 13.4276 12.4087 12.2074 13.3239C10.9871 14.2392 9.52317 14.7727 8.00016 14.8572C6.59229 14.8575 5.21846 14.4244 4.06528 13.6167C2.9121 12.8091 2.03547 11.6661 1.55444 10.3429" stroke="#50742F" stroke-width="1.14286" stroke-linecap="round" stroke-linejoin="round"/>
<path d="M3.42868 5.71429L1.14296 6.28571L0.571533 4" stroke="#50742F" stroke-width="1.14286" stroke-linecap="round" stroke-linejoin="round"/>
<path d="M1.14307 6.28568C2.10307 3.65711 5.05164 1.14282 8.00021 1.14282C9.41494 1.1468 10.7938 1.58826 11.9478 2.40668C13.1018 3.2251 13.9744 4.38042 14.4459 5.71425" stroke="#50742F" stroke-width="1.14286" stroke-linecap="round" stroke-linejoin="round"/>
</g>
<defs>
<clipPath id="clip0_531_9057">
<rect width="16" height="16" fill="white"/>
</clipPath>
</defs>
</svg>
