<svg width="16" height="17" viewBox="0 0 16 17" fill="none" xmlns="http://www.w3.org/2000/svg">
<g clip-path="url(#clip0_531_9077)">
<path fill-rule="evenodd" clip-rule="evenodd" d="M7.54239 16.2709C7.54246 16.271 7.54251 16.2711 7.99993 15.9286L7.54251 16.2711C7.65041 16.4152 7.81991 16.5 7.99993 16.5C8.17995 16.5 8.34945 16.4152 8.45735 16.2711L7.99993 15.9286C8.45735 16.2711 8.45741 16.271 8.45747 16.2709L8.45771 16.2705L8.45855 16.2695L8.46161 16.2654L8.47319 16.2498L8.51735 16.1902C8.55579 16.1382 8.61187 16.0618 8.68306 15.964C8.82541 15.7682 9.0283 15.4861 9.27155 15.1387C9.75769 14.4446 10.4069 13.4879 11.057 12.4398C11.7059 11.3936 12.3621 10.2461 12.858 9.17224C13.3438 8.12022 13.7142 7.05957 13.7142 6.21429C13.7142 4.69877 13.1122 3.24531 12.0405 2.17368C10.9689 1.10204 9.51545 0.5 7.99993 0.5C6.48441 0.5 5.03096 1.10204 3.95932 2.17368C2.88768 3.24531 2.28564 4.69877 2.28564 6.21429C2.28564 7.05957 2.65606 8.12022 3.14186 9.17224C3.63776 10.2461 4.294 11.3936 4.9429 12.4398C5.593 13.4879 6.24217 14.4446 6.72831 15.1387C6.97156 15.4861 7.17446 15.7682 7.3168 15.964C7.38799 16.0618 7.44407 16.1382 7.48251 16.1902L7.52667 16.2498L7.53825 16.2654L7.54131 16.2695L7.54215 16.2705L7.54239 16.2709Z" fill="#CBD5C1"/>
<path d="M7.99986 8.06784C9.02359 8.06784 9.85349 7.23794 9.85349 6.21422C9.85349 5.19049 9.02359 4.3606 7.99986 4.3606C6.97614 4.3606 6.14624 5.19049 6.14624 6.21422C6.14624 7.23794 6.97614 8.06784 7.99986 8.06784Z" fill="#50742F"/>
</g>
<defs>
<clipPath id="clip0_531_9077">
<rect width="16" height="16" fill="white" transform="translate(0 0.5)"/>
</clipPath>
</defs>
</svg>
