<svg width="16" height="17" viewBox="0 0 16 17" fill="none" xmlns="http://www.w3.org/2000/svg">
<path d="M1.37812 3.03236C1.41301 2.45796 1.78676 2.01309 2.35738 1.93861C2.79789 1.88112 3.43452 1.83325 4.33325 1.83325C5.23199 1.83325 5.86862 1.88112 6.30912 1.93861C6.87975 2.01309 7.25349 2.45796 7.28839 3.03236C7.31335 3.44318 7.33325 4.02439 7.33325 4.83325C7.33325 5.64212 7.31335 6.22332 7.28839 6.63415C7.25349 7.20855 6.87975 7.65342 6.30912 7.72789C5.86862 7.78539 5.23199 7.83325 4.33325 7.83325C3.43452 7.83325 2.79789 7.78539 2.35738 7.72789C1.78676 7.65342 1.41301 7.20855 1.37812 6.63415C1.35316 6.22332 1.33325 5.64212 1.33325 4.83325C1.33325 4.02439 1.35316 3.44318 1.37812 3.03236Z" fill="#CBD6C1"/>
<path d="M1.37812 13.9676C1.41301 14.542 1.78676 14.9869 2.35738 15.0614C2.79789 15.1189 3.43452 15.1667 4.33325 15.1667C5.23199 15.1667 5.86862 15.1189 6.30912 15.0614C6.87975 14.9869 7.25349 14.542 7.28839 13.9676C7.31335 13.5568 7.33325 12.9756 7.33325 12.1667C7.33325 11.3579 7.31335 10.7767 7.28839 10.3658C7.25349 9.79145 6.87975 9.34658 6.30912 9.27211C5.86862 9.21461 5.23199 9.16675 4.33325 9.16675C3.43452 9.16675 2.79789 9.21461 2.35738 9.27211C1.78676 9.34658 1.41301 9.79145 1.37812 10.3658C1.35316 10.7767 1.33325 11.3579 1.33325 12.1667C1.33325 12.9756 1.35316 13.5568 1.37812 13.9676Z" fill="#CBD6C1"/>
<path d="M13.4676 1.87812C14.042 1.91301 14.4869 2.28676 14.5614 2.85738C14.6189 3.29789 14.6667 3.93452 14.6667 4.83325C14.6667 5.73199 14.6189 6.36862 14.5614 6.80912C14.4869 7.37975 14.042 7.75349 13.4676 7.78839C13.0568 7.81335 12.4756 7.83325 11.6667 7.83325C10.8579 7.83325 10.2767 7.81335 9.86585 7.78839C9.29145 7.75349 8.84658 7.37975 8.77211 6.80912C8.71461 6.36862 8.66675 5.73199 8.66675 4.83325C8.66675 3.93452 8.71461 3.29789 8.77211 2.85738C8.84658 2.28676 9.29145 1.91301 9.86585 1.87812C10.2767 1.85316 10.8579 1.83325 11.6667 1.83325C12.4756 1.83325 13.0568 1.85316 13.4676 1.87812Z" fill="#CBD6C1"/>
<path d="M10.7002 14.4851C10.7132 14.8256 10.923 15.1138 11.2621 15.1478C11.3763 15.1593 11.5107 15.1667 11.6667 15.1667C11.8228 15.1667 11.9571 15.1593 12.0714 15.1478C12.4105 15.1138 12.6203 14.8256 12.6333 14.4851C12.6497 14.0545 12.6667 13.328 12.6667 12.1667C12.6667 11.0055 12.6497 10.279 12.6333 9.84841C12.6203 9.50785 12.4105 9.21968 12.0714 9.18568C11.9571 9.17421 11.8228 9.16675 11.6667 9.16675C11.5107 9.16675 11.3763 9.17421 11.2621 9.18568C10.923 9.21968 10.7132 9.50785 10.7002 9.84841C10.6838 10.279 10.6667 11.0055 10.6667 12.1667C10.6667 13.328 10.6838 14.0545 10.7002 14.4851Z" fill="#50742F"/>
<path d="M9.34841 11.2002C9.00785 11.2132 8.71968 11.423 8.68568 11.7621C8.67421 11.8763 8.66675 12.0107 8.66675 12.1667C8.66675 12.3228 8.67421 12.4571 8.68568 12.5714C8.71968 12.9105 9.00785 13.1203 9.34841 13.1333C9.77901 13.1497 10.5055 13.1667 11.6667 13.1667C12.828 13.1667 13.5545 13.1497 13.9851 13.1333C14.3256 13.1203 14.6138 12.9105 14.6478 12.5714C14.6593 12.4571 14.6667 12.3228 14.6667 12.1667C14.6667 12.0107 14.6593 11.8763 14.6478 11.7621C14.6138 11.423 14.3256 11.2132 13.9851 11.2002C13.5545 11.1838 12.828 11.1667 11.6667 11.1667C10.5055 11.1667 9.77901 11.1838 9.34841 11.2002Z" fill="#50742F"/>
</svg>
