<?xml version="1.0" encoding="UTF-8"?><svg id="uuid-a9070229-ecb9-4413-85e5-fe281490b1a6" xmlns="http://www.w3.org/2000/svg" viewBox="0 0 11.6 10.95"><defs><style>.uuid-31beaa96-f17a-44c9-8009-a679681078f4{fill:#50742f;}</style></defs><path class="uuid-31beaa96-f17a-44c9-8009-a679681078f4" d="M7.51,3.93c-.32,0-.57-.23-.57-.51s.25-.51,.57-.51h2.84c.32,0,.57,.23,.57,.51v2.56c0,.28-.25,.51-.57,.51s-.57-.23-.57-.51v-1.33l-3.01,2.72c-.22,.2-.58,.2-.81,0l-1.87-1.69L1.65,7.88c-.22,.2-.58,.2-.81,0-.22-.2-.22-.53,0-.73l2.84-2.56c.22-.2,.58-.2,.81,0l1.87,1.69,2.61-2.35h-1.45Z"/></svg>