<?xml version="1.0" encoding="UTF-8"?><svg id="uuid-bb494dcf-b078-4610-80c0-623e0b095c2a" xmlns="http://www.w3.org/2000/svg" viewBox="0 0 7.62 9.83"><defs><style>.uuid-e5e90e41-d3be-4041-9a93-6809ab94f709{fill:none;stroke:#50742f;stroke-linecap:round;stroke-linejoin:round;}</style></defs><path class="uuid-e5e90e41-d3be-4041-9a93-6809ab94f709" d="M6.13,3.33h.66c.09,0,.17,.04,.23,.1,.06,.07,.1,.16,.1,.25v5.3c0,.09-.03,.18-.1,.25-.06,.07-.15,.1-.23,.1H.83c-.09,0-.17-.04-.23-.1-.06-.07-.1-.16-.1-.25V3.68c0-.09,.03-.18,.1-.25,.06-.07,.15-.1,.23-.1h.66"/><path class="uuid-e5e90e41-d3be-4041-9a93-6809ab94f709" d="M3.81,.5V6.15"/><path class="uuid-e5e90e41-d3be-4041-9a93-6809ab94f709" d="M2.49,4.74l1.32,1.41,1.32-1.41"/></svg>