<?xml version="1.0" encoding="UTF-8"?><svg id="uuid-eafac5ff-3ef5-424d-aaf7-274fc1514831" xmlns="http://www.w3.org/2000/svg" viewBox="0 0 12.62 11.59"><defs><style>.uuid-f2427cf3-f824-4ced-938a-0a14a07e2a31{fill:none;stroke:#50742f;stroke-linecap:round;stroke-linejoin:round;stroke-width:1.15px;}</style></defs><path class="uuid-f2427cf3-f824-4ced-938a-0a14a07e2a31" d="M3.92,5.39L1.35,7.94c-.08,.08-.13,.16-.18,.26-.04,.1-.06,.2-.06,.31s.02,.21,.06,.31c.04,.1,.1,.19,.18,.26l1.7,1.7c.08,.08,.16,.13,.26,.18,.1,.04,.2,.06,.31,.06s.21-.02,.31-.06,.19-.1,.26-.18l2.55-2.57"/><path class="uuid-f2427cf3-f824-4ced-938a-0a14a07e2a31" d="M8.73,6.2l2.55-2.55c.08-.08,.13-.16,.18-.26s.06-.2,.06-.31-.02-.21-.06-.31-.1-.19-.18-.26l-1.68-1.7c-.08-.08-.16-.13-.26-.18-.1-.04-.2-.06-.31-.06s-.21,.02-.31,.06c-.1,.04-.19,.1-.26,.18l-2.55,2.57"/><path class="uuid-f2427cf3-f824-4ced-938a-0a14a07e2a31" d="M7.93,4.19l-3.2,3.2"/></svg>