<?xml version="1.0" encoding="UTF-8"?><svg id="uuid-de3bd2fc-2cb6-4620-901e-c0595514c5b5" xmlns="http://www.w3.org/2000/svg" viewBox="0 0 12.62 10.95"><defs><style>.uuid-6e2151b6-8826-4d59-b4ce-2f28aa62408c{fill:#50742f;}</style></defs><path class="uuid-6e2151b6-8826-4d59-b4ce-2f28aa62408c" d="M1.56,3.93c.86,0,1.54,.69,1.54,1.54s-.69,1.54-1.54,1.54S.01,6.32,.01,5.47s.69-1.54,1.54-1.54Z"/><path class="uuid-6e2151b6-8826-4d59-b4ce-2f28aa62408c" d="M6.31,3.93c.86,0,1.54,.69,1.54,1.54s-.69,1.54-1.54,1.54-1.54-.69-1.54-1.54,.69-1.54,1.54-1.54Z"/><path class="uuid-6e2151b6-8826-4d59-b4ce-2f28aa62408c" d="M11.07,3.93c.86,0,1.54,.69,1.54,1.54s-.69,1.54-1.54,1.54-1.55-.69-1.55-1.54,.69-1.54,1.55-1.54Z"/></svg>