<?xml version="1.0" encoding="UTF-8"?>
<svg id="uuid-d4852d37-1646-428b-8853-7bcbece02071" xmlns="http://www.w3.org/2000/svg" version="1.1" viewBox="0 0 15.2 14.5">
  <!-- Generator: Adobe Illustrator 29.4.0, SVG Export Plug-In . SVG Version: 2.1.0 Build 152)  -->
  <path d="M8.1,10c-.3,0-.6.3-.6.6s.3.6.6.6h4.7c.3,0,.6-.3.6-.6s-.3-.6-.6-.6h-4.7Z" style="fill: #50742f;"/>
  <path d="M1.8,4.9c0,.3.3.6.6.6h1.8v1.8c0,.3.3.6.6.6s.6-.3.6-.6v-1.8h1.8c.3,0,.6-.3.6-.6s-.3-.6-.6-.6h-1.8v-1.8c0-.3-.3-.6-.6-.6s-.6.3-.6.6v1.8h-1.8c-.3,0-.6.3-.6.6Z" style="fill: #50742f;"/>
  <path d="M12.5,3c-.2-.2-.6-.2-.8,0L3.2,11.5c-.2.2-.2.6,0,.8.1.1.3.2.4.2s.3,0,.4-.2L12.5,3.8c.2-.2.2-.6,0-.8Z" style="fill: #50742f;"/>
</svg>