<?xml version="1.0" encoding="UTF-8"?><svg id="uuid-682428b8-a9a9-4b83-be5e-8c672ef0a87f" xmlns="http://www.w3.org/2000/svg" viewBox="0 0 11.6 10.95"><defs><style>.uuid-3f12935a-7d8b-4f84-a20e-e838cb092aa1{fill:#50742f;stroke:#50742f;stroke-miterlimit:10;stroke-width:.25px;}</style></defs><path class="uuid-3f12935a-7d8b-4f84-a20e-e838cb092aa1" d="M2.1,8.55h7.4c.17,0,.31-.14,.31-.31V3.62c0-.17-.14-.31-.31-.31h-2.88c-.33,0-.66-.11-.93-.31l-.74-.55c-.06-.04-.12-.06-.18-.06H2.1c-.17,0-.31,.14-.31,.31v5.55c0,.17,.14,.31,.31,.31h0Zm7.4,.92H2.1c-.68,0-1.23-.55-1.23-1.23V2.7c0-.68,.55-1.23,1.23-1.23h2.67c.26,0,.53,.08,.74,.25l.74,.55c.11,.08,.24,.12,.37,.12h2.88c.68,0,1.23,.55,1.23,1.23v4.62c0,.68-.55,1.23-1.23,1.23h0Z"/></svg>