<?xml version="1.0" encoding="UTF-8"?><svg id="uuid-58f44f96-37dc-463d-a51a-490da87a09ca" xmlns="http://www.w3.org/2000/svg" viewBox="0 0 11.6 10.6"><defs><style>.uuid-cad8198a-5689-4df3-bf92-2500acfaa34c{fill:#50742f;fill-rule:evenodd;}</style></defs><path class="uuid-cad8198a-5689-4df3-bf92-2500acfaa34c" d="M.66,2.49c0-.32,.26-.57,.57-.57H10.38c.32,0,.57,.26,.57,.57s-.26,.57-.57,.57H1.23c-.32,0-.57-.26-.57-.57Zm1.72,2.86c0-.32,.26-.57,.57-.57h5.72c.32,0,.57,.26,.57,.57s-.26,.57-.57,.57H2.95c-.32,0-.57-.26-.57-.57Zm1.72,2.86c0-.32,.26-.57,.57-.57h2.29c.32,0,.57,.26,.57,.57s-.26,.57-.57,.57h-2.29c-.32,0-.57-.26-.57-.57Z"/></svg>