<?xml version="1.0" encoding="UTF-8"?><svg id="uuid-bfe21ca1-af76-4361-8c8a-3ffd7e904f69" xmlns="http://www.w3.org/2000/svg" viewBox="0 0 12.62 10.95"><defs><style>.uuid-d800d1dc-c955-4ffa-b825-73388beab2ba{fill:#50742f;}</style></defs><path class="uuid-d800d1dc-c955-4ffa-b825-73388beab2ba" d="M6.31,.55c-1.77,0-3.19,.81-4.22,1.77C1.07,3.27,.38,4.41,.06,5.2c-.07,.17-.07,.36,0,.54,.33,.78,1.01,1.92,2.04,2.88,1.03,.96,2.45,1.77,4.22,1.77s3.19-.81,4.22-1.77c1.02-.95,1.72-2.09,2.04-2.88,.07-.17,.07-.36,0-.54-.33-.78-1.01-1.92-2.04-2.88-1.03-.96-2.45-1.77-4.22-1.77ZM3.16,5.47c0-1.75,1.42-3.15,3.15-3.15s3.15,1.42,3.15,3.15-1.42,3.15-3.15,3.15-3.15-1.42-3.15-3.15Zm3.15-1.41c0,.78-.63,1.41-1.41,1.41-.26,0-.49-.06-.69-.18-.02,.23,0,.48,.06,.72,.3,1.12,1.46,1.79,2.58,1.49,1.12-.3,1.79-1.46,1.49-2.58-.27-1-1.22-1.64-2.22-1.56,.12,.2,.18,.44,.18,.69Z"/></svg>