<?xml version="1.0" encoding="UTF-8"?><svg id="uuid-cceac1d4-dada-4df7-b988-377757550b69" xmlns="http://www.w3.org/2000/svg" viewBox="0 0 11.6 10.95"><defs><style>.uuid-108c3ad2-b347-42a2-9e17-bf1fb599a8dd{fill:#50742f;}.uuid-18356c4b-f39f-4578-a10c-e75ef90d716d{fill:none;stroke:#50742f;stroke-linecap:round;stroke-linejoin:round;stroke-width:1.15px;}</style></defs><path class="uuid-108c3ad2-b347-42a2-9e17-bf1fb599a8dd" d="M6.39,.45c-.1-.23-.33-.38-.58-.38s-.48,.15-.58,.38c-1.84,4.41-2.89,6.93-3.15,7.56-.13,.32,.02,.69,.34,.82s.69-.02,.82-.34l.62-1.5h3.89l.62,1.5c.13,.32,.5,.47,.82,.34s.47-.5,.34-.82c-.26-.63-1.31-3.15-3.15-7.56h.01Zm.83,5.29h-2.84l1.41-3.4,1.41,3.4h.01Z"/><path class="uuid-18356c4b-f39f-4578-a10c-e75ef90d716d" d="M2.02,10.37h7.55"/></svg>