<svg width="24" height="25" viewBox="0 0 24 25" fill="none" xmlns="http://www.w3.org/2000/svg">
<path d="M3 20.5C3 22.1568 7.02945 23.5 12 23.5C16.9706 23.5 21 22.1568 21 20.5C21 18.8432 16.9706 17.5 12 17.5C7.02945 17.5 3 18.8432 3 20.5Z" fill="#50742F" fill-opacity="0.3"/>
<path d="M19.5 9.1C19.5 13.5585 15.2332 17.7768 13.1362 19.5808C12.4755 20.1491 11.5245 20.1491 10.8638 19.5808C8.7668 17.7768 4.5 13.5585 4.5 9.1C4.5 4.90264 7.85785 1.5 12 1.5C16.1421 1.5 19.5 4.90264 19.5 9.1Z" fill="#50742F"/>
<path d="M15 9C15 10.6568 13.6568 12 12 12C10.3432 12 9 10.6568 9 9C9 7.34315 10.3432 6 12 6C13.6568 6 15 7.34315 15 9Z" fill="#B8C3AE"/>
</svg>
