<svg width="16" height="17" viewBox="0 0 16 17" fill="none" xmlns="http://www.w3.org/2000/svg">
<g clip-path="url(#clip0_531_9078)">
<path d="M8 16.5C12.4183 16.5 16 12.9183 16 8.5C16 4.08172 12.4183 0.5 8 0.5C3.58172 0.5 0 4.08172 0 8.5C0 12.9183 3.58172 16.5 8 16.5Z" fill="#CBD5C1"/>
<path fill-rule="evenodd" clip-rule="evenodd" d="M9.14296 5.07132C9.14296 5.7025 8.63128 6.21418 8.0001 6.21418C7.36893 6.21418 6.85725 5.7025 6.85725 5.07132C6.85725 4.44015 7.36893 3.92847 8.0001 3.92847C8.63128 3.92847 9.14296 4.44015 9.14296 5.07132ZM5.57153 11.9285C5.57153 11.534 5.89133 11.2142 6.28582 11.2142H7.28582V8.64275H6.85725C6.46276 8.64275 6.14296 8.32296 6.14296 7.92847C6.14296 7.53398 6.46276 7.21418 6.85725 7.21418H8.0001C8.3946 7.21418 8.71439 7.53398 8.71439 7.92847V11.2142H9.71439C10.1089 11.2142 10.4287 11.534 10.4287 11.9285C10.4287 12.323 10.1089 12.6428 9.71439 12.6428H8.0001H6.28582C5.89133 12.6428 5.57153 12.323 5.57153 11.9285Z" fill="#50742F"/>
</g>
<defs>
<clipPath id="clip0_531_9078">
<rect width="16" height="16" fill="white" transform="translate(0 0.5)"/>
</clipPath>
</defs>
</svg>
