<svg width="16" height="16" viewBox="0 0 16 16" fill="none" xmlns="http://www.w3.org/2000/svg">
<g clip-path="url(#clip0_531_9052)">
<path d="M12.0001 0.571533H4.0001C2.10656 0.571533 0.571533 2.10656 0.571533 4.0001V12.0001C0.571533 13.8937 2.10656 15.4287 4.0001 15.4287H12.0001C13.8937 15.4287 15.4287 13.8937 15.4287 12.0001V4.0001C15.4287 2.10656 13.8937 0.571533 12.0001 0.571533Z" stroke="#50742F" stroke-width="1.14286" stroke-linecap="round" stroke-linejoin="round"/>
<path d="M4.37459 8.37059L6.25637 10.7074C6.30659 10.7716 6.37049 10.8238 6.44341 10.8603C6.51634 10.8967 6.59646 10.9164 6.67796 10.9179C6.75999 10.9206 6.84163 10.9056 6.91734 10.8739C6.99304 10.8422 7.06103 10.7946 7.11667 10.7342L12.0585 5.39124" stroke="#50742F" stroke-width="1.14286" stroke-linecap="round" stroke-linejoin="round"/>
</g>
<defs>
<clipPath id="clip0_531_9052">
<rect width="16" height="16" fill="white"/>
</clipPath>
</defs>
</svg>
