<svg width="24" height="25" viewBox="0 0 24 25" fill="none" xmlns="http://www.w3.org/2000/svg">
<path d="M1.03559 9.19365C1.09275 10.4388 2.06874 11.3189 3.31423 11.3685C4.93624 11.4331 7.66325 11.5 12 11.5C16.3368 11.5 19.0637 11.4331 20.6857 11.3685C21.9312 11.3189 22.9072 10.4388 22.9644 9.19365C22.9859 8.72535 23 8.16485 23 7.5C23 6.83515 22.9859 6.27465 22.9644 5.80635C22.9072 4.56119 21.9312 3.68115 20.6857 3.63154C19.0637 3.56694 16.3368 3.5 12 3.5C7.66325 3.5 4.93625 3.56694 3.31424 3.63154C2.06874 3.68115 1.09275 4.56119 1.03559 5.80635C1.0141 6.27465 1 6.83515 1 7.5C1 8.16485 1.0141 8.72535 1.03559 9.19365Z" fill="#50742F" fill-opacity="0.3"/>
<path d="M9.05375 6.92555C9.1362 6.53415 9.5177 6.35685 9.9172 6.3368C10.6492 6.30005 12.0884 6.25 14.5 6.25C16.9116 6.25 18.3509 6.30005 19.0828 6.3368C19.4823 6.35685 19.8638 6.53415 19.9463 6.92555C19.9782 7.0772 20 7.2663 20 7.5C20 7.7337 19.9782 7.9228 19.9463 8.07445C19.8638 8.46585 19.4823 8.64315 19.0828 8.6632C18.3509 8.69995 16.9116 8.75 14.5 8.75C12.0884 8.75 10.6492 8.69995 9.9172 8.6632C9.5177 8.64315 9.1362 8.46585 9.05375 8.07445C9.0218 7.9228 9 7.7337 9 7.5C9 7.2663 9.0218 7.0772 9.05375 6.92555Z" fill="#50742F"/>
<path d="M4.0013 7.2772C4.00829 6.7018 4.37786 6.2732 4.95302 6.2546C5.0434 6.25165 5.14215 6.25 5.25 6.25C5.35785 6.25 5.4566 6.25165 5.547 6.2546C6.12215 6.2732 6.4917 6.7018 6.4987 7.2772C6.49955 7.3464 6.5 7.42055 6.5 7.5C6.5 7.57945 6.49955 7.6536 6.4987 7.7228C6.4917 8.2982 6.12215 8.7268 5.547 8.7454C5.4566 8.74835 5.35785 8.75 5.25 8.75C5.14215 8.75 5.0434 8.74835 4.95302 8.7454C4.37786 8.7268 4.00829 8.2982 4.0013 7.7228C4.00046 7.6536 4 7.57945 4 7.5C4 7.42055 4.00046 7.3464 4.0013 7.2772Z" fill="#50742F"/>
<path d="M1.03559 19.1936C1.09275 20.4388 2.06874 21.3189 3.31423 21.3685C4.93624 21.4331 7.66325 21.5 12 21.5C16.3368 21.5 19.0637 21.4331 20.6857 21.3685C21.9312 21.3189 22.9072 20.4388 22.9644 19.1936C22.9859 18.7253 23 18.1649 23 17.5C23 16.8352 22.9859 16.2746 22.9644 15.8063C22.9072 14.5612 21.9312 13.6811 20.6857 13.6315C19.0637 13.5669 16.3368 13.5 12 13.5C7.66325 13.5 4.93625 13.5669 3.31424 13.6315C2.06874 13.6811 1.09275 14.5612 1.03559 15.8063C1.0141 16.2746 1 16.8352 1 17.5C1 18.1649 1.0141 18.7253 1.03559 19.1936Z" fill="#50742F" fill-opacity="0.3"/>
<path d="M9.05375 16.9256C9.1362 16.5342 9.5177 16.3568 9.9172 16.3368C10.6492 16.3 12.0884 16.25 14.5 16.25C16.9116 16.25 18.3509 16.3 19.0828 16.3368C19.4823 16.3568 19.8638 16.5342 19.9463 16.9256C19.9782 17.0772 20 17.2663 20 17.5C20 17.7337 19.9782 17.9228 19.9463 18.0744C19.8638 18.4658 19.4823 18.6432 19.0828 18.6632C18.3509 18.7 16.9116 18.75 14.5 18.75C12.0884 18.75 10.6492 18.7 9.9172 18.6632C9.5177 18.6432 9.1362 18.4658 9.05375 18.0744C9.0218 17.9228 9 17.7337 9 17.5C9 17.2663 9.0218 17.0772 9.05375 16.9256Z" fill="#50742F"/>
<path d="M4.0013 17.2772C4.00829 16.7018 4.37786 16.2732 4.95302 16.2546C5.0434 16.2516 5.14215 16.25 5.25 16.25C5.35785 16.25 5.4566 16.2516 5.547 16.2546C6.12215 16.2732 6.4917 16.7018 6.4987 17.2772C6.49955 17.3464 6.5 17.4205 6.5 17.5C6.5 17.5795 6.49955 17.6536 6.4987 17.7228C6.4917 18.2982 6.12215 18.7268 5.547 18.7454C5.4566 18.7483 5.35785 18.75 5.25 18.75C5.14215 18.75 5.0434 18.7483 4.95302 18.7454C4.37786 18.7268 4.00829 18.2982 4.0013 17.7228C4.00046 17.6536 4 17.5795 4 17.5C4 17.4205 4.00046 17.3464 4.0013 17.2772Z" fill="#50742F"/>
</svg>
