<svg width="24" height="25" viewBox="0 0 24 25" fill="none" xmlns="http://www.w3.org/2000/svg">
<path d="M10.6867 3.27452C11.2597 2.24183 12.7403 2.24183 13.3133 3.27452L15.6107 7.41475L20.2668 8.27175C21.4463 8.48885 21.9099 9.93625 21.0772 10.802L17.8421 14.1651L18.4529 18.7915C18.6087 19.9713 17.4046 20.8586 16.329 20.3568L12 18.337L7.67105 20.3568C6.5954 20.8586 5.3913 19.9713 5.54705 18.7915L6.15785 14.1651L2.92287 10.802C2.09013 9.93625 2.55371 8.48885 3.73327 8.27175L8.38935 7.41475L10.6867 3.27452Z" fill="#50742F"/>
<path d="M7.43005 3.87767C7.1878 3.12398 6.52455 2.75025 5.86025 3.18419C5.7289 3.26999 5.5844 3.36928 5.4257 3.48415C5.26705 3.59901 5.1276 3.70527 5.0051 3.80321C4.3856 4.29854 4.5374 5.04249 5.182 5.50495L6.2857 6.2967C6.6064 6.5268 7.0004 6.69935 7.35345 6.52235C7.41745 6.4903 7.4843 6.4504 7.5527 6.4009C7.6211 6.35135 7.67985 6.30035 7.73025 6.2496C8.0083 5.9698 7.96535 5.5431 7.8448 5.16812L7.43005 3.87767Z" fill="#50742F" fill-opacity="0.3"/>
<path d="M13.3892 21.5079C13.6378 22.2596 13.3217 22.9503 12.5283 22.9883C12.3714 22.9958 12.1959 23.0001 11.9998 23.0001C11.8036 23.0001 11.6281 22.9958 11.4713 22.9883C10.6778 22.9503 10.3617 22.2596 10.6104 21.5079L11.0362 20.2211C11.1599 19.8471 11.3769 19.4768 11.7669 19.4132C11.8376 19.4017 11.9152 19.3948 11.9998 19.3948C12.0843 19.3948 12.162 19.4017 12.2327 19.4132C12.6227 19.4768 12.8397 19.8471 12.9634 20.2211L13.3892 21.5079Z" fill="#50742F" fill-opacity="0.3"/>
<path d="M18.2335 3.18419C17.5692 2.75025 16.906 3.12398 16.6637 3.87767L16.2489 5.16812C16.1284 5.5431 16.0855 5.9698 16.3635 6.2496C16.4139 6.30035 16.4726 6.35135 16.541 6.4009C16.6094 6.4504 16.6763 6.4903 16.7403 6.52235C17.0934 6.69935 17.4874 6.5268 17.8081 6.2967L18.9118 5.50495C19.5564 5.04249 19.7082 4.29854 19.0887 3.80321C18.9662 3.70527 18.8267 3.59901 18.668 3.48415C18.5094 3.36928 18.3648 3.26999 18.2335 3.18419Z" fill="#50742F" fill-opacity="0.3"/>
<path d="M21.309 13.7752C22.1033 13.7718 22.665 14.2848 22.456 15.0483C22.4147 15.1993 22.3646 15.3669 22.304 15.5527C22.2434 15.7386 22.185 15.9035 22.1294 16.0499C21.848 16.79 21.0909 16.876 20.4503 16.4081L19.3534 15.607C19.0347 15.3742 18.7482 15.0542 18.808 14.665C18.8189 14.5944 18.8363 14.5188 18.8624 14.4386C18.8886 14.3585 18.9191 14.2871 18.952 14.2237C19.1332 13.8737 19.5537 13.7826 19.9489 13.7809L21.309 13.7752Z" fill="#50742F" fill-opacity="0.3"/>
<path d="M1.54394 15.0483C1.33498 14.2848 1.89669 13.7718 2.69101 13.7752L4.05103 13.7809C4.44623 13.7826 4.86681 13.8737 5.048 14.2237C5.08085 14.2871 5.1114 14.3585 5.13755 14.4386C5.16365 14.5188 5.1811 14.5944 5.19195 14.665C5.2518 15.0542 4.9653 15.3742 4.64657 15.607L3.54969 16.4081C2.90906 16.876 2.15198 16.79 1.87059 16.0499C1.81494 15.9035 1.7566 15.7386 1.69599 15.5527C1.63537 15.3669 1.58526 15.1993 1.54394 15.0483Z" fill="#50742F" fill-opacity="0.3"/>
</svg>
