<svg width="16" height="17" viewBox="0 0 16 17" fill="none" xmlns="http://www.w3.org/2000/svg">
<g clip-path="url(#clip0_531_9085)">
<path d="M6.40662 0.563644C6.26964 0.511683 6.12276 0.491005 5.97675 0.503124C5.96346 0.504228 5.95021 0.505797 5.93702 0.507828L1.58222 1.17867C1.34982 1.19906 1.13156 1.3006 0.966085 1.46608C0.800604 1.63157 0.699062 1.84983 0.678671 2.08222L0.00782773 6.43702C0.00579654 6.45021 0.00422774 6.46346 0.00312421 6.47676C-0.00899499 6.62277 0.0116826 6.76964 0.0636441 6.90663C0.114685 7.04119 0.19464 7.16287 0.29783 7.2631L9.1171 16.0823C9.38497 16.3499 9.7483 16.5004 10.1269 16.5004C10.5054 16.5004 10.8685 16.3501 11.1364 16.0827L15.5824 11.6367C15.8499 11.3688 16.0004 11.0055 16.0004 10.6269C16.0004 10.2483 15.8501 9.88521 15.5826 9.61736L6.76309 0.797829C6.66286 0.694641 6.5412 0.614684 6.40662 0.563644Z" fill="#CBD5C1"/>
<path d="M4.57254 6.2154C5.20373 6.2154 5.7154 5.70373 5.7154 5.07254C5.7154 4.44136 5.20373 3.92969 4.57254 3.92969C3.94136 3.92969 3.42969 4.44136 3.42969 5.07254C3.42969 5.70373 3.94136 6.2154 4.57254 6.2154Z" fill="#50742F"/>
</g>
<defs>
<clipPath id="clip0_531_9085">
<rect width="16" height="16" fill="white" transform="translate(0 0.5)"/>
</clipPath>
</defs>
</svg>
