<svg width="16" height="17" viewBox="0 0 16 17" fill="none" xmlns="http://www.w3.org/2000/svg">
<path d="M8.25767 11.1617C8.6688 11.1448 8.92967 10.8286 8.9488 10.4176C8.9742 9.87251 9 8.89375 9 7.16675C9 5.43975 8.9742 4.46098 8.9488 3.91588C8.92967 3.50487 8.6688 3.18864 8.25767 3.17175C8.18047 3.16858 8.09483 3.16675 8 3.16675C7.90517 3.16675 7.81953 3.16858 7.74233 3.17175C7.3312 3.18864 7.07033 3.50487 7.0512 3.91588C7.0258 4.46098 7 5.43975 7 7.16675C7 8.89375 7.0258 9.87251 7.0512 10.4176C7.07033 10.8286 7.3312 11.1448 7.74233 11.1617C7.81953 11.1649 7.90517 11.1667 8 11.1667C8.09483 11.1667 8.18047 11.1649 8.25767 11.1617Z" fill="#50742F"/>
<path d="M11.2577 11.1617C11.6688 11.1448 11.9297 10.8286 11.9488 10.4176C11.9742 9.87251 12 8.89375 12 7.16675C12 5.43975 11.9742 4.46098 11.9488 3.91588C11.9297 3.50487 11.6688 3.18864 11.2577 3.17175C11.1805 3.16858 11.0948 3.16675 11 3.16675C10.9052 3.16675 10.8195 3.16858 10.7423 3.17175C10.3312 3.18864 10.0703 3.50487 10.0512 3.91588C10.0258 4.46098 10 5.43975 10 7.16675C10 8.89375 10.0258 9.87251 10.0512 10.4176C10.0703 10.8286 10.3312 11.1448 10.7423 11.1617C10.8195 11.1649 10.9052 11.1667 11 11.1667C11.0948 11.1667 11.1805 11.1649 11.2577 11.1617Z" fill="#50742F"/>
<path d="M5.25767 11.1617C5.6688 11.1448 5.92967 10.8286 5.9488 10.4176C5.9742 9.87251 6 8.89375 6 7.16675C6 5.43975 5.9742 4.46098 5.9488 3.91588C5.92967 3.50487 5.6688 3.18864 5.25767 3.17175C5.18047 3.16858 5.09483 3.16675 5 3.16675C4.90517 3.16675 4.81953 3.16858 4.74233 3.17175C4.3312 3.18864 4.07033 3.50487 4.0512 3.91588C4.0258 4.46098 4 5.43975 4 7.16675C4 8.89375 4.0258 9.87251 4.0512 10.4176C4.07033 10.8286 4.3312 11.1448 4.74233 11.1617C4.81953 11.1649 4.90517 11.1667 5 11.1667C5.09483 11.1667 5.18047 11.1649 5.25767 11.1617Z" fill="#50742F"/>
<path d="M5.35927 13.8307C5.70653 13.8253 5.96863 13.6241 5.9887 13.2773C5.9956 13.1574 6 13.0112 6 12.8333C6 12.6553 5.9956 12.5091 5.9887 12.3892C5.96863 12.0425 5.70653 11.8412 5.35927 11.8358C5.25757 11.8342 5.13857 11.8333 5 11.8333C4.86143 11.8333 4.74243 11.8342 4.64073 11.8358C4.29347 11.8412 4.03137 12.0425 4.0113 12.3892C4.0044 12.5091 4 12.6553 4 12.8333C4 13.0112 4.0044 13.1574 4.0113 13.2773C4.03137 13.6241 4.29347 13.8253 4.64073 13.8307C4.74243 13.8323 4.86143 13.8333 5 13.8333C5.13857 13.8333 5.25757 13.8323 5.35927 13.8307Z" fill="#CBD6C1"/>
<path d="M8.35927 13.8307C8.70653 13.8253 8.96863 13.6241 8.9887 13.2773C8.9956 13.1574 9 13.0112 9 12.8333C9 12.6553 8.9956 12.5091 8.9887 12.3892C8.96863 12.0425 8.70653 11.8412 8.35927 11.8358C8.25757 11.8342 8.13857 11.8333 8 11.8333C7.86143 11.8333 7.74243 11.8342 7.64073 11.8358C7.29347 11.8412 7.03137 12.0425 7.0113 12.3892C7.0044 12.5091 7 12.6553 7 12.8333C7 13.0112 7.0044 13.1574 7.0113 13.2773C7.03137 13.6241 7.29347 13.8253 7.64073 13.8307C7.74243 13.8323 7.86143 13.8333 8 13.8333C8.13857 13.8333 8.25757 13.8323 8.35927 13.8307Z" fill="#CBD6C1"/>
<path d="M11.3593 13.8307C11.7065 13.8253 11.9686 13.6241 11.9887 13.2773C11.9956 13.1574 12 13.0112 12 12.8333C12 12.6553 11.9956 12.5091 11.9887 12.3892C11.9686 12.0425 11.7065 11.8412 11.3593 11.8358C11.2576 11.8342 11.1386 11.8333 11 11.8333C10.8614 11.8333 10.7424 11.8342 10.6407 11.8358C10.2935 11.8412 10.0314 12.0425 10.0113 12.3892C10.0044 12.5091 10 12.6553 10 12.8333C10 13.0112 10.0044 13.1574 10.0113 13.2773C10.0314 13.6241 10.2935 13.8253 10.6407 13.8307C10.7424 13.8323 10.8614 13.8333 11 13.8333C11.1386 13.8333 11.2576 13.8323 11.3593 13.8307Z" fill="#CBD6C1"/>
<path d="M2.32625 13.8224C2.70134 13.795 2.9217 13.488 2.93801 13.1123C2.96629 12.4608 3 11.1322 3 8.50008C3 5.86795 2.96629 4.53931 2.93801 3.88788C2.9217 3.51214 2.70134 3.20515 2.32625 3.17779C2.23204 3.17092 2.12385 3.16675 2 3.16675C1.87615 3.16675 1.76796 3.17092 1.67375 3.17779C1.29866 3.20515 1.0783 3.51214 1.06199 3.88788C1.03371 4.53931 1 5.86795 1 8.50008C1 11.1322 1.03371 12.4608 1.06199 13.1123C1.0783 13.488 1.29866 13.795 1.67375 13.8224C1.76796 13.8292 1.87615 13.8334 2 13.8334C2.12385 13.8334 2.23204 13.8292 2.32625 13.8224Z" fill="#50742F"/>
<path d="M14.3263 13.8224C14.7013 13.795 14.9217 13.488 14.938 13.1123C14.9663 12.4608 15 11.1322 15 8.50008C15 5.86795 14.9663 4.53931 14.938 3.88788C14.9217 3.51214 14.7013 3.20515 14.3263 3.17779C14.232 3.17092 14.1238 3.16675 14 3.16675C13.8762 3.16675 13.768 3.17092 13.6737 3.17779C13.2987 3.20515 13.0783 3.51214 13.062 3.88788C13.0337 4.53931 13 5.86795 13 8.50008C13 11.1322 13.0337 12.4608 13.062 13.1123C13.0783 13.488 13.2987 13.795 13.6737 13.8224C13.768 13.8292 13.8762 13.8334 14 13.8334C14.1238 13.8334 14.232 13.8292 14.3263 13.8224Z" fill="#50742F"/>
</svg>
