<svg width="24" height="25" viewBox="0 0 24 25" fill="none" xmlns="http://www.w3.org/2000/svg">
<path fill-rule="evenodd" clip-rule="evenodd" d="M12.1034 6.5C12.1991 6.5 12.2926 6.5052 12.3825 6.51405C12.9729 6.5724 13.3243 7.1325 13.322 7.72575L13.3067 11.7401C13.3062 11.8708 13.3569 11.9965 13.4479 12.0902L16.3413 15.0712C16.731 15.4727 16.8073 16.0891 16.4357 16.5074C16.3809 16.569 16.3225 16.6319 16.2606 16.695C16.1838 16.7734 16.1061 16.8477 16.0297 16.9171C15.6155 17.2936 14.9957 17.2439 14.5763 16.8732L11.0462 13.753C10.7014 13.4483 10.5155 13.0022 10.542 12.5428L10.8234 7.66345C10.8558 7.1025 11.2013 6.588 11.7592 6.52115C11.8689 6.508 11.9846 6.5 12.1034 6.5Z" fill="#50742F"/>
<path fill-rule="evenodd" clip-rule="evenodd" d="M11.9998 23.5C18.075 23.5 22.9998 18.5751 22.9998 12.5C22.9998 6.42485 18.075 1.5 11.9998 1.5C8.4585 1.5 5.308 3.1735 3.29603 5.7728C2.79979 5.42721 2.40331 5.16527 2.08985 4.96732C1.55828 4.63162 0.990193 4.95705 1.00517 5.58555C1.0166 6.06505 1.04974 6.7038 1.12519 7.531C1.22953 8.675 1.39278 9.4103 1.53135 9.86165C1.66083 10.2833 2.02537 10.5465 2.46609 10.5265C2.92045 10.5057 3.63076 10.4124 4.67624 10.1284C5.4607 9.91525 6.0541 9.72595 6.49155 9.57135C7.0614 9.37 7.17545 8.74815 6.7145 8.3572C6.4607 8.14195 6.1337 7.8755 5.71465 7.55005C7.17965 5.69245 9.4505 4.5 11.9998 4.5C16.4181 4.5 19.9998 8.0817 19.9998 12.5C19.9998 16.9183 16.4181 20.5 11.9998 20.5C8.7339 20.5 5.925 18.5429 4.68203 15.7375C4.46939 15.2576 4.06323 14.8588 3.53967 14.8965C3.07196 14.9301 2.48982 15.0773 2.01246 15.5271C1.69583 15.8253 1.66569 16.3028 1.83209 16.7048C3.48351 20.6937 7.41395 23.5 11.9998 23.5Z" fill="#50742F" fill-opacity="0.3"/>
</svg>
