<svg width="16" height="17" viewBox="0 0 16 17" fill="none" xmlns="http://www.w3.org/2000/svg">
<g clip-path="url(#clip0_531_9089)">
<path d="M4.00007 5.07143C5.26244 5.07143 6.28578 4.04808 6.28578 2.78571C6.28578 1.52335 5.26244 0.5 4.00007 0.5C2.7377 0.5 1.71436 1.52335 1.71436 2.78571C1.71436 4.04808 2.7377 5.07143 4.00007 5.07143Z" fill="#CBD5C1"/>
<path fill-rule="evenodd" clip-rule="evenodd" d="M7.32331 7.98822C7.17939 7.77336 7.01397 7.57148 6.82842 7.38593C6.07829 6.63578 5.06087 6.21436 4 6.21436C2.93913 6.21436 1.92171 6.63578 1.17158 7.38593C0.421427 8.13607 0 9.15349 0 10.2144V11.3572C0 11.6728 0.255838 11.9286 0.571429 11.9286H1.71429L2.22314 15.9995C2.25889 16.2854 2.50198 16.5001 2.79016 16.5001H5.20984C5.49802 16.5001 5.74111 16.2854 5.77686 15.9995L6.28571 11.9286H7.42857C7.46706 11.9286 7.50467 11.9248 7.54103 11.9176C7.52693 11.8845 7.51303 11.8516 7.49937 11.8187C7.24286 11.2009 7.00806 10.4716 7.00806 9.77311C7.00806 9.15839 7.11669 8.55487 7.32331 7.98822Z" fill="#CBD5C1"/>
<path d="M16.0001 9.77315C16.0001 11.4212 13.6543 14.7739 12.6578 16.1239C12.4371 16.4228 11.9999 16.4228 11.7791 16.1239C10.7826 14.7739 8.43677 11.4212 8.43677 9.77315C8.43677 8.77017 8.83519 7.80829 9.5444 7.09909C10.2536 6.38988 11.2155 5.99146 12.2185 5.99146C13.2215 5.99146 14.1833 6.38988 14.8926 7.09909C15.6017 7.80829 16.0001 8.77017 16.0001 9.77315Z" fill="#50742F"/>
<path fill-rule="evenodd" clip-rule="evenodd" d="M10.9858 9.77301C10.9858 9.09233 11.5377 8.54053 12.2184 8.54053C12.899 8.54053 13.4508 9.09233 13.4508 9.77301C13.4508 10.4537 12.899 11.0055 12.2184 11.0055C11.5377 11.0055 10.9858 10.4537 10.9858 9.77301Z" fill="#CBD5C1"/>
</g>
<defs>
<clipPath id="clip0_531_9089">
<rect width="16" height="16" fill="white" transform="translate(0 0.5)"/>
</clipPath>
</defs>
</svg>
