<?xml version="1.0" encoding="UTF-8" standalone="no"?>
<svg
   xmlns:dc="http://purl.org/dc/elements/1.1/"
   xmlns:cc="http://creativecommons.org/ns#"
   xmlns:rdf="http://www.w3.org/1999/02/22-rdf-syntax-ns#"
   xmlns:svg="http://www.w3.org/2000/svg"
   xmlns="http://www.w3.org/2000/svg"
   xmlns:sodipodi="http://sodipodi.sourceforge.net/DTD/sodipodi-0.dtd"
   xmlns:inkscape="http://www.inkscape.org/namespaces/inkscape"
   width="500"
   height="386.34717"
   viewBox="0 0 500.00002 386.34717"
   version="1.1"
   id="svg10"
   sodipodi:docname="upload.svg"
   inkscape:version="0.92.5 (2060ec1f9f, 2020-04-08)">
  <metadata
     id="metadata14">
    <rdf:RDF>
      <cc:Work
         rdf:about="">
        <dc:format>image/svg+xml</dc:format>
        <dc:type
           rdf:resource="http://purl.org/dc/dcmitype/StillImage" />
        <dc:title></dc:title>
      </cc:Work>
    </rdf:RDF>
  </metadata>
  <sodipodi:namedview
     pagecolor="#ffffff"
     bordercolor="#666666"
     borderopacity="1"
     objecttolerance="10"
     gridtolerance="10"
     guidetolerance="10"
     inkscape:pageopacity="0"
     inkscape:pageshadow="2"
     inkscape:window-width="988"
     inkscape:window-height="480"
     id="namedview12"
     showgrid="false"
     fit-margin-top="0"
     fit-margin-left="0"
     fit-margin-right="0"
     fit-margin-bottom="0"
     inkscape:zoom="1.1735635"
     inkscape:cx="-8.6720358"
     inkscape:cy="33.112768"
     inkscape:window-x="0"
     inkscape:window-y="27"
     inkscape:window-maximized="0"
     inkscape:current-layer="svg10" />
  <defs
     id="defs4">
    <style
       id="style2">.a{fill:#fff;}</style>
  </defs>
  <g
     id="g823"
     transform="matrix(7.7463662,0,0,7.7463662,-8.4505056e-4,6.5326178e-4)">
    <path
       id="path6"
       transform="translate(4.068,-1.874)"
       d="m 15.586,32.967 a 2.787,2.787 0 0 0 4.4,0.293 l 5.28,-5.28 v 16.427 a 2.9335,2.9335 0 0 0 5.867,0 V 27.98 l 5.28,5.28 a 2.787,2.787 0 0 0 4.4,-0.293 3.08,3.08 0 0 0 -0.293,-3.96 L 30.253,18.887 a 2.787,2.787 0 0 0 -4.107,0 l -10.267,10.12 a 3.08,3.08 0 0 0 -0.293,3.96 z"
       class="a"
       inkscape:connector-curvature="0"
       style="fill:#ffffff" />
    <path
       id="path8"
       transform="translate(-2,-7)"
       d="M 58.466,28.706 A 13.347,13.347 0 0 0 53.479,19.173 14.373,14.373 0 0 0 42.479,15.8 18.04,18.04 0 0 0 27.52,7 17.013,17.013 0 0 0 14.613,12.867 18.186,18.186 0 0 0 9.92,25.186 17.306,17.306 0 0 0 2.294,37.213 16.866,16.866 0 0 0 6.84,52.173 18.186,18.186 0 0 0 19.6,56.866 h 2.933 a 2.933,2.933 0 0 0 2.933,-2.933 v 0 A 2.933,2.933 0 0 0 22.533,51 H 19.6 a 11.587,11.587 0 0 1 -8.653,-3.08 11.147,11.147 0 0 1 -2.933,-9.827 10.707,10.707 0 0 1 2.2,-5.133 11.88,11.88 0 0 1 3.96,-3.667 2.64,2.64 0 0 0 1.613,-2.787 v 0 a 13.347,13.347 0 0 1 3.227,-9.68 11.293,11.293 0 0 1 8.507,-3.96 10.707,10.707 0 0 1 6.6,2.347 12.907,12.907 0 0 1 4.105,4.987 2.933,2.933 0 0 0 2.64,1.76 H 41.6 a 9.533,9.533 0 0 1 8.36,1.907 8.8,8.8 0 0 1 2.64,6.453 v 0.587 a 2.347,2.347 0 0 0 1.76,2.493 h 0.293 a 9.093,9.093 0 0 1 6.013,8.8 c 0,0.88 -0.587,8.8 -11,8.8 H 46 a 2.933,2.933 0 0 0 -2.933,2.933 v 0 A 2.933,2.933 0 0 0 46,56.866 h 3.667 c 11.293,0 16.573,-7.48 16.866,-14.52 a 14.52,14.52 0 0 0 -8.067,-13.64 z"
       class="a"
       inkscape:connector-curvature="0"
       style="fill:#ffffff" />
  </g>
</svg>
