<svg width="16" height="17" viewBox="0 0 16 17" fill="none" xmlns="http://www.w3.org/2000/svg">
<g clip-path="url(#clip0_531_9084)">
<path fill-rule="evenodd" clip-rule="evenodd" d="M8.46042 0.732994C8.35275 0.586509 8.18181 0.5 8 0.5C7.81819 0.5 7.64725 0.586509 7.53958 0.732995L5.7787 3.12861L2.82915 2.67799C2.64943 2.65053 2.46736 2.71023 2.3388 2.8388C2.21023 2.96736 2.15053 3.14943 2.17799 3.32915L2.62861 6.2787L0.232995 8.03958C0.0865089 8.14725 0 8.31819 0 8.5C0 8.68181 0.0865089 8.85275 0.232994 8.96042L2.62861 10.7213L2.17799 13.6709C2.15053 13.8506 2.21023 14.0327 2.3388 14.1613C2.46736 14.2897 2.64943 14.3495 2.82915 14.3221L5.7787 13.8714L7.53958 16.267C7.64725 16.4135 7.81819 16.5 8 16.5C8.18181 16.5 8.35275 16.4135 8.46042 16.267L10.2213 13.8714L13.1709 14.3221C13.3506 14.3495 13.5327 14.2897 13.6613 14.1613C13.7897 14.0327 13.8495 13.8506 13.8221 13.6709L13.3714 10.7213L15.767 8.96042C15.9135 8.85275 16 8.68181 16 8.5C16 8.31819 15.9135 8.14725 15.767 8.03958L13.3714 6.2787L13.8221 3.32915C13.8495 3.14943 13.7897 2.96736 13.6613 2.8388C13.5327 2.71023 13.3506 2.65053 13.1709 2.67799L10.2213 3.12861L8.46042 0.732994Z" fill="#CBD5C1"/>
<path d="M8.0001 11.9287C9.89365 11.9287 11.4287 10.3937 11.4287 8.5001C11.4287 6.60656 9.89365 5.07153 8.0001 5.07153C6.10656 5.07153 4.57153 6.60656 4.57153 8.5001C4.57153 10.3937 6.10656 11.9287 8.0001 11.9287Z" fill="#50742F"/>
</g>
<defs>
<clipPath id="clip0_531_9084">
<rect width="16" height="16" fill="white" transform="translate(0 0.5)"/>
</clipPath>
</defs>
</svg>
