<svg width="16" height="17" viewBox="0 0 16 17" fill="none" xmlns="http://www.w3.org/2000/svg">
<g clip-path="url(#clip0_531_9086)">
<path d="M14.9791 14.9631C15.2963 15.3144 15.2687 15.8565 14.9174 16.1736C14.5659 16.4909 14.024 16.4632 13.7067 16.1119C13.0994 15.4392 12.3776 14.8816 11.5761 14.4642H4.42401C3.62247 14.8816 2.90066 15.4392 2.2934 16.1119C1.97616 16.4632 1.43415 16.4909 1.08279 16.1736C0.731428 15.8565 0.703762 15.3144 1.021 14.9631C1.57798 14.3462 2.21359 13.8081 2.90993 13.3621H13.0902C13.7865 13.8081 14.4222 14.3462 14.9791 14.9631Z" fill="#50742F"/>
<path d="M8.0001 15.3571C12.1028 15.3571 15.4287 12.0313 15.4287 7.92857C15.4287 3.82588 12.1028 0.5 8.0001 0.5C3.89742 0.5 0.571533 3.82588 0.571533 7.92857C0.571533 12.0313 3.89742 15.3571 8.0001 15.3571Z" fill="#CBD5C1"/>
<path fill-rule="evenodd" clip-rule="evenodd" d="M7.99993 4.23706C5.94858 4.23706 4.28564 5.9 4.28564 7.95135C4.28564 10.0027 5.94858 11.6656 7.99993 11.6656C10.0513 11.6656 11.7142 10.0027 11.7142 7.95135C11.7142 5.9 10.0513 4.23706 7.99993 4.23706Z" fill="#50742F"/>
<path fill-rule="evenodd" clip-rule="evenodd" d="M6.85718 7.95145C6.85718 7.32026 7.36886 6.80859 8.00003 6.80859C8.63121 6.80859 9.14289 7.32026 9.14289 7.95145C9.14289 8.58263 8.63121 9.09431 8.00003 9.09431C7.36886 9.09431 6.85718 8.58263 6.85718 7.95145Z" fill="#CBD5C1"/>
</g>
<defs>
<clipPath id="clip0_531_9086">
<rect width="16" height="16" fill="white" transform="translate(0 0.5)"/>
</clipPath>
</defs>
</svg>
