<svg width="16" height="17" viewBox="0 0 16 17" fill="none" xmlns="http://www.w3.org/2000/svg">
<g clip-path="url(#clip0_531_9087)">
<path d="M9.53857 4.80769V1.11539C9.53857 0.952175 9.47372 0.795649 9.35831 0.680242C9.24291 0.564835 9.08638 0.5 8.92317 0.5H7.07702C6.91381 0.5 6.75729 0.564835 6.64188 0.680242C6.52647 0.795649 6.46164 0.952175 6.46164 1.11539V4.80769C5.89356 5.18529 5.42772 5.69755 5.10561 6.29883C4.78349 6.9001 4.61512 7.57173 4.61548 8.25385V15.2693C4.61548 15.5957 4.74515 15.9087 4.97597 16.1395C5.20678 16.3703 5.51983 16.5 5.84626 16.5H10.1539C10.4804 16.5 10.7934 16.3703 11.0242 16.1395C11.255 15.9087 11.3847 15.5957 11.3847 15.2693V8.25385C11.3851 7.57173 11.2167 6.9001 10.8946 6.29883C10.5725 5.69755 10.1066 5.18529 9.53857 4.80769Z" fill="#CBD5C1"/>
<path d="M9.42857 9.07153H6.57143C6.25584 9.07153 6 9.32737 6 9.64296V12.5001C6 12.8156 6.25584 13.0715 6.57143 13.0715H9.42857C9.74416 13.0715 10 12.8156 10 12.5001V9.64296C10 9.32737 9.74416 9.07153 9.42857 9.07153Z" fill="#50742F"/>
</g>
<defs>
<clipPath id="clip0_531_9087">
<rect width="16" height="16" fill="white" transform="translate(0 0.5)"/>
</clipPath>
</defs>
</svg>
