<svg width="16" height="16" viewBox="0 0 16 16" fill="none" xmlns="http://www.w3.org/2000/svg">
<g clip-path="url(#clip0_531_9050)">
<path d="M8.0001 15.4287C12.1028 15.4287 15.4287 12.1028 15.4287 8.0001C15.4287 3.89742 12.1028 0.571533 8.0001 0.571533C3.89742 0.571533 0.571533 3.89742 0.571533 8.0001C0.571533 12.1028 3.89742 15.4287 8.0001 15.4287Z" stroke="#50742F" stroke-width="1.14286" stroke-linecap="round" stroke-linejoin="round"/>
<path d="M4.45271 8.46312L6.3345 10.8C6.38472 10.8642 6.44861 10.9164 6.52154 10.9528C6.59446 10.9892 6.67459 11.0089 6.75608 11.0105C6.83811 11.0131 6.91976 10.9981 6.99546 10.9664C7.07117 10.9347 7.13915 10.8871 7.1948 10.8267L12.1366 5.48377" stroke="#50742F" stroke-width="1.14" stroke-linecap="round" stroke-linejoin="round"/>
</g>
<defs>
<clipPath id="clip0_531_9050">
<rect width="16" height="16" fill="white"/>
</clipPath>
</defs>
</svg>
