<?xml version="1.0" encoding="UTF-8" standalone="no"?>
<svg
   id="b"
   data-name="Livello 2"
   width="52.028"
   height="49.224998"
   viewBox="0 0 52.028 49.225"
   version="1.1"
   xmlns="http://www.w3.org/2000/svg"
   xmlns:svg="http://www.w3.org/2000/svg">
  <defs
     id="defs6" />
  <g
     id="c"
     data-name="Livello 1">
    <g
       id="g6">
      <path
         d="m 34.317,29.173 c 0,1.733 -0.531,3.341 -1.438,4.672 -1.49,2.186 -3.997,3.62 -6.84,3.62 -2.843,0 -5.356,-1.438 -6.845,-3.629 -0.904,-1.329 -1.433,-2.935 -1.433,-4.664 0,-4.58 3.706,-8.293 8.278,-8.293 4.572,0 8.278,3.713 8.278,8.293 z"
         fill="none"
         stroke="#000000"
         stroke-linecap="round"
         stroke-linejoin="round"
         stroke-width="3"
         id="path1" />
      <path
         d="m 31.779,7.23 c 0,3.165 -2.56,5.729 -5.72,5.729 H 26.036 C 22.887,12.947 20.34,10.388 20.34,7.23 c 0,-3.158 2.56,-5.73 5.72,-5.73 3.16,0 5.72,2.565 5.72,5.73 z"
         fill="none"
         stroke="#000000"
         stroke-linecap="round"
         stroke-linejoin="round"
         stroke-width="3"
         id="path2" />
      <path
         d="m 50.528,41.995 c 0,3.165 -2.56,5.73 -5.72,5.73 -3.16,0 -5.719,-2.565 -5.719,-5.73 0,-1.198 0.366,-2.31 0.994,-3.228 1.029,-1.511 2.762,-2.501 4.725,-2.501 3.159,0 5.72,2.565 5.72,5.729 z"
         fill="none"
         stroke="#000000"
         stroke-linecap="round"
         stroke-linejoin="round"
         stroke-width="3"
         id="path3" />
      <path
         d="m 12.938,41.995 c 0,3.165 -2.56,5.73 -5.72,5.73 -3.16,0 -5.719,-2.565 -5.719,-5.73 0,-3.165 2.559,-5.729 5.719,-5.729 1.967,0 3.702,0.994 4.73,2.507 0.626,0.917 0.99,2.027 0.99,3.221 z"
         fill="none"
         stroke="#000000"
         stroke-linecap="round"
         stroke-linejoin="round"
         stroke-width="3"
         id="path4" />
      <line
         x1="26.039"
         y1="20.881001"
         x2="26.039"
         y2="12.959"
         fill="none"
         stroke="#000000"
         stroke-linecap="round"
         stroke-linejoin="round"
         stroke-width="3"
         id="line4" />
      <line
         x1="40.084"
         y1="38.766998"
         x2="32.879002"
         y2="33.846001"
         fill="none"
         stroke="#000000"
         stroke-linecap="round"
         stroke-linejoin="round"
         stroke-width="3"
         id="line5" />
      <line
         x1="19.194"
         y1="33.837002"
         x2="11.949"
         y2="38.772999"
         fill="none"
         stroke="#000000"
         stroke-linecap="round"
         stroke-linejoin="round"
         stroke-width="3"
         id="line6" />
    </g>
  </g>
  <path
     style="fill:#ffffff;stroke-width:0.0857617;stroke-dasharray:none"
     d="M 5.5229343,48.975739 C 2.5723404,48.234442 0.34258455,45.632276 0.09581407,42.642191 -0.18811467,39.201863 1.8613263,36.164644 5.1804268,35.106926 6.033557,34.835053 7.7697876,34.770851 8.6960485,34.976924 c 1.1746039,0.261324 2.1802295,0.756148 3.1792955,1.564392 l 0.358527,0.290048 2.46716,-1.680585 c 1.356938,-0.924321 2.479746,-1.716112 2.49513,-1.759535 0.01538,-0.04342 -0.07351,-0.332619 -0.197549,-0.642659 -1.006819,-2.516651 -0.8829,-5.397968 0.338642,-7.873974 0.558067,-1.131176 1.075801,-1.831401 2.028648,-2.743713 1.400758,-1.341166 2.897978,-2.111928 4.973541,-2.560355 l 0.235474,-0.05088 v -2.638096 -2.638096 l -0.449541,-0.102343 c -0.649815,-0.147938 -1.903197,-0.798583 -2.545173,-1.321229 -0.793,-0.645598 -1.476728,-1.500232 -1.922786,-2.40341 -1.552542,-3.1435865 -0.602213,-6.9973727 2.220253,-9.0035954 1.317826,-0.9367175 2.572004,-1.33459068 4.211022,-1.33589731 3.198856,-0.0025502 5.986507,2.13260291 6.894235,5.28051971 0.258387,0.8960607 0.27812,2.7688659 0.03828,3.6333023 -0.370071,1.3338327 -1.280005,2.8172137 -2.220127,3.6192687 -0.851546,0.726486 -1.545524,1.11024 -2.672651,1.477918 l -0.599388,0.195524 -0.02268,2.592448 c -0.01681,1.921155 0.0035,2.608623 0.07839,2.654914 0.05559,0.03436 0.274383,0.08846 0.486209,0.120221 0.463667,0.06953 1.692082,0.494529 2.283777,0.790125 1.998198,0.99825 3.779693,2.881445 4.614081,4.877487 1.017539,2.434178 1.059321,4.914739 0.124189,7.372851 -0.157608,0.414293 -0.237668,0.738783 -0.192249,0.779205 0.04281,0.0381 1.164894,0.808186 2.493526,1.711306 l 2.415696,1.642037 0.531914,-0.428622 c 0.292553,-0.235742 0.823838,-0.57877 1.180634,-0.762286 1.15217,-0.59261 1.97498,-0.788062 3.323057,-0.789365 2.732053,-0.0026 5.162196,1.520725 6.361744,3.987939 0.605849,1.246103 0.717833,1.740349 0.717833,3.168195 0,1.406694 -0.112408,1.918076 -0.680477,3.095706 -0.892969,1.851163 -2.411504,3.14684 -4.450623,3.797454 -0.916914,0.292557 -2.572371,0.335285 -3.595292,0.0928 -3.003036,-0.711883 -5.262537,-3.311988 -5.512747,-6.343755 -0.07432,-0.900536 0.03821,-2.016895 0.280067,-2.778523 l 0.205797,-0.64806 -2.491223,-1.703885 -2.491224,-1.703885 -0.561083,0.515252 c -2.59626,2.38419 -6.263273,3.190042 -9.594719,2.108504 -1.261022,-0.409384 -2.63449,-1.225188 -3.685858,-2.189301 L 18.87293,35.80685 16.4507,37.459214 c -1.332226,0.9088 -2.454916,1.685743 -2.494868,1.726539 -0.03995,0.0408 0.02735,0.40165 0.14959,0.802002 0.194161,0.635905 0.222779,0.88464 0.226596,1.969418 0.0051,1.452979 -0.10054,1.94238 -0.677537,3.13852 -0.892797,1.850806 -2.408164,3.144027 -4.4506233,3.798179 -0.8783252,0.281306 -2.7237165,0.322349 -3.6809184,0.08187 z M 8.5022877,46.066472 C 11.896138,45.018219 12.5344,40.384112 9.5535743,38.433581 8.8394444,37.966283 8.1163978,37.761458 7.1809379,37.761458 c -1.2815647,0 -2.2133929,0.412477 -3.1033036,1.373686 -0.8259816,0.892159 -1.1180711,1.740021 -1.0675223,3.098748 0.029836,0.801989 0.06058,0.937895 0.3498839,1.546702 0.5395957,1.135519 1.5645423,2.017709 2.7119627,2.334235 0.629612,0.173685 1.7859322,0.150677 2.4303291,-0.04836 z m 37.5902043,0 c 2.464519,-0.761212 3.667283,-3.581756 2.537374,-5.950275 -0.708869,-1.485933 -2.144197,-2.356931 -3.87743,-2.352933 -1.863427,0.0043 -3.391098,1.121313 -3.99921,2.924175 -0.153245,0.454325 -0.177858,0.694136 -0.152285,1.483804 0.02846,0.878736 0.05182,0.986652 0.348467,1.609351 0.541215,1.136088 1.566019,2.017898 2.712755,2.334235 0.629612,0.173685 1.785932,0.150677 2.430329,-0.04836 z M 27.708008,35.790079 c 2.453206,-0.627381 4.319501,-2.509565 4.964946,-5.007213 0.245455,-0.949824 0.206411,-2.521044 -0.08724,-3.510702 -0.561698,-1.893032 -1.776314,-3.344626 -3.515386,-4.201256 -1.129012,-0.556127 -1.670596,-0.676691 -3.039755,-0.676691 -0.835697,0 -1.310165,0.04176 -1.712538,0.150747 -2.462361,0.666923 -4.302222,2.561717 -4.922727,5.069708 -0.209964,0.848642 -0.192697,2.355803 0.03716,3.243389 0.619649,2.392758 2.518641,4.308108 4.885629,4.927711 0.907309,0.237505 2.47029,0.239491 3.38991,0.0043 z M 27.183544,11.342745 c 0.729374,-0.189978 1.299985,-0.525962 1.885713,-1.110332 1.659545,-1.6556993 1.661583,-4.3407419 0.0046,-6.0042194 -0.86277,-0.8661298 -1.766212,-1.2284776 -3.067349,-1.2302362 -1.676865,-0.00227 -3.06429,0.8901213 -3.803303,2.4462728 -0.273244,0.5753741 -0.314263,0.7500235 -0.349882,1.4897083 -0.06592,1.3689029 0.27878,2.3480342 1.147085,3.2583615 1.042691,1.093153 2.677259,1.542687 4.183178,1.150445 z"
     id="path6" />
</svg>
