<?xml version="1.0" encoding="UTF-8" standalone="no"?>
<svg
   id="b"
   data-name="Livello 2"
   width="43.547001"
   height="49.224998"
   viewBox="0 0 43.547 49.225"
   version="1.1"
   xmlns="http://www.w3.org/2000/svg"
   xmlns:svg="http://www.w3.org/2000/svg">
  <defs
     id="defs4" />
  <g
     id="c"
     data-name="Livello 1">
    <g
       id="g4">
      <path
         d="m 42.047,7.305 c 0,3.206 -2.623,5.805 -5.859,5.805 -2.061,0 -3.873,-1.054 -4.917,-2.648 -0.595,-0.909 -0.942,-1.993 -0.942,-3.157 0,-3.206 2.623,-5.805 5.859,-5.805 3.236,0 5.859,2.599 5.859,5.805 z"
         fill="none"
         stroke="#000000"
         stroke-linecap="round"
         stroke-linejoin="round"
         stroke-width="3"
         id="path1" />
      <path
         d="m 13.217,24.444 c 0,0.96 -0.235,1.867 -0.653,2.665 -0.974,1.865 -2.939,3.14 -5.206,3.14 -3.236,0 -5.859,-2.599 -5.859,-5.805 0,-3.206 2.623,-5.805 5.859,-5.805 2.383,0 4.433,1.409 5.348,3.432 0.328,0.724 0.51,1.527 0.51,2.373 z"
         fill="none"
         stroke="#000000"
         stroke-linecap="round"
         stroke-linejoin="round"
         stroke-width="3"
         id="path2" />
      <path
         d="m 42.047,41.92 c 0,3.206 -2.623,5.805 -5.859,5.805 -3.236,0 -5.859,-2.599 -5.859,-5.805 0,-1.144 0.334,-2.21 0.911,-3.109 1.039,-1.62 2.866,-2.696 4.948,-2.696 3.236,0 5.859,2.599 5.859,5.805 z"
         fill="none"
         stroke="#000000"
         stroke-linecap="round"
         stroke-linejoin="round"
         stroke-width="3"
         id="path3" />
      <line
         x1="31.273001"
         y1="10.465"
         x2="12.728"
         y2="22.118999"
         fill="none"
         stroke="#000000"
         stroke-linecap="round"
         stroke-linejoin="round"
         stroke-width="3"
         id="line3" />
      <line
         x1="31.240999"
         y1="38.811001"
         x2="12.579"
         y2="27.080999"
         fill="none"
         stroke="#000000"
         stroke-linecap="round"
         stroke-linejoin="round"
         stroke-width="3"
         id="line4" />
    </g>
  </g>
  <path
     style="fill:#ffffff;stroke-width:0.0606427"
     d="m 35.58649,49.159409 c -2.192553,-0.170353 -4.272424,-1.395029 -5.498428,-3.237599 -1.210461,-1.819211 -1.531286,-3.959497 -0.911628,-6.081651 0.08265,-0.283059 0.13175,-0.522626 0.109107,-0.532372 -0.02264,-0.0097 -3.692175,-2.315248 -8.154515,-5.123338 l -8.113345,-5.105618 -0.417074,0.422245 c -1.55623,1.575527 -3.7997767,2.39966 -5.9252613,2.176558 -2.2337193,-0.234463 -4.1841159,-1.398427 -5.4098772,-3.228524 -1.89207759,-2.824927 -1.57113219,-6.517755 0.7817348,-8.994712 1.0487992,-1.104113 2.4965343,-1.882135 4.0293576,-2.165403 0.6307865,-0.11657 1.8114,-0.120347 2.4908896,-0.008 1.5684285,0.259395 3.0566855,1.061994 4.1641475,2.245676 0.26474,0.28296 0.49803,0.514473 0.518423,0.514473 0.02921,0 16.005749,-10.019883 16.072097,-10.0798138 0.0095,-0.00854 -0.05327,-0.2575539 -0.139394,-0.5533538 -0.625941,-2.1498137 -0.310377,-4.2777113 0.905338,-6.1048176 1.042139,-1.566238 2.7065,-2.69214176 4.613359,-3.12083504 1.312784,-0.29513559 3.089378,-0.10829381 4.413606,0.46417264 1.624372,0.7022191 3.101027,2.1727668 3.787657,3.7719933 0.848753,1.976823 0.804703,4.1164544 -0.124142,6.0299193 -1.619785,3.336838 -5.518308,4.941611 -9.012115,3.709714 -0.912257,-0.321657 -1.798808,-0.843333 -2.453826,-1.443911 -0.285868,-0.262108 -0.37292,-0.312128 -0.454105,-0.260928 -0.05524,0.03484 -3.750556,2.357159 -8.211809,5.160713 -4.461254,2.803553 -8.119037,5.105037 -8.128408,5.114408 -0.0094,0.0094 0.02645,0.300888 0.07959,0.647814 0.141106,0.921085 0.0522,2.388552 -0.183115,3.022397 -0.02509,0.06758 2.082643,1.420396 8.234715,5.285354 l 8.268431,5.194532 0.374181,-0.346656 c 0.391515,-0.362714 1.13031,-0.868942 1.645676,-1.127631 1.155712,-0.580111 2.680432,-0.855244 3.969649,-0.716317 3.760598,0.405246 6.595865,3.504864 6.595865,7.210841 0,1.434184 -0.3945,2.76574 -1.175387,3.967288 -0.458778,0.705921 -1.412423,1.661205 -2.112579,2.116209 -0.983028,0.638834 -2.239947,1.082472 -3.268017,1.153469 -0.273781,0.01891 -0.5659,0.04176 -0.649153,0.05079 -0.08325,0.009 -0.403494,-0.0032 -0.711648,-0.02712 z m 1.747721,-3.050588 c 2.088327,-0.566903 3.470796,-2.581272 3.208296,-4.674747 -0.132185,-1.054201 -0.503909,-1.802563 -1.277598,-2.572088 -0.441215,-0.438841 -0.619445,-0.568547 -1.095953,-0.797573 -0.778129,-0.373997 -1.342895,-0.489292 -2.197571,-0.448627 -1.657763,0.07888 -2.990602,0.943876 -3.740577,2.427598 -0.552302,1.092653 -0.551004,2.588383 0.0033,3.762626 0.571298,1.210318 1.815043,2.140113 3.202075,2.393797 0.396888,0.07259 1.488201,0.02028 1.898062,-0.09099 z M 8.3435821,28.664065 c 0.2396816,-0.05276 0.6932975,-0.219515 1.008036,-0.370564 0.4820187,-0.23133 0.6546659,-0.35705 1.0949169,-0.7973 0.434662,-0.434663 0.570176,-0.619487 0.804844,-1.09771 0.369109,-0.752198 0.464534,-1.150793 0.464534,-1.940396 0,-1.064384 -0.290563,-1.911288 -0.93877,-2.736236 -0.514471,-0.654747 -1.4523589,-1.250422 -2.3307872,-1.480338 -0.5396501,-0.141246 -1.6532582,-0.142212 -2.1797047,-0.0019 -0.9416733,0.250997 -1.9277612,0.910188 -2.4442209,1.633942 -0.6376218,0.893547 -0.8553776,1.642121 -0.8113484,2.789153 0.024299,0.633029 0.054652,0.807494 0.2153469,1.237808 0.5054367,1.353473 1.6724913,2.403295 3.0467046,2.740657 0.5692396,0.139746 1.4931583,0.149954 2.0704488,0.02288 z M 37.164122,11.529164 c 0.239682,-0.05276 0.691857,-0.218814 1.004834,-0.369006 0.476984,-0.228897 0.654297,-0.357866 1.095953,-0.797145 0.326685,-0.324927 0.609116,-0.673617 0.743255,-0.9176258 C 40.968029,7.699328 40.688236,5.6519715 39.300043,4.2637779 36.874983,1.8387182 32.65829,3.023757 31.915295,6.3391511 c -0.528945,2.3602648 0.95471,4.6804749 3.323265,5.1970789 0.505826,0.110325 1.407306,0.107016 1.925562,-0.0071 z"
     id="path4" />
</svg>
