<?xml version="1.0" encoding="UTF-8" standalone="no"?>
<svg
   id="b"
   data-name="Livello 2"
   width="78.588997"
   height="49.224998"
   viewBox="0 0 78.589 49.225"
   version="1.1"
   xmlns="http://www.w3.org/2000/svg"
   xmlns:svg="http://www.w3.org/2000/svg">
  <defs
     id="defs5" />
  <g
     id="c"
     data-name="Livello 1">
    <g
       id="g5">
      <path
         d="m 30.484,20.268 c 0,1.08 -0.291,2.09 -0.798,2.952 -0.978,1.668 -2.76,2.784 -4.797,2.784 -1.368,0 -2.62,-0.503 -3.592,-1.339 -1.225,-1.051 -2.003,-2.632 -2.003,-4.398 0,-3.168 2.504,-5.736 5.595,-5.736 3.091,0 5.595,2.568 5.595,5.736 z"
         fill="none"
         stroke="#000000"
         stroke-linecap="round"
         stroke-linejoin="round"
         stroke-width="3"
         id="path1" />
      <path
         d="m 12.689,41.988 c 0,3.168 -2.505,5.736 -5.595,5.736 -3.09,0 -5.595,-2.568 -5.595,-5.736 0,-3.168 2.504,-5.736 5.595,-5.736 1.376,0 2.637,0.51 3.612,1.357 1.213,1.051 1.983,2.623 1.983,4.379 z"
         fill="none"
         stroke="#000000"
         stroke-linecap="round"
         stroke-linejoin="round"
         stroke-width="3"
         id="path2" />
      <line
         x1="21.297001"
         y1="24.666"
         x2="10.706"
         y2="37.609001"
         fill="none"
         stroke="#000000"
         stroke-linecap="round"
         stroke-linejoin="round"
         stroke-width="3"
         id="line2" />
      <path
         d="m 77.089,7.235 c 0,3.168 -2.504,5.736 -5.594,5.736 -1.372,0 -2.627,-0.506 -3.6,-1.345 -1.219,-1.052 -1.994,-2.628 -1.994,-4.391 0,-3.167 2.504,-5.735 5.595,-5.735 3.091,0 5.594,2.568 5.594,5.735 z"
         fill="none"
         stroke="#000000"
         stroke-linecap="round"
         stroke-linejoin="round"
         stroke-width="3"
         id="path3" />
      <path
         d="m 54.21,35.328 c 0,1.118 -0.313,2.162 -0.852,3.044 -0.989,1.618 -2.743,2.692 -4.742,2.692 -3.09,0 -5.595,-2.568 -5.595,-5.736 0,-1.113 0.31,-2.152 0.846,-3.032 0.988,-1.624 2.745,-2.704 4.749,-2.704 1.337,0 2.565,0.481 3.527,1.284 1.261,1.051 2.067,2.655 2.067,4.452 z"
         fill="none"
         stroke="#000000"
         stroke-linecap="round"
         stroke-linejoin="round"
         stroke-width="3"
         id="path4" />
      <line
         x1="67.894997"
         y1="11.626"
         x2="52.141998"
         y2="30.875999"
         fill="none"
         stroke="#000000"
         stroke-linecap="round"
         stroke-linejoin="round"
         stroke-width="3"
         id="line4" />
      <line
         x1="43.867001"
         y1="32.294998"
         x2="29.686001"
         y2="23.219999"
         fill="none"
         stroke="#000000"
         stroke-linecap="round"
         stroke-linejoin="round"
         stroke-width="3"
         id="line5" />
    </g>
  </g>
  <path
     style="fill:#ffffff;stroke-width:0.0606427"
     d="M 6.5352955,49.156068 C 4.0845147,48.983423 1.7720051,47.363598 0.72645714,45.087198 -0.56397408,42.277632 0.00145526,39.012079 2.148684,36.873338 4.1969196,34.8332 7.138777,34.238701 9.7681148,35.333582 c 0.2887142,0.120223 0.5658052,0.229381 0.6157562,0.242572 0.06034,0.01593 1.55403,-1.765434 4.450231,-5.307319 2.397675,-2.932217 4.392782,-5.377964 4.433571,-5.434993 0.06244,-0.0873 0.03519,-0.160835 -0.172421,-0.465253 -1.26043,-1.848169 -1.601453,-4.277813 -0.898254,-6.399666 0.673867,-2.033344 2.320452,-3.749345 4.285994,-4.466679 3.733543,-1.362575 7.809505,0.641325 9.092265,4.470107 0.415628,1.240569 0.47347,2.799809 0.150558,4.058566 -0.08853,0.345085 -0.138139,0.648897 -0.110252,0.675139 0.02789,0.02624 2.717887,1.753619 5.977777,3.838617 l 5.927075,3.790906 0.309303,-0.291312 c 1.161983,-1.094396 2.654685,-1.758741 4.233871,-1.884336 1.139625,-0.09064 2.374384,0.117358 3.336999,0.562114 l 0.445934,0.206034 7.029636,-8.588112 c 3.866298,-4.723461 7.029636,-8.613025 7.029636,-8.643475 0,-0.03045 -0.121821,-0.237036 -0.270719,-0.459078 -1.664786,-2.4826269 -1.565682,-5.9343878 0.239429,-8.3395623 1.365651,-1.8196252 3.383785,-2.84356787 5.604517,-2.84356787 3.12368,0 5.790918,1.98947227 6.745532,5.03144217 1.053718,3.3577756 -0.507356,7.039492 -3.658344,8.628023 -0.930116,0.468907 -1.945519,0.701945 -3.063193,0.703009 -1.074074,10e-4 -2.043594,-0.205658 -2.891566,-0.616423 -0.201175,-0.09745 -0.387455,-0.17718 -0.413956,-0.17718 -0.0265,0 -3.172839,3.821294 -6.991864,8.491766 -3.81902,4.670471 -6.979069,8.533393 -7.022329,8.584269 -0.06642,0.07811 -0.03742,0.151756 0.186465,0.473465 0.564207,0.810733 0.991293,1.825098 1.189297,2.824684 0.05153,0.260159 0.08274,0.797941 0.08082,1.392589 -0.0027,0.83864 -0.02465,1.055059 -0.163324,1.611289 -0.655511,2.629253 -2.616371,4.659941 -5.114645,5.296783 -3.583834,0.913565 -7.234267,-1.110838 -8.427993,-4.673873 -0.4625,-1.380471 -0.488465,-3.039417 -0.06868,-4.388187 0.06623,-0.212785 0.100861,-0.405121 0.07697,-0.427416 -0.02389,-0.02229 -2.709733,-1.746603 -5.968532,-3.831799 l -5.925091,-3.791267 -0.428356,0.40409 c -0.519405,0.48998 -1.361052,1.044023 -1.978284,1.302274 -1.843832,0.771462 -3.709333,0.766078 -5.538857,-0.01599 -0.29789,-0.127338 -0.546082,-0.225495 -0.551536,-0.218126 -0.0055,0.0074 -1.971919,2.412539 -4.369921,5.344822 -2.398002,2.932283 -4.393045,5.384451 -4.43343,5.449261 -0.06332,0.101626 -0.0355,0.174365 0.20224,0.528671 1.191268,1.775384 1.51691,4.183541 0.845066,6.249377 -0.198834,0.611392 -0.679334,1.558901 -1.037907,2.046672 -1.465758,1.993888 -3.7551185,3.053356 -6.2223075,2.879554 z m 1.6687704,-3.053266 c 1.136498,-0.342868 2.0662911,-1.14456 2.5738331,-2.219226 0.315603,-0.668258 0.417051,-1.128969 0.417051,-1.893986 0,-0.811377 -0.104189,-1.246378 -0.483511,-2.018727 -0.527607,-1.074272 -1.619296,-1.915984 -2.8100094,-2.166567 -0.5392892,-0.113492 -1.425436,-0.08078 -1.9375153,0.07152 -1.4007551,0.416609 -2.5231167,1.624449 -2.8767674,3.095861 -0.156085,0.649413 -0.1019839,1.825995 0.1117006,2.429245 0.2427582,0.685329 0.5014263,1.086761 1.065255,1.653192 0.422994,0.424947 0.6144521,0.567242 1.0337909,0.768336 0.6978931,0.334673 1.2110167,0.440939 1.967789,0.407523 0.3330105,-0.0147 0.7552829,-0.07193 0.9383835,-0.127171 z M 49.42433,39.503145 c 1.22288,-0.24847 2.304633,-1.094274 2.860082,-2.236249 0.308215,-0.633673 0.431944,-1.188669 0.431944,-1.937515 0,-0.749865 -0.12395,-1.304805 -0.432756,-1.937515 -1.246275,-2.553483 -4.547951,-3.11695 -6.537945,-1.115774 -0.475588,0.478261 -0.879204,1.16378 -1.080507,1.835183 -0.187879,0.626627 -0.211419,1.670233 -0.05138,2.277685 0.584727,2.219349 2.646287,3.553931 4.810557,3.114185 z M 26.176735,24.320422 c 0.64002,-0.221184 1.065828,-0.493158 1.585122,-1.012458 0.359177,-0.359183 0.518069,-0.579273 0.743098,-1.029305 0.383994,-0.767946 0.489057,-1.204453 0.487532,-2.025569 -0.002,-1.066223 -0.333555,-2.01553 -0.960551,-2.750075 -0.850788,-0.996724 -1.879437,-1.480728 -3.146974,-1.480728 -1.16734,0 -1.996208,0.349484 -2.848587,1.201078 -0.443875,0.443466 -0.59569,0.64491 -0.800309,1.061936 -0.332927,0.678521 -0.45171,1.207642 -0.448548,1.998062 0.0083,2.067904 1.331852,3.738788 3.310329,4.178947 0.133204,0.02964 0.555522,0.04437 0.938484,0.03274 0.549222,-0.01668 0.7901,-0.05356 1.140404,-0.174624 z M 72.311232,11.409173 c 0.256679,-0.05215 0.698281,-0.20539 0.98134,-0.340528 0.694387,-0.331512 1.495737,-1.1221891 1.832828,-1.8084129 0.626429,-1.2752507 0.6314,-2.7956002 0.01314,-4.022886 -0.689029,-1.3677856 -2.155927,-2.2736664 -3.674976,-2.2694744 -1.480352,0.00409 -2.928264,0.9125324 -3.584688,2.2491047 -0.379178,0.7720526 -0.483367,1.2071275 -0.483367,2.0184324 0,0.8114943 0.104189,1.2463751 0.483749,2.0192052 0.224951,0.4580177 0.368327,0.6555316 0.751138,1.03476 1.010269,1.000809 2.314162,1.397485 3.680831,1.119799 z"
     id="path5" />
</svg>
