<?xml version="1.0" encoding="UTF-8"?>
<svg id="b" data-name="Livello 2" xmlns="http://www.w3.org/2000/svg" width="78.589" height="49.225" viewBox="0 0 78.589 49.225">
  <g id="c" data-name="Livello 1">
    <g>
      <path d="M30.484,20.268c0,1.08-.291,2.09-.798,2.952-.978,1.668-2.76,2.784-4.797,2.784-1.368,0-2.62-.503-3.592-1.339-1.225-1.051-2.003-2.632-2.003-4.398,0-3.168,2.504-5.736,5.595-5.736s5.595,2.568,5.595,5.736Z" fill="none" stroke="#000" stroke-linecap="round" stroke-linejoin="round" stroke-width="3"/>
      <path d="M12.689,41.988c0,3.168-2.505,5.736-5.595,5.736s-5.595-2.568-5.595-5.736,2.504-5.736,5.595-5.736c1.376,0,2.637.51,3.612,1.357,1.213,1.051,1.983,2.623,1.983,4.379Z" fill="none" stroke="#000" stroke-linecap="round" stroke-linejoin="round" stroke-width="3"/>
      <line x1="21.297" y1="24.666" x2="10.706" y2="37.609" fill="none" stroke="#000" stroke-linecap="round" stroke-linejoin="round" stroke-width="3"/>
      <path d="M77.089,7.235c0,3.168-2.504,5.736-5.594,5.736-1.372,0-2.627-.506-3.6-1.345-1.219-1.052-1.994-2.628-1.994-4.391,0-3.167,2.504-5.735,5.595-5.735s5.594,2.568,5.594,5.735Z" fill="none" stroke="#000" stroke-linecap="round" stroke-linejoin="round" stroke-width="3"/>
      <path d="M54.21,35.328c0,1.118-.313,2.162-.852,3.044-.989,1.618-2.743,2.692-4.742,2.692-3.09,0-5.595-2.568-5.595-5.736,0-1.113.31-2.152.846-3.032.988-1.624,2.745-2.704,4.749-2.704,1.337,0,2.565.481,3.527,1.284,1.261,1.051,2.067,2.655,2.067,4.452Z" fill="none" stroke="#000" stroke-linecap="round" stroke-linejoin="round" stroke-width="3"/>
      <line x1="67.895" y1="11.626" x2="52.142" y2="30.876" fill="none" stroke="#000" stroke-linecap="round" stroke-linejoin="round" stroke-width="3"/>
      <line x1="43.867" y1="32.295" x2="29.686" y2="23.22" fill="none" stroke="#000" stroke-linecap="round" stroke-linejoin="round" stroke-width="3"/>
    </g>
  </g>
</svg>