<?xml version="1.0" encoding="UTF-8" standalone="no"?>
<svg
   width="16"
   height="16"
   viewBox="0 0 16 16"
   fill="none"
   version="1.1"
   id="svg5"
   xmlns="http://www.w3.org/2000/svg"
   xmlns:svg="http://www.w3.org/2000/svg">
  <defs
     id="defs5" />
  <path
     fill-rule="evenodd"
     clip-rule="evenodd"
     d="m 8,15.8966 c 4.4183,0 8,-3.5355 8,-7.89669 0,-4.36119 -3.5817,-7.896639 -8,-7.896639 -4.41827,0 -8,3.535449 -8,7.896639 0,4.36119 3.58173,7.89669 8,7.89669 z"
     fill="#3c4043"
     id="path1" />
  <path
     fill-rule="evenodd"
     clip-rule="evenodd"
     d="m 6.53711,3.78271 c 0,-0.31875 0.26231,-0.57714 0.58591,-0.57714 2.19322,0 3.97118,1.75133 3.97118,3.91172 0,0.31875 -0.2623,0.57715 -0.5859,0.57715 -0.3236,0 -0.58593,-0.2584 -0.58593,-0.57715 0,-1.52289 -1.25332,-2.75743 -2.79935,-2.75743 -0.3236,0 -0.58591,-0.25841 -0.58591,-0.57715 z"
     fill="#ffffff"
     id="path2" />
  <path
     fill-rule="evenodd"
     clip-rule="evenodd"
     d="m 12.271,6.54004 c 0.3236,0 0.5859,0.25839 0.5859,0.57714 0,2.16038 -1.778,3.91172 -3.97118,3.91172 -0.32359,0 -0.58592,-0.2584 -0.58592,-0.5771 0,-0.3188 0.26233,-0.57718 0.58592,-0.57718 1.54608,0 2.79938,-1.23455 2.79938,-2.75744 0,-0.31875 0.2623,-0.57714 0.5859,-0.57714 z"
     fill="#ffffff"
     id="path3" />
  <path
     fill-rule="evenodd"
     clip-rule="evenodd"
     d="m 9.47213,12.2171 c 0,0.3188 -0.26233,0.5772 -0.58592,0.5772 -2.19321,0 -3.97117,-1.7514 -3.97117,-3.91173 0,-0.31876 0.26233,-0.57715 0.58591,-0.57715 0.32359,0 0.58592,0.25839 0.58592,0.57715 0,1.52293 1.25331,2.75743 2.79934,2.75743 0.32359,0 0.58592,0.2584 0.58592,0.5771 z"
     fill="#ffffff"
     id="path4" />
  <path
     fill-rule="evenodd"
     clip-rule="evenodd"
     d="m 3.72848,9.45982 c -0.32359,0 -0.5859,-0.25839 -0.5859,-0.57715 -2e-5,-2.16037 1.77794,-3.91172 3.97117,-3.91172 0.32359,0 0.58591,0.2584 0.58591,0.57714 0,0.31876 -0.26232,0.57715 -0.58591,0.57715 -1.54604,0 -2.79936,1.23455 -2.79936,2.75743 0,0.31876 -0.26231,0.57715 -0.58591,0.57715 z"
     fill="#ffffff"
     id="path5" />
  <path
     style="fill:#ffffff;stroke-width:0.0197112"
     d="M 3.5499588,9.4205198 C 3.3763123,9.3555517 3.2767923,9.2621863 3.1994542,9.0916912 3.0932566,8.8575744 3.1969295,8.0530005 3.4015619,7.5231945 3.5375776,7.1710414 3.7531187,6.7924238 3.9928032,6.4846248 4.1143902,6.3284848 4.4232221,6.0153042 4.5898453,5.8791757 5.1884062,5.390161 5.9427867,5.0813482 6.7376325,4.9999589 7.1730202,4.9553768 7.3223278,4.9811921 7.4873828,5.1295906 7.6141184,5.2435368 7.6679451,5.3474792 7.6803692,5.502258 7.6933825,5.6643745 7.6478851,5.7968246 7.5367075,5.9204809 7.4073409,6.0643676 7.3036601,6.1014185 6.9723448,6.1221586 5.9419657,6.1866596 5.0823067,6.7326286 4.6158694,7.618755 4.4322335,7.9676219 4.3400984,8.3184037 4.3029997,8.8099285 4.2875314,9.01487 4.2770151,9.0637018 4.2295781,9.1508593 4.1728046,9.2551709 4.0870943,9.3353277 3.9655597,9.3977708 3.8762923,9.4436355 3.6455069,9.456268 3.5499588,9.4205198 Z"
     id="path6" />
  <path
     style="fill:#ffffff;stroke-width:0.0197112"
     d="M 10.271052,7.6281374 C 10.146675,7.5702233 10.046525,7.4720697 9.9875893,7.3503252 9.9514464,7.2756639 9.9393994,7.2059019 9.9266342,6.9973463 9.917884,6.8543866 9.8964151,6.6672565 9.8789255,6.5815018 9.64778,5.4481525 8.7384031,4.5783624 7.5867159,4.3890758 7.5163592,4.3775123 7.348013,4.3606397 7.2126133,4.3515813 7.0080478,4.3378956 6.949828,4.3266292 6.8682098,4.2849342 6.581427,4.1384297 6.47032,3.8106849 6.6128957,3.5318051 6.6818709,3.3968886 6.8152663,3.284682 6.9550051,3.244037 7.0692768,3.210799 7.4226389,3.217982 7.7041261,3.259263 c 1.0121803,0.1484414 1.939682,0.6880794 2.5618619,1.49054 0.476212,0.6141968 0.738058,1.2922618 0.805403,2.0856351 0.03183,0.3749304 0.0058,0.4931964 -0.144781,0.6571869 -0.116035,0.1263932 -0.243985,0.182267 -0.417385,0.182267 -0.103727,0 -0.162568,-0.011551 -0.238173,-0.046755 z"
     id="path7" />
  <path
     style="fill:#ffffff;stroke-width:0.0197112"
     d="M 8.7019233,10.986784 C 8.587943,10.948803 8.4278892,10.81047 8.3682599,10.698402 8.3337657,10.633573 8.3251485,10.584176 8.3249594,10.450185 8.3247531,10.304023 8.3313449,10.271721 8.3771688,10.194342 8.5121499,9.9664092 8.6501805,9.8990394 9.0267459,9.8772973 9.7589817,9.8350197 10.401878,9.5492489 10.900191,9.0445416 11.386292,8.5522021 11.651614,7.9384893 11.692096,7.2127921 11.710077,6.8904628 11.789459,6.737203 11.998372,6.62148 c 0.09331,-0.051686 0.123505,-0.058108 0.272231,-0.057898 0.134036,1.892e-4 0.183382,0.0088 0.248294,0.04334 0.131593,0.070015 0.198398,0.1376231 0.262249,0.2653991 0.05522,0.1105065 0.06018,0.1368506 0.06018,0.319531 0,0.7950032 -0.305782,1.6466122 -0.834294,2.3235236 -0.122912,0.1574242 -0.421035,0.4587123 -0.59669,0.6030243 -0.599612,0.49262 -1.372739,0.808281 -2.1606515,0.882175 -0.2928501,0.02747 -0.4346765,0.02389 -0.5477692,-0.01379 z"
     id="path8" />
  <path
     style="fill:#ffffff;stroke-width:0.0197112"
     d="M 8.5904059,12.772272 C 8.0613597,12.731056 7.6089785,12.606805 7.1242312,12.369574 6.0722769,11.854758 5.3106384,10.913957 5.0366263,9.7908979 4.9330937,9.3665616 4.9000366,8.8719921 4.9628791,8.6875597 5.0071915,8.55751 5.162676,8.4020254 5.2927258,8.357713 5.5172337,8.2812155 5.7458931,8.331272 5.9067526,8.4921315 6.0327705,8.6181494 6.0608442,8.7072213 6.0896954,9.0725707 6.1451571,9.774894 6.4017342,10.332202 6.8963479,10.82469 c 0.3463817,0.344894 0.727389,0.573024 1.1803458,0.70674 0.2199983,0.06494 0.5752742,0.119247 0.7801917,0.119247 0.2431219,0 0.4373143,0.11479 0.5392341,0.318749 0.1807645,0.361742 -0.067022,0.77907 -0.4809903,0.810095 -0.064945,0.0049 -0.2110702,0.0016 -0.3247233,-0.0072 z"
     id="path9" />
  <path
     style="fill:#000000;stroke-width:0.0197112"
     d="M 8.5904059,12.772272 C 6.7095514,12.625741 5.2025001,11.214383 4.9592492,9.3716858 4.9197207,9.0722451 4.9211113,8.8101413 4.9628791,8.6875597 5.0071915,8.55751 5.162676,8.4020254 5.2927258,8.357713 5.499115,8.2873891 5.7277483,8.3287244 5.8816389,8.4641843 6.0221684,8.5878834 6.0530798,8.6744552 6.08382,9.0304232 6.151001,9.808372 6.4281926,10.396368 6.9619525,10.893175 c 0.4902986,0.456354 1.1112795,0.715834 1.7951775,0.750124 0.1193718,0.006 0.258502,0.02389 0.3091779,0.03979 0.3825582,0.120007 0.5155296,0.598646 0.2500875,0.900204 -0.152962,0.173774 -0.3299247,0.21984 -0.7259895,0.188983 z"
     id="path16" />
  <path
     style="fill:#000000;stroke-width:0.0197112"
     d="M 3.5499588,9.4205198 C 3.3763123,9.3555517 3.2767923,9.2621863 3.1994542,9.0916912 3.0927293,8.8564119 3.1969432,8.0530019 3.4035967,7.5179078 3.9439849,6.1186648 5.2194281,5.1554175 6.7376325,4.9999589 7.1730202,4.9553768 7.3223278,4.9811921 7.4873828,5.1295906 7.6141184,5.2435368 7.6679451,5.3474792 7.6803692,5.502258 7.6933825,5.6643745 7.6478851,5.7968246 7.5367075,5.9204809 7.4092454,6.0622493 7.3021438,6.1014926 6.987642,6.1216644 6.6834651,6.141174 6.4682476,6.180049 6.2258025,6.2592764 5.3866936,6.5334843 4.7242673,7.1871589 4.4489341,8.0126691 4.3715762,8.2446054 4.3273206,8.4880165 4.3021616,8.8199356 4.2873946,9.0147542 4.2763893,9.0648518 4.2293889,9.1512069 4.1301746,9.3334963 3.9745696,9.4290446 3.7589176,9.440097 3.6742366,9.444437 3.5937232,9.436897 3.5499588,9.4205198 Z"
     id="path17" />
  <path
     style="fill:#000000;stroke-width:0.0197112"
     d="M 10.271052,7.6281374 C 10.215825,7.602422 10.137208,7.5479496 10.096345,7.5070876 9.976887,7.387629 9.9445172,7.2895156 9.9262843,6.9916294 9.8634989,5.9658501 9.309032,5.1170038 8.3981914,4.6522367 8.0615929,4.4804834 7.6796563,4.3830663 7.2225237,4.3523698 7.0081002,4.3379713 6.9506249,4.3270358 6.8682802,4.2849698 6.3905948,4.0409433 6.4680037,3.373388 6.9897636,3.237326 7.2073503,3.1805847 7.822761,3.251434 8.27228,3.384976 c 1.1141174,0.330979 2.054841,1.1692818 2.503031,2.2305159 0.167341,0.3962336 0.256212,0.7605957 0.295991,1.2135364 0.0227,0.2585222 0.01437,0.3969795 -0.03033,0.5039596 -0.04166,0.099696 -0.18682,0.2450029 -0.295588,0.295878 -0.13743,0.064282 -0.33537,0.063978 -0.474335,-7.285e-4 z"
     id="path18" />
  <path
     style="fill:#000000;stroke-width:0.0197112"
     d="m 8.7057369,10.990056 c -0.1101337,-0.03391 -0.277122,-0.178222 -0.337477,-0.291654 -0.034494,-0.06483 -0.043111,-0.114226 -0.043301,-0.248217 -2.063e-4,-0.146162 0.00639,-0.178464 0.052209,-0.255843 C 8.5104618,9.9692597 8.651303,9.8991311 9.0135301,9.8774811 9.3137739,9.8595359 9.5290633,9.8208297 9.7741976,9.7407236 10.502769,9.5026375 11.112998,8.9660601 11.432322,8.2827263 c 0.154333,-0.330264 0.235057,-0.661405 0.258426,-1.0600941 0.01953,-0.3332085 0.09692,-0.4844349 0.307624,-0.6011522 0.09331,-0.051686 0.123505,-0.058108 0.272231,-0.057898 0.134036,1.892e-4 0.183382,0.0088 0.248294,0.04334 0.131593,0.070015 0.198398,0.1376231 0.262249,0.2653991 0.05522,0.1105065 0.06018,0.1368506 0.06018,0.319531 0,0.7962656 -0.304943,1.6455374 -0.834294,2.3235236 -0.122912,0.1574242 -0.421035,0.4587123 -0.59669,0.6030243 -0.602422,0.494929 -1.366944,0.806684 -2.1634776,0.882218 -0.2809656,0.02664 -0.4297176,0.02374 -0.5411295,-0.01056 z"
     id="path19" />
  <path
     style="fill:#ffffff;stroke-width:0.0197112"
     d="M 7.4194342,15.869259 C 5.5074547,15.714825 3.7565636,14.932986 2.4234773,13.638376 1.0746518,12.328481 0.28721346,10.737912 0.05592547,8.8560886 0.00670476,8.4556153 0.00670476,7.5443847 0.05592547,7.1439114 0.24613211,5.5963377 0.78857541,4.3021369 1.7592687,3.0799508 2.0095069,2.7648795 2.6326825,2.1437595 2.9618696,1.8813169 3.238155,1.6610498 3.7207766,1.3319176 3.9986885,1.1742401 4.9703646,0.62294528 6.0400098,0.27813749 7.1635916,0.15401105 c 0.3139706,-0.0346856 1.3588462,-0.0346856 1.6728168,0 C 11.102832,0.40439169 13.106556,1.5467613 14.457092,3.3584943 15.151647,4.2902331 15.647247,5.4326404 15.86023,6.5928659 15.956,7.1145696 15.979147,7.3884757 15.979147,8 c 0,0.4276005 -0.0088,0.6422884 -0.03507,0.8560886 -0.190153,1.5471374 -0.732924,2.8421194 -1.703344,4.0639604 -0.250238,0.315071 -0.873414,0.936191 -1.202601,1.198634 -1.007586,0.803293 -2.179608,1.351993 -3.4297543,1.605692 -0.5377395,0.109126 -0.8696018,0.141535 -1.5099747,0.14746 -0.3193112,0.003 -0.6248463,0.0018 -0.6789668,-0.0026 z m 1.564702,-3.077155 c 0.1385454,-0.02628 0.2658214,-0.09212 0.3388495,-0.17529 C 9.5269192,12.384547 9.528527,12.05453 9.3268184,11.830181 9.1957483,11.6844 9.1014636,11.648505 8.797048,11.628494 8.6563346,11.619244 8.46625,11.59767 8.3746377,11.580553 7.3735811,11.393508 6.55729,10.688321 6.2383254,9.7350087 6.1604883,9.5023717 6.1190731,9.2751976 6.0940607,8.943678 6.0687376,8.6080394 5.9958034,8.4769586 5.7722059,8.3652257 5.6692538,8.3137799 5.6298263,8.3050431 5.500615,8.3050431 c -0.244686,0 -0.4240177,0.1078254 -0.5362558,0.322431 -0.086702,0.1657801 -0.060808,0.7103619 0.056724,1.1929441 0.1363535,0.5598638 0.4173467,1.1059348 0.8112604,1.5765728 0.6784925,0.810645 1.7024994,1.324643 2.7777427,1.394281 0.1244772,0.0081 0.2361836,0.01598 0.2482364,0.0176 0.012053,0.0016 0.068669,-0.0059 0.1258137,-0.01676 z m 0.2753964,-1.772611 c 0.9632214,-0.08922 1.8645954,-0.524206 2.5293534,-1.2206268 0.489625,-0.512946 0.829321,-1.1469555 0.980863,-1.8306855 0.104006,-0.4692558 0.120547,-0.9522433 0.038,-1.1096321 C 12.708596,6.6694898 12.521717,6.5496268 12.306688,6.53717 12.125972,6.5267007 12.002806,6.5707172 11.867957,6.6939611 11.727542,6.8222927 11.68985,6.9242114 11.672441,7.2226322 11.647778,7.645405 11.557279,7.9833181 11.370204,8.35115 10.992901,9.0930135 10.287772,9.6281911 9.4563346,9.8037353 c -0.1028291,0.021711 -0.307323,0.046592 -0.4544311,0.055292 -0.2998322,0.017732 -0.3930311,0.047012 -0.5227952,0.1642457 -0.161795,0.146172 -0.2268062,0.405674 -0.1554509,0.620505 0.03682,0.110854 0.1613673,0.263804 0.2542417,0.312219 0.1668657,0.08699 0.2970675,0.09912 0.6816335,0.0635 z M 3.9259513,9.4349048 C 4.0061867,9.4110774 4.0578112,9.377072 4.1428542,9.2920289 4.2799569,9.1549262 4.311665,9.0656813 4.3287935,8.7686874 4.3877091,7.7471429 4.9517093,6.8886908 5.8649988,6.4304636 6.2148572,6.254928 6.5548662,6.168172 6.9980965,6.1413444 7.3834452,6.1180202 7.5343663,6.0379241 7.6488189,5.7959969 7.7859147,5.5062063 7.6678896,5.1682434 7.3804861,5.02763 7.3193576,4.9977226 7.2245693,4.9710717 7.1577913,4.9650165 7.0204898,4.9525664 6.592604,4.9876166 6.3735669,5.0292562 4.8038585,5.3276619 3.5679378,6.5082399 3.2302506,8.0318193 3.1253282,8.5052093 3.1094916,8.9863976 3.1937309,9.1414514 3.3409813,9.4124853 3.6220843,9.5251436 3.9259513,9.4349048 Z M 10.722087,7.6636255 C 10.912995,7.5985767 11.066943,7.4022685 11.099492,7.1823738 11.118337,7.0550613 11.07583,6.5940007 11.020767,6.328466 10.904106,5.7658897 10.644983,5.2034844 10.285709,4.7330873 10.150543,4.5561145 9.822459,4.2247199 9.6334563,4.0742526 8.9466556,3.5274828 8.0946131,3.2176401 7.2412641,3.2043395 7.0132328,3.2007852 6.9756922,3.2051188 6.883862,3.2455972 6.7673208,3.2969681 6.6218072,3.4411428 6.5714232,3.5551614 c -0.050128,0.113439 -0.048033,0.3470758 0.00413,0.4605987 0.05954,0.1295778 0.1523676,0.2261286 0.2751771,0.2862138 0.092075,0.045048 0.1463363,0.055151 0.3766969,0.070136 0.7658647,0.049821 1.3629274,0.311695 1.8760778,0.8228554 0.4974258,0.4954964 0.7585645,1.0833637 0.8040555,1.8100637 0.014389,0.2298574 0.024308,0.284284 0.067258,0.3690409 0.060379,0.1191521 0.2013915,0.2485929 0.3144665,0.2886596 0.110095,0.039011 0.319668,0.039445 0.432802,8.96e-4 z"
     id="path20" />
</svg>
