<?xml version="1.0" encoding="UTF-8" standalone="no"?>
<svg
   width="16"
   height="16"
   viewBox="0 0 16 16"
   fill="none"
   version="1.1"
   id="svg1"
   xmlns="http://www.w3.org/2000/svg"
   xmlns:svg="http://www.w3.org/2000/svg">
  <defs
     id="defs1" />
  <path
     d="m 8,0 c 4.418,0 8,3.582 8,8 0,4.418 -3.582,8 -8,8 C 3.582,16 0,12.418 0,8 0,3.582 3.582,0 8,0 Z m 2.6667,4.852 V 3 H 9.14267 c -1.4,0 -2.28534,1.06667 -2.28534,2.59267 V 6.704 h -1.524 v 1.85133 h 1.524 V 13 H 8.762 V 8.55533 h 1.524 L 10.6667,6.704 H 8.762 V 5.96267 c 0,-0.74 0.38133,-1.11067 1.14267,-1.11067 z"
     fill="#3c4043"
     id="path1" />
  <path
     style="fill:#ffffff;stroke-width:0.0197112"
     d="M 7.6457565,15.979132 C 4.5250151,15.846284 1.7554586,13.882039 0.58536344,10.97171 -0.26324946,8.8609899 -0.16744341,6.4790829 0.8478672,4.4454036 1.9958119,2.1460566 4.1485209,0.55000037 6.6818895,0.11995691 c 0.813306,-0.13806001 1.822915,-0.13806001 2.636221,0 1.6021475,0.27196712 3.0469285,1.00064079 4.2261585,2.13145839 1.197793,1.148618 2.014832,2.6731198 2.316203,4.3217704 0.09309,0.5092495 0.118284,0.8131596 0.118284,1.4268143 0,0.6147066 -0.02542,0.9204534 -0.11862,1.4268143 -0.397943,2.1620187 -1.652508,4.0522377 -3.491132,5.2599937 -1.157689,0.760463 -2.6046204,1.23525 -3.9144962,1.284478 -0.1471502,0.0055 -0.3162544,0.01267 -0.375787,0.01586 -0.059533,0.0032 -0.2543666,-4.14e-4 -0.4329643,-0.008 z M 8.7675277,10.784748 V 8.5608856 H 9.5314684 10.295409 L 10.477766,7.6703567 C 10.578063,7.1805658 10.66477,6.7599016 10.670449,6.7355474 l 0.01032,-0.044281 H 9.7219783 8.7631827 l 0.0094,-0.496925 C 8.7826537,5.6620389 8.7971456,5.5650938 8.8976669,5.3575835 8.9981581,5.1501357 9.2095366,4.9893101 9.4870937,4.9091233 9.5802982,4.8821963 9.7124296,4.873538 10.140221,4.8663248 l 0.536286,-0.00904 V 3.9243359 2.9913899 L 9.8154982,2.991506 C 8.8778273,2.9916324 8.7202499,3.0039081 8.4132023,3.1007498 7.643347,3.3435594 7.1042812,3.9843395 6.919434,4.8763723 6.8635045,5.1462758 6.8395113,5.5313815 6.8391602,6.1648216 L 6.8388684,6.6912669 H 6.0811808 5.3234932 V 7.6260763 8.5608856 H 6.0811808 6.8388684 V 10.784748 13.00861 H 7.803198 8.7675277 Z"
     id="path2" />
  <path
     style="fill:#000000;stroke-width:0.0197112"
     d="M 6.8585486,10.765068 V 8.5412054 H 6.100861 5.3431734 V 7.6260763 6.7109471 H 6.0982381 6.8533027 L 6.8643799,5.9778598 C 6.8759584,5.2116027 6.8855705,5.0997493 6.9685847,4.7652578 7.0867937,4.2889546 7.270213,3.9576988 7.596556,3.6311397 7.8397123,3.3878223 8.0268619,3.2636072 8.3101217,3.1575309 8.6564416,3.0278397 8.6819991,3.0252762 9.7170972,3.0164055 l 0.9397298,-0.00805 V 3.9248403 4.8413284 H 10.20676 c -0.512334,0 -0.7183154,0.026243 -0.9185264,0.1170225 C 9.130227,5.0299946 8.968604,5.1805977 8.8885617,5.3307723 8.7815976,5.5314574 8.7640466,5.6447846 8.7532961,6.204182 l -0.00974,0.5067651 H 9.701517 c 0.903097,0 0.957379,0.00197 0.947792,0.03444 -0.01154,0.039095 -0.366407,1.7675652 -0.366407,1.7846935 0,0.00612 -0.3453877,0.011124 -0.7675279,0.011124 H 8.7478475 V 10.765068 12.98893 H 7.803198 6.8585486 Z"
     id="path3" />
</svg>
