<?xml version="1.0" encoding="UTF-8" standalone="no"?>
<svg
   width="16"
   height="16"
   viewBox="0 0 16 16"
   fill="none"
   version="1.1"
   id="svg1"
   xmlns="http://www.w3.org/2000/svg"
   xmlns:svg="http://www.w3.org/2000/svg">
  <defs
     id="defs1" />
  <path
     d="M 8.0024,0.296875 C 6.09786,0.296317 4.2556,0.966458 2.80689,2.1868 1.35817,3.40713 0.398042,5.09761 0.0991495,6.95424 -0.199743,8.81087 0.18221,10.7119 1.17633,12.3154 2.17044,13.9189 3.7115,15.1197 5.5224,15.7019 h 0.18666 c 0.17029,0.0082 0.3373,-0.0483 0.46667,-0.1579 0.07783,-0.0669 0.13971,-0.15 0.1812,-0.2433 0.04149,-0.0933 0.06157,-0.1945 0.0588,-0.2963 V 14.1489 C 6.41036,14.1062 6.39639,14.065 6.37464,14.0277 6.35289,13.9904 6.32379,13.9578 6.28906,13.9317 6.25112,13.9018 6.20699,13.8803 6.15977,13.869 6.11256,13.8576 6.06339,13.8566 6.01573,13.8659 4.2224,14.2476 3.84239,13.1421 3.82239,13.0697 3.59689,12.4839 3.19423,11.9807 2.66906,11.6286 l -0.1,-0.0724 c 0.07872,-0.0376 0.16623,-0.0535 0.25333,-0.0461 0.16616,0.0247 0.32317,0.0908 0.45617,0.1921 0.13301,0.1014 0.23759,0.2346 0.30383,0.387 0.25791,0.4432 0.67993,0.7705 1.17728,0.9128 0.49735,0.1424 1.03126,0.0888 1.48939,-0.1495 C 6.29857,12.8308 6.34235,12.7982 6.37703,12.7571 6.41171,12.716 6.43635,12.6676 6.44906,12.6156 6.47609,12.3136 6.60797,12.03 6.82239,11.8128 6.87183,11.7707 6.90766,11.7152 6.92544,11.6532 6.94321,11.5912 6.94216,11.5255 6.9224,11.464 6.90419,11.4025 6.86783,11.3478 6.81796,11.3068 6.76809,11.2657 6.70697,11.2403 6.6424,11.2337 5.0624,11.056 3.44239,10.5099 3.44239,7.81843 3.43089,7.14162 3.68397,6.48646 4.14906,5.98904 4.1911,5.9436 4.21909,5.88723 4.22972,5.8266 4.24035,5.76596 4.23318,5.70359 4.20906,5.64685 4.02443,5.13352 4.02678,4.57274 4.21573,4.06094 4.83135,4.16953 5.40922,4.42983 5.89573,4.8177 5.93621,4.84502 5.98252,4.86279 6.03107,4.86964 6.07962,4.87648 6.12911,4.87222 6.17573,4.85719 6.77162,4.70032 7.38567,4.62068 8.0024,4.62029 8.62153,4.61739 9.23822,4.69707 9.83573,4.85719 9.88124,4.87217 9.92968,4.8764 9.97715,4.86954 10.0246,4.86269 10.0698,4.84493 10.1091,4.8177 c 0.4859,-0.38885 1.064,-0.64927 1.68,-0.75676 0.1831,0.50641 0.1831,1.05976 0,1.56617 -0.0242,0.0572 -0.0307,0.12014 -0.0188,0.18099 0.0118,0.06084 0.0415,0.1169 0.0854,0.1612 0.4579,0.49345 0.7082,1.14053 0.7,1.80964 0,2.69806 -1.62,3.23766 -3.20664,3.40876 -0.06457,0.0065 -0.12569,0.032 -0.17557,0.073 -0.04987,0.041 -0.08622,0.0958 -0.10443,0.1573 -0.01922,0.0604 -0.01998,0.1251 -0.0022,0.1859 0.01778,0.0609 0.05333,0.1152 0.1022,0.1563 0.14747,0.1519 0.2601,0.3334 0.33027,0.5321 0.07017,0.1987 0.09622,0.41 0.0764,0.6195 v 2.0926 c -0.00149,0.1023 0.01983,0.2036 0.06246,0.2969 0.04263,0.0932 0.10552,0.1761 0.18421,0.2427 0.09928,0.0747 0.2152,0.125 0.338,0.1467 0.1229,0.0217 0.2493,0.0143 0.3687,-0.0217 1.7901,-0.6013 3.3066,-1.8091 4.2804,-3.4091 0.9738,-1.6 1.3419,-3.48875 1.0391,-5.33118 C 15.5457,5.08629 14.5915,3.4093 13.1552,2.19528 11.7189,0.981251 9.89331,0.308676 8.0024,0.296875 Z"
     fill="#3c4043"
     id="path1" />
  <path
     style="fill:#ffffff;stroke-width:0.0197112"
     d="M 5.2841328,15.6099 C 4.4057202,15.291735 3.5739273,14.816941 2.8501418,14.220561 2.5476861,13.971346 2.0038227,13.418916 1.7538583,13.107011 -0.02833919,10.883187 -0.4760785,7.9497893 0.5643186,5.3136531 0.76713574,4.7997593 1.0958216,4.1885546 1.4163976,3.7291775 1.8651891,3.0860708 2.5105801,2.4144004 3.1317325,1.9439965 4.1616283,1.1640479 5.3776236,0.6381216 6.6473563,0.42346509 7.1840815,0.33272819 7.5206036,0.30943326 8.1279213,0.32097652 8.8229536,0.33418697 9.2341119,0.38523667 9.8499385,0.53478341 12.15462,1.0944498 14.080567,2.6259588 15.125447,4.7298551 c 0.904718,1.8216769 1.062092,3.9227367 0.438049,5.8482509 -0.601321,1.855401 -1.854396,3.409124 -3.553689,4.406318 -0.278581,0.16348 -0.864723,0.443494 -1.205379,0.575839 -0.292747,0.113733 -0.296925,0.114688 -0.502259,0.11485 -0.194536,1.54e-4 -0.215013,-0.0038 -0.3386571,-0.06462 C 9.8188806,15.539293 9.7123489,15.432338 9.6457925,15.291516 9.6047385,15.204656 9.6037305,15.17731 9.5932055,13.864702 9.5811525,12.361417 9.5884955,12.439221 9.42791,12.113164 9.37441,12.004536 9.2948421,11.884642 9.2221507,11.803124 9.0823438,11.646341 9.0451187,11.550906 9.0792873,11.436862 9.1328483,11.25809 9.2125685,11.214252 9.5645755,11.169999 10.300507,11.077479 10.906344,10.879907 11.355474,10.585958 11.568518,10.446524 11.90281,10.110222 12.04324,9.894056 12.372892,9.3866215 12.530733,8.7922403 12.55928,7.9508025 12.56848,7.6810588 12.56378,7.5576494 12.53768,7.3815184 12.462172,6.8714645 12.263082,6.4339962 11.920479,6.0253259 11.783418,5.8618334 11.759005,5.7870012 11.7977,5.6489799 11.81147,5.5998519 11.83915,5.4991494 11.85919,5.4251973 11.95481,5.0724631 11.95755,4.6719595 11.86689,4.2929462 11.837735,4.1708704 11.8026,4.066672 11.788846,4.0613941 11.752657,4.047507 11.425785,4.1272862 11.204925,4.2039114 10.842793,4.3295494 10.501789,4.5092528 10.204203,4.7312762 10.123034,4.7918349 10.026256,4.84708 9.9891407,4.8540428 9.9438662,4.8625362 9.8369964,4.8465165 9.6643964,4.8053636 9.1015227,4.6711581 8.6295616,4.6172757 8.0196802,4.6175911 7.3969319,4.6179133 6.8657281,4.6783569 6.3108477,4.8120325 6.0044322,4.8858507 6.0269375,4.8916253 5.6816649,4.6505891 5.4592041,4.4952884 5.1516294,4.3338588 4.900369,4.240529 4.717724,4.1726862 4.291149,4.0541205 4.2297092,4.0541205 c -0.033068,0 -0.095096,0.200976 -0.13594,0.4404623 -0.057044,0.3344726 -0.027549,0.7381743 0.078104,1.0689984 0.053978,0.169019 0.061495,0.2616535 0.026537,0.3270115 C 4.1857639,5.9142353 4.1177368,6.004428 4.0472382,6.0910209 3.8057027,6.3876971 3.6651265,6.6441637 3.5556286,6.9879114 3.4575205,7.2959024 3.4271146,7.5641389 3.4409029,8 3.46172,8.6580414 3.5622376,9.1459798 3.7702738,9.5988501 c 0.21119,0.4597359 0.6088252,0.8899399 1.0512555,1.1373619 0.4072,0.227719 1.0188478,0.409034 1.6237352,0.481336 0.102829,0.01229 0.2151907,0.03114 0.2496928,0.0419 0.1407251,0.04386 0.225912,0.158925 0.225912,0.30516 0,0.09805 -0.026591,0.146877 -0.1740781,0.319618 -0.1597837,0.187143 -0.2610997,0.420769 -0.3106979,0.716445 -0.018242,0.108745 -0.1158806,0.207627 -0.2800014,0.283564 C 5.7110489,13.09015 5.1478947,13.121989 4.6875432,12.96726 4.5378043,12.916931 4.3300162,12.813913 4.1838197,12.717523 3.9571885,12.568101 3.6789768,12.254324 3.5523383,12.005317 3.4394881,11.783422 3.1483249,11.565923 2.8932365,11.512966 c -0.1123466,-0.02332 -0.3249708,0.0024 -0.3249708,0.03936 0,0.0093 0.077491,0.07237 0.1722017,0.14011 0.094711,0.06774 0.2696695,0.221112 0.3887969,0.340824 0.3024318,0.303916 0.5011046,0.605011 0.6760316,1.024547 0.2388218,0.572776 0.6948865,0.858268 1.4197964,0.888778 0.2049596,0.0086 0.3196587,0.0029 0.501845,-0.0252 0.3506444,-0.05402 0.4582289,-0.05016 0.5497824,0.01971 0.1269613,0.09689 0.13227,0.127291 0.1254233,0.718375 l -0.00608,0.524804 -0.064787,0.131514 c -0.07046,0.14303 -0.1712191,0.243036 -0.3174894,0.315115 -0.074293,0.03661 -0.1279237,0.0452 -0.3065303,0.04911 -0.207106,0.0045 -0.2254322,0.0015 -0.4231243,-0.07011 z"
     id="path2" />
</svg>
