<?xml version="1.0" encoding="UTF-8" standalone="no"?>
<svg
   version="1.1"
   width="16"
   height="16"
   viewBox="0 0 16 16"
   xml:space="preserve"
   id="svg6"
   xmlns="http://www.w3.org/2000/svg"
   xmlns:svg="http://www.w3.org/2000/svg"><defs
   id="defs10" />
<g
   style="opacity:1;fill:none;fill-rule:nonzero;stroke:none;stroke-width:0;stroke-linecap:butt;stroke-linejoin:miter;stroke-miterlimit:10;stroke-dasharray:none"
   transform="scale(0.17777778)"
   id="g4">
	<path
   d="M 83.349,0 H 6.651 C 2.978,0 0,2.887 0,6.447 V 83.553 C 0,87.114 2.978,90 6.651,90 H 83.349 C 87.022,90 90,87.114 90,83.553 V 6.447 C 90,2.887 87.022,0 83.349,0 Z M 27.282,75.339 H 13.688 V 34.699 H 27.282 Z M 20.485,29.151 h -0.088 c -4.562,0 -7.512,-3.121 -7.512,-7.021 0,-3.988 3.04,-7.022 7.69,-7.022 4.651,0 7.513,3.034 7.601,7.022 0,3.9 -2.951,7.021 -7.691,7.021 z M 76.299,75.339 H 62.707 V 53.598 c 0,-5.463 -1.968,-9.19 -6.887,-9.19 -3.756,0 -5.992,2.513 -6.975,4.94 -0.359,0.868 -0.447,2.081 -0.447,3.296 V 75.339 H 34.804 c 0,0 0.178,-36.826 0,-40.64 h 13.594 v 5.756 c 1.806,-2.769 5.036,-6.709 12.251,-6.709 8.944,0 15.65,5.808 15.65,18.291 z"
   style="opacity:1;fill:#000000;fill-rule:nonzero;stroke:none;stroke-width:1;stroke-linecap:butt;stroke-linejoin:miter;stroke-miterlimit:10;stroke-dasharray:none"
   stroke-linecap="round"
   id="path2" />
</g>
<path
   style="fill:#000000;stroke-width:0.0240075"
   d="M 2.4568965,9.7796464 V 6.1841881 H 3.6433977 4.8298989 V 9.7796464 13.375105 H 3.6433977 2.4568965 Z"
   id="path1" /><path
   style="fill:#000000;stroke-width:0.0240075"
   d="m 6.2032112,9.7796684 0.00495,-3.595436 1.1924936,-2.21e-5 1.1924936,-2.22e-5 v 0.5033642 c 0,0.2768503 0.00809,0.5030225 0.017977,0.502605 0.00989,-4.176e-4 0.063174,-0.067832 0.1184145,-0.1498108 C 8.8547413,6.8545395 9.1682418,6.5408847 9.3526425,6.4169338 9.7212079,6.1691911 10.131388,6.0430896 10.634136,6.0229652 c 1.498847,-0.059997 2.524178,0.7551396 2.823955,2.245039 0.08696,0.4321768 0.09662,0.7263617 0.09671,2.9438328 l 8.1e-5,2.163268 h -1.197528 -1.197528 l -0.008,-2.163268 C 11.143976,9.0749128 11.14324,9.0461645 11.091386,8.8510512 10.918994,8.2023831 10.536492,7.8851442 9.9282773,7.8863927 9.5575923,7.8871536 9.2560295,8.0120343 8.9971378,8.2719888 8.8053148,8.4645991 8.6549271,8.7486293 8.6176834,8.9886455 c -0.014884,0.095923 -0.024246,0.96879 -0.024357,2.2711315 l -1.81e-4,2.115328 H 7.3957049 6.1982646 Z"
   id="path3" /><path
   style="fill:#000000;stroke-width:0.0240075"
   d="M 3.3905316,5.1535663 C 2.7427567,5.050712 2.3130781,4.5624494 2.3130781,3.9292086 c 0,-0.5856372 0.3604927,-1.0312103 0.9587889,-1.1850739 0.2235413,-0.057488 0.6730251,-0.040529 0.8868797,0.033462 0.406056,0.14049 0.6859115,0.4429212 0.7913522,0.8551902 0.056718,0.2217658 0.059546,0.3763426 0.01068,0.5836538 C 4.8565431,4.6586475 4.5160147,4.9952937 4.0500554,5.116781 3.8692953,5.16391 3.5631974,5.180982 3.3905316,5.1535663 Z"
   id="path4" /><path
   style="fill:#ffffff;stroke-width:0.0240075"
   d="M 0.90720307,15.953772 C 0.60054318,15.879387 0.28010549,15.633541 0.14671728,15.370312 0.00234962,15.085416 0.01198486,15.611494 0.01198486,8.0140156 c 0,-4.9733277 0.0075297,-6.9932059 0.02640767,-7.08400908 C 0.12296202,0.52322745 0.44224879,0.18478025 0.86290997,0.05600974 1.0010647,0.01371858 1.2823582,0.01198486 8.005887,0.01198486 c 6.798597,0 7.002936,0.001297 7.130992,0.0452615 0.404659,0.13892885 0.654223,0.37308011 0.796888,0.74767426 l 0.05404,0.14188338 0.0067,6.9032798 c 0.0045,4.5629222 -0.0015,6.9723532 -0.0176,7.1070222 -0.04523,0.378754 -0.265886,0.70726 -0.591286,0.880288 -0.303163,0.161204 0.263482,0.149875 -7.4037408,0.148017 -5.4735896,-0.0013 -6.9774706,-0.0081 -7.07471413,-0.03164 z M 4.8538686,9.7796464 V 6.1602184 H 3.6433977 2.4329267 v 3.619428 3.6194276 h 1.210471 1.2104709 z M 8.6172958,11.271762 C 8.6174114,9.9167927 8.6265115,9.0887685 8.6423612,8.9910854 8.6850513,8.7279827 8.8578768,8.429804 9.0850254,8.2273499 9.3164756,8.0210617 9.6106735,7.9097077 9.9225083,7.9103624 c 0.5957977,0.00125 0.9669727,0.3081458 1.1446877,0.9464497 0.05312,0.1907798 0.05343,0.2028502 0.06113,2.3670099 l 0.0077,2.175252 h 1.222773 1.222772 l -0.0095,-2.36701 C 13.562846,8.7233309 13.561329,8.6582678 13.510504,8.3894025 13.334969,7.4608392 12.945839,6.8070735 12.332532,6.4103274 11.564302,5.9133617 10.377889,5.8476775 9.5692543,6.2573423 9.2624016,6.4127979 8.932229,6.7021331 8.7127799,7.0078836 l -0.08368,0.1165888 -0.00649,-0.482127 -0.00649,-0.482127 -1.2159672,2.16e-5 -1.215967,2.18e-5 -0.00467,3.6194061 -0.00468,3.6194061 H 7.3959764 8.6171149 Z M 4.0748526,5.1381346 C 4.4292471,5.0477791 4.7444183,4.7988279 4.8899159,4.4943228 5.2415532,3.7583986 4.8477932,2.9167735 4.0613364,2.7233118 c -0.2060567,-0.050688 -0.605851,-0.050688 -0.8119077,0 -0.4632005,0.1139434 -0.8102092,0.4421284 -0.925501,0.8752965 -0.045034,0.1692006 -0.04409,0.5024886 0.00192,0.679149 0.101012,0.3878116 0.4226231,0.7177517 0.8272989,0.848724 0.2424851,0.07848 0.6398863,0.083504 0.9217019,0.011653 z"
   id="path5" /></svg>
