<?xml version="1.0" encoding="UTF-8" standalone="no"?>
<svg
   width="16"
   height="16"
   viewBox="0 0 16 16"
   fill="none"
   version="1.1"
   id="svg1"
   xmlns="http://www.w3.org/2000/svg"
   xmlns:svg="http://www.w3.org/2000/svg">
  <defs
     id="defs1" />
  <path
     d="M 8,0 C 6.41775,0 4.87104,0.469192 3.55544,1.34824 2.23985,2.22729 1.21447,3.47672 0.608967,4.93853 0.00346629,6.40034 -0.15496,8.00887 0.153721,9.56072 0.462403,11.1126 1.22433,12.538 2.34315,13.6569 c 1.11882,1.1188 2.54428,1.8807 4.09613,2.1894 1.55185,0.3087 3.16038,0.1502 4.62222,-0.4553 1.4618,-0.6055 2.7112,-1.6308 3.5903,-2.9464 C 15.5308,11.129 16,9.58225 16,8 16,5.87827 15.1571,3.84344 13.6569,2.34315 12.1566,0.842855 10.1217,0 8,0 Z m 2.3067,12.4733 c -0.0076,0.0291 -0.022,0.0559 -0.0421,0.0782 -0.0202,0.0222 -0.0454,0.0393 -0.0735,0.0498 -0.0281,0.0105 -0.0584,0.014 -0.0882,0.0103 C 10.0732,12.6079 10.0447,12.597 10.02,12.58 L 6.61334,10.1133 C 6.5769,10.0848 6.55107,10.0449 6.54,10 6.53921,9.97468 6.54421,9.94951 6.5546,9.9264 6.565,9.9033 6.58053,9.88287 6.6,9.86667 L 9.66,7.2 C 9.67833,7.18131 9.68859,7.15617 9.68859,7.13 9.68859,7.10382 9.67833,7.07869 9.66,7.06 9.64508,7.03795 9.62288,7.02186 9.59728,7.01454 9.57168,7.00723 9.54432,7.00916 9.52,7.02 L 5.12,9.25333 C 5.09921,9.26337 5.07642,9.26858 5.05334,9.26858 5.03025,9.26858 5.00746,9.26337 4.98667,9.25333 L 2.88,8.49333 C 2.84611,8.47886 2.81726,8.45467 2.7971,8.42382 2.77693,8.39298 2.76634,8.35685 2.76667,8.32 2.76477,8.28366 2.77482,8.24769 2.79529,8.21759 2.81575,8.1875 2.84551,8.16493 2.88,8.15333 l 8.9733,-3.42 c 0.03,-0.01261 0.063,-0.01618 0.095,-0.01026 0.032,0.00593 0.0616,0.02108 0.085,0.0436 0.0252,0.0219 0.0441,0.05015 0.0546,0.0818 0.0106,0.03166 0.0124,0.06557 0.0054,0.0982 z"
     fill="#3c4043"
     id="path1" />
  <path
     style="fill:#000000;stroke-width:0.0197112"
     d="M 8.3247232,11.338987 C 7.1600748,10.495041 6.5842926,10.066293 6.5666893,10.029892 6.5442938,9.9835816 6.545,9.9689143 6.5715775,9.9283519 6.588663,9.9022758 7.2912175,9.281011 8.1328094,8.5477632 8.9744014,7.8145153 9.6694831,7.2053259 9.6774355,7.1940086 9.7283241,7.1215868 9.6632449,7.0061501 9.5715271,7.0061501 c -0.026944,0 -1.0432413,0.504797 -2.2584376,1.1217712 -1.2151963,0.6169741 -2.2302672,1.1217712 -2.2557131,1.1217712 -0.076551,0 -2.1794947,-0.7660247 -2.2283481,-0.8117052 -0.047681,-0.044584 -0.059581,-0.1463022 -0.024735,-0.2114139 0.02475,-0.046246 -0.8179264,0.2784262 7.7181047,-2.9736873 1.124048,-0.428247 1.399584,-0.5265077 1.436655,-0.5123334 0.05444,0.020817 0.105631,0.075668 0.121594,0.130296 0.0063,0.021648 -0.393888,1.7462152 -0.889365,3.8323712 -0.986637,4.1541411 -0.915178,3.8928741 -1.064331,3.8914201 -0.06142,-5.99e-4 -0.2905928,-0.160268 -1.8022278,-1.255653 z"
     id="path5" />
  <path
     style="fill:#ffffff;stroke-width:0.0197112"
     d="M 7.2226322,15.952086 C 5.9875385,15.817474 4.9283456,15.464481 3.8769988,14.837101 2.5570696,14.049446 1.4679532,12.850211 0.79549873,11.444034 0.40599986,10.629549 0.17459039,9.819653 0.05599579,8.8558922 0.01286879,8.5054197 0.00715107,7.5710178 0.04600168,7.2226322 0.17253156,6.0879992 0.51027196,5.0178476 1.0357752,4.0864728 1.1823076,3.8267664 1.5576315,3.2679906 1.731674,3.0504305 3.0172255,1.44344 4.8216675,0.39718569 6.8191882,0.10058044 7.6247967,-0.01904169 8.5261196,-0.01208304 9.3087331,0.11980094 12.43432,0.64651655 14.939229,2.9414099 15.733538,6.0059377 15.915932,6.7096337 15.979289,7.2245873 15.978877,8 c -3.25e-4,0.6116627 -0.02517,0.9096413 -0.118983,1.4268143 -0.4472,2.4654207 -2.048305,4.5984257 -4.29073,5.7161467 -0.822273,0.409856 -1.6449444,0.659162 -2.6092583,0.790722 -0.3062406,0.04178 -1.4150199,0.05353 -1.7372735,0.0184 z m 3.0308468,-3.381372 c 0.04782,-0.04114 0.115355,-0.312887 0.94756,-3.8130378 0.492837,-2.0728105 0.897465,-3.8056673 0.899175,-3.8507931 0.0036,-0.094555 -0.05514,-0.1738499 -0.143033,-0.193155 -0.03947,-0.00867 -0.458591,0.1431766 -1.675265,0.6069351 -0.8924463,0.3401728 -2.9289025,1.1162289 -4.5254584,1.724569 -1.638516,0.624328 -2.9221153,1.1239035 -2.9471095,1.147012 -0.061424,0.056789 -0.061424,0.1902607 0,0.2574202 0.033193,0.036293 0.3129084,0.1449749 1.1171432,0.4340617 0.5900745,0.2121056 1.0986326,0.3856466 1.1301294,0.3856466 0.036709,0 0.8432095,-0.398893 2.2465988,-1.1111616 1.2041324,-0.611139 2.2125361,-1.1169856 2.240897,-1.1241037 0.061739,-0.015496 0.1287008,0.035543 0.128699,0.098094 -9e-7,0.030073 -0.4211733,0.4082143 -1.5564241,1.3974036 -0.8974148,0.7819535 -1.564417,1.3771997 -1.5753031,1.4058328 -0.012762,0.033567 -0.011535,0.067393 0.00379,0.1043822 0.019342,0.0467 1.5301467,1.157575 3.3522867,2.4649 0.177299,0.127207 0.266044,0.143644 0.356317,0.06599 z"
     id="path6" />
</svg>
